<?xml version="1.0" standalone="no"?>
<svg xmlns:xlink="http://www.w3.org/1999/xlink" xmlns="http://www.w3.org/2000/svg" id="d3entropyParent" width="1007" height="150" style="pointer-events: auto;"><g id="d3entropy"><g class="main" transform="translate(15,0)"><g clip-path="url(#clip)"><rect class="bar" id="NP3" x="20.733244857332448" y="48.610148556766156" width="3" height="1.3898514432338445" style="fill: rgb(51, 51, 51); "/><rect class="bar" id="NP5" x="24.555408095554082" y="48.95761141757462" width="3" height="1.0423885824253816" style="fill: rgb(51, 51, 51); cursor: pointer;"/><rect class="bar" id="NP9" x="32.19973457199735" y="49.23558170622139" width="3" height="0.7644182937786113" style="fill: rgb(51, 51, 51); cursor: pointer;"/><rect class="bar" id="NP10" x="34.110816191108164" y="49.30507427838308" width="3" height="0.6949257216169187" style="fill: rgb(51, 51, 51); cursor: pointer;"/><rect class="bar" id="NP11" x="36.02189781021898" y="49.30507427838308" width="3" height="0.6949257216169187" style="fill: rgb(51, 51, 51); cursor: pointer;"/><rect class="bar" id="NP13" x="39.84406104844061" y="49.23558170622139" width="3" height="0.7644182937786113" style="fill: rgb(51, 51, 51); cursor: pointer;"/><rect class="bar" id="NP14" x="41.755142667551425" y="48.888118845412926" width="3" height="1.1118811545870741" style="fill: rgb(51, 51, 51); cursor: pointer;"/><rect class="bar" id="NP15" x="43.66622428666224" y="48.47116341244277" width="3" height="1.5288365875572296" style="fill: rgb(51, 51, 51); cursor: pointer;"/><rect class="bar" id="NP16" x="45.57730590577306" y="46.24740110326862" width="3" height="3.752598896731378" style="fill: rgb(51, 51, 51); cursor: pointer;"/><rect class="bar" id="NP17" x="47.488387524883876" y="49.65253713919154" width="3" height="0.3474628608084629" style="fill: rgb(51, 51, 51); cursor: pointer;"/><rect class="bar" id="NP18" x="49.39946914399469" y="49.30507427838308" width="3" height="0.6949257216169187" style="fill: rgb(51, 51, 51); cursor: pointer;"/><rect class="bar" id="NP21" x="55.13271400132714" y="48.74913370108954" width="3" height="1.2508662989104593" style="fill: rgb(51, 51, 51); cursor: pointer;"/><rect class="bar" id="NP22" x="57.04379562043796" y="32.696349531738655" width="3" height="17.303650468261345" style="fill: rgb(51, 51, 51); cursor: pointer;"/><rect class="bar" id="NP24" x="60.86595885865959" y="49.65253713919154" width="3" height="0.3474628608084629" style="fill: rgb(51, 51, 51); cursor: pointer;"/><rect class="bar" id="NP25" x="62.777040477770406" y="49.30507427838308" width="3" height="0.6949257216169187" style="fill: rgb(51, 51, 51); cursor: pointer;"/><rect class="bar" id="NP26" x="64.68812209688122" y="49.65253713919154" width="3" height="0.3474628608084629" style="fill: rgb(51, 51, 51); cursor: pointer;"/><rect class="bar" id="NP27" x="66.59920371599203" y="49.65253713919154" width="3" height="0.3474628608084629" style="fill: rgb(51, 51, 51); cursor: pointer;"/><rect class="bar" id="NP28" x="68.51028533510285" y="49.65253713919154" width="3" height="0.3474628608084629" style="fill: rgb(51, 51, 51); cursor: pointer;"/><rect class="bar" id="NP31" x="74.2435301924353" y="49.23558170622139" width="3" height="0.7644182937786113" style="fill: rgb(51, 51, 51); cursor: pointer;"/><rect class="bar" id="NP33" x="78.06569343065694" y="47.98471540731093" width="3" height="2.0152845926890706" style="fill: rgb(51, 51, 51); cursor: pointer;"/><rect class="bar" id="NP34" x="79.97677504976775" y="43.53719078896263" width="3" height="6.462809211037367" style="fill: rgb(51, 51, 51); cursor: pointer;"/><rect class="bar" id="NP35" x="81.88785666887856" y="49.65253713919154" width="3" height="0.3474628608084629" style="fill: rgb(51, 51, 51); cursor: pointer;"/><rect class="bar" id="NP36" x="83.79893828798939" y="49.65253713919154" width="3" height="0.3474628608084629" style="fill: rgb(51, 51, 51); cursor: pointer;"/><rect class="bar" id="NP37" x="85.7100199071002" y="49.23558170622139" width="3" height="0.7644182937786113" style="fill: rgb(51, 51, 51); cursor: pointer;"/><rect class="bar" id="NP38" x="87.62110152621102" y="49.23558170622139" width="3" height="0.7644182937786113" style="fill: rgb(51, 51, 51); cursor: pointer;"/><rect class="bar" id="NP39" x="89.53218314532182" y="49.65253713919154" width="3" height="0.3474628608084629" style="fill: rgb(51, 51, 51); cursor: pointer;"/><rect class="bar" id="NP40" x="91.44326476443266" y="49.02710398973631" width="3" height="0.972896010263689" style="fill: rgb(51, 51, 51); cursor: pointer;"/><rect class="bar" id="NP41" x="93.35434638354346" y="48.95761141757462" width="3" height="1.0423885824253816" style="fill: rgb(51, 51, 51); cursor: pointer;"/><rect class="bar" id="NP48" x="106.73191771731918" y="49.65253713919154" width="3" height="0.3474628608084629" style="fill: rgb(51, 51, 51); cursor: pointer;"/><rect class="bar" id="NP49" x="108.64299933643" y="49.65253713919154" width="3" height="0.3474628608084629" style="fill: rgb(51, 51, 51); cursor: pointer;"/><rect class="bar" id="NP50" x="110.55408095554081" y="17.3384910840047" width="3" height="32.6615089159953" style="fill: rgb(51, 51, 51); cursor: pointer;"/><rect class="bar" id="NP52" x="114.37624419376245" y="49.23558170622139" width="3" height="0.7644182937786113" style="fill: rgb(51, 51, 51); cursor: pointer;"/><rect class="bar" id="NP55" x="120.1094890510949" y="49.65253713919154" width="3" height="0.3474628608084629" style="fill: rgb(51, 51, 51); cursor: pointer;"/><rect class="bar" id="NP61" x="131.57597876575977" y="49.02710398973631" width="3" height="0.972896010263689" style="fill: rgb(51, 51, 51); cursor: pointer;"/><rect class="bar" id="NP63" x="135.39814200398143" y="49.65253713919154" width="3" height="0.3474628608084629" style="fill: rgb(51, 51, 51); cursor: pointer;"/><rect class="bar" id="NP64" x="137.30922362309224" y="48.610148556766156" width="3" height="1.3898514432338445" style="fill: rgb(51, 51, 51); cursor: pointer;"/><rect class="bar" id="NP65" x="139.22030524220304" y="49.30507427838308" width="3" height="0.6949257216169187" style="fill: rgb(51, 51, 51); cursor: pointer;"/><rect class="bar" id="NP66" x="141.13138686131387" y="49.65253713919154" width="3" height="0.3474628608084629" style="fill: rgb(51, 51, 51); cursor: pointer;"/><rect class="bar" id="NP67" x="143.04246848042467" y="49.02710398973631" width="3" height="0.972896010263689" style="fill: rgb(51, 51, 51); cursor: pointer;"/><rect class="bar" id="NP68" x="144.9535500995355" y="49.30507427838308" width="3" height="0.6949257216169187" style="fill: rgb(51, 51, 51); cursor: pointer;"/><rect class="bar" id="NP69" x="146.86463171864634" y="49.65253713919154" width="3" height="0.3474628608084629" style="fill: rgb(51, 51, 51); cursor: pointer;"/><rect class="bar" id="NP70" x="148.7757133377571" y="49.65253713919154" width="3" height="0.3474628608084629" style="fill: rgb(51, 51, 51); cursor: pointer;"/><rect class="bar" id="NP71" x="150.68679495686794" y="49.30507427838308" width="3" height="0.6949257216169187" style="fill: rgb(51, 51, 51); cursor: pointer;"/><rect class="bar" id="NP73" x="154.50895819508958" y="49.65253713919154" width="3" height="0.3474628608084629" style="fill: rgb(51, 51, 51); cursor: pointer;"/><rect class="bar" id="NP77" x="162.15328467153284" y="46.80334168056216" width="3" height="3.1966583194378373" style="fill: rgb(51, 51, 51); cursor: pointer;"/><rect class="bar" id="NP78" x="164.06436629064365" y="49.65253713919154" width="3" height="0.3474628608084629" style="fill: rgb(51, 51, 51); cursor: pointer;"/><rect class="bar" id="NP81" x="169.7976111479761" y="49.65253713919154" width="3" height="0.3474628608084629" style="fill: rgb(51, 51, 51); cursor: pointer;"/><rect class="bar" id="NP82" x="171.70869276708692" y="49.65253713919154" width="3" height="0.3474628608084629" style="fill: rgb(51, 51, 51); cursor: pointer;"/><rect class="bar" id="NP84" x="175.53085600530855" y="47.49826740217908" width="3" height="2.5017325978209186" style="fill: rgb(51, 51, 51); cursor: pointer;"/><rect class="bar" id="NP85" x="177.44193762441938" y="40.479517613848174" width="3" height="9.520482386151826" style="fill: rgb(51, 51, 51); cursor: pointer;"/><rect class="bar" id="NP86" x="179.35301924353018" y="49.65253713919154" width="3" height="0.3474628608084629" style="fill: rgb(51, 51, 51); cursor: pointer;"/><rect class="bar" id="NP87" x="181.26410086264102" y="49.65253713919154" width="3" height="0.3474628608084629" style="fill: rgb(51, 51, 51); cursor: pointer;"/><rect class="bar" id="NP89" x="185.08626410086262" y="49.65253713919154" width="3" height="0.3474628608084629" style="fill: rgb(51, 51, 51); cursor: pointer;"/><rect class="bar" id="NP90" x="186.99734571997345" y="49.65253713919154" width="3" height="0.3474628608084629" style="fill: rgb(51, 51, 51); cursor: pointer;"/><rect class="bar" id="NP91" x="188.90842733908428" y="49.65253713919154" width="3" height="0.3474628608084629" style="fill: rgb(51, 51, 51); cursor: pointer;"/><rect class="bar" id="NP95" x="196.55275381552752" y="49.30507427838308" width="3" height="0.6949257216169187" style="fill: rgb(51, 51, 51); cursor: pointer;"/><rect class="bar" id="NP98" x="202.28599867286" y="46.4558788197537" width="3" height="3.5441211802463" style="fill: rgb(51, 51, 51); cursor: pointer;"/><rect class="bar" id="NP99" x="204.19708029197082" y="49.30507427838308" width="3" height="0.6949257216169187" style="fill: rgb(51, 51, 51); cursor: pointer;"/><rect class="bar" id="NP100" x="206.10816191108162" y="47.91522283514924" width="3" height="2.084777164850763" style="fill: rgb(51, 51, 51); cursor: pointer;"/><rect class="bar" id="NP101" x="208.01924353019243" y="49.23558170622139" width="3" height="0.7644182937786113" style="fill: rgb(51, 51, 51); cursor: pointer;"/><rect class="bar" id="NP102" x="209.93032514930326" y="49.65253713919154" width="3" height="0.3474628608084629" style="fill: rgb(51, 51, 51); cursor: pointer;"/><rect class="bar" id="NP105" x="215.6635700066357" y="47.845730262987544" width="3" height="2.1542697370124557" style="fill: rgb(51, 51, 51); cursor: pointer;"/><rect class="bar" id="NP109" x="223.30789648307896" y="48.40167084028108" width="3" height="1.5983291597189222" style="fill: rgb(51, 51, 51); cursor: pointer;"/><rect class="bar" id="NP111" x="227.1300597213006" y="49.23558170622139" width="3" height="0.7644182937786113" style="fill: rgb(51, 51, 51); cursor: pointer;"/><rect class="bar" id="NP114" x="232.86330457863303" y="48.05420797947262" width="3" height="1.945792020527378" style="fill: rgb(51, 51, 51); cursor: pointer;"/><rect class="bar" id="NP116" x="236.68546781685467" y="49.65253713919154" width="3" height="0.3474628608084629" style="fill: rgb(51, 51, 51); cursor: pointer;"/><rect class="bar" id="NP117" x="238.5965494359655" y="49.02710398973631" width="3" height="0.972896010263689" style="fill: rgb(51, 51, 51); cursor: pointer;"/><rect class="bar" id="NP118" x="240.50763105507633" y="49.65253713919154" width="3" height="0.3474628608084629" style="fill: rgb(51, 51, 51); cursor: pointer;"/><rect class="bar" id="NP119" x="242.4187126741871" y="47.01181939704724" width="3" height="2.9881806029527596" style="fill: rgb(51, 51, 51); cursor: pointer;"/><rect class="bar" id="NP122" x="248.15195753151957" y="49.65253713919154" width="3" height="0.3474628608084629" style="fill: rgb(51, 51, 51); cursor: pointer;"/><rect class="bar" id="NP125" x="253.885202388852" y="49.65253713919154" width="3" height="0.3474628608084629" style="fill: rgb(51, 51, 51); cursor: pointer;"/><rect class="bar" id="NP126" x="255.79628400796284" y="49.65253713919154" width="3" height="0.3474628608084629" style="fill: rgb(51, 51, 51); cursor: pointer;"/><rect class="bar" id="NP127" x="257.7073656270736" y="47.63725254650247" width="3" height="2.3627474534975335" style="fill: rgb(51, 51, 51); cursor: pointer;"/><rect class="bar" id="NP128" x="259.6184472461845" y="48.54065598460446" width="3" height="1.459344015395537" style="fill: rgb(51, 51, 51); cursor: pointer;"/><rect class="bar" id="NP130" x="263.4406104844061" y="49.23558170622139" width="3" height="0.7644182937786113" style="fill: rgb(51, 51, 51); cursor: pointer;"/><rect class="bar" id="NP131" x="265.3516921035169" y="49.65253713919154" width="3" height="0.3474628608084629" style="fill: rgb(51, 51, 51); cursor: pointer;"/><rect class="bar" id="NP133" x="269.17385534173854" y="49.65253713919154" width="3" height="0.3474628608084629" style="fill: rgb(51, 51, 51); cursor: pointer;"/><rect class="bar" id="NP136" x="274.907100199071" y="47.77623769082585" width="3" height="2.2237623091741483" style="fill: rgb(51, 51, 51); cursor: pointer;"/><rect class="bar" id="NP146" x="294.01791639017915" y="47.289789685694004" width="3" height="2.7102103143059963" style="fill: rgb(51, 51, 51); cursor: pointer;"/><rect class="bar" id="NP150" x="301.6622428666224" y="49.65253713919154" width="3" height="0.3474628608084629" style="fill: rgb(51, 51, 51); cursor: pointer;"/><rect class="bar" id="NP153" x="307.39548772395483" y="48.95761141757462" width="3" height="1.0423885824253816" style="fill: rgb(51, 51, 51); cursor: pointer;"/><rect class="bar" id="NP154" x="309.3065693430657" y="49.65253713919154" width="3" height="0.3474628608084629" style="fill: rgb(51, 51, 51); cursor: pointer;"/><rect class="bar" id="NP157" x="315.03981420039815" y="49.65253713919154" width="3" height="0.3474628608084629" style="fill: rgb(51, 51, 51); cursor: pointer;"/><rect class="bar" id="NP164" x="328.41738553417383" y="49.65253713919154" width="3" height="0.3474628608084629" style="fill: rgb(51, 51, 51); cursor: pointer;"/><rect class="bar" id="NP176" x="351.3503649635037" y="49.65253713919154" width="3" height="0.3474628608084629" style="fill: rgb(51, 51, 51); cursor: pointer;"/><rect class="bar" id="NP181" x="360.9057730590577" y="49.30507427838308" width="3" height="0.6949257216169187" style="fill: rgb(51, 51, 51); cursor: pointer;"/><rect class="bar" id="NP182" x="362.81685467816857" y="43.328713072477555" width="3" height="6.671286927522445" style="fill: rgb(51, 51, 51); cursor: pointer;"/><rect class="bar" id="NP183" x="364.72793629727937" y="49.23558170622139" width="3" height="0.7644182937786113" style="fill: rgb(51, 51, 51); cursor: pointer;"/><rect class="bar" id="NP186" x="370.46118115461184" y="49.02710398973631" width="3" height="0.972896010263689" style="fill: rgb(51, 51, 51); cursor: pointer;"/><rect class="bar" id="NP189" x="376.19442601194424" y="49.65253713919154" width="3" height="0.3474628608084629" style="fill: rgb(51, 51, 51); cursor: pointer;"/><rect class="bar" id="NP191" x="380.01658925016585" y="49.65253713919154" width="3" height="0.3474628608084629" style="fill: rgb(51, 51, 51); cursor: pointer;"/><rect class="bar" id="NP194" x="385.7498341074983" y="11.640100166745938" width="3" height="38.35989983325406" style="fill: rgb(51, 51, 51); cursor: pointer;"/><rect class="bar" id="NP195" x="387.6609157266092" y="48.95761141757462" width="3" height="1.0423885824253816" style="fill: rgb(51, 51, 51); cursor: pointer;"/><rect class="bar" id="NP197" x="391.4830789648308" y="49.65253713919154" width="3" height="0.3474628608084629" style="fill: rgb(51, 51, 51); cursor: pointer;"/><rect class="bar" id="NP198" x="393.39416058394164" y="49.65253713919154" width="3" height="0.3474628608084629" style="fill: rgb(51, 51, 51); cursor: pointer;"/><rect class="bar" id="NP199" x="395.30524220305244" y="49.65253713919154" width="3" height="0.3474628608084629" style="fill: rgb(51, 51, 51); cursor: pointer;"/><rect class="bar" id="NP201" x="399.12740544127405" y="48.74913370108954" width="3" height="1.2508662989104593" style="fill: rgb(51, 51, 51); cursor: pointer;"/><rect class="bar" id="NP202" x="401.03848706038485" y="48.95761141757462" width="3" height="1.0423885824253816" style="fill: rgb(51, 51, 51); cursor: pointer;"/><rect class="bar" id="NP206" x="408.6828135368281" y="49.65253713919154" width="3" height="0.3474628608084629" style="fill: rgb(51, 51, 51); cursor: pointer;"/><rect class="bar" id="NP208" x="412.5049767750498" y="49.65253713919154" width="3" height="0.3474628608084629" style="fill: rgb(51, 51, 51); cursor: pointer;"/><rect class="bar" id="NP210" x="416.3271400132714" y="49.02710398973631" width="3" height="0.972896010263689" style="fill: rgb(51, 51, 51); cursor: pointer;"/><rect class="bar" id="NP211" x="418.23822163238225" y="49.65253713919154" width="3" height="0.3474628608084629" style="fill: rgb(51, 51, 51); cursor: pointer;"/><rect class="bar" id="NP214" x="423.97146648971466" y="48.40167084028108" width="3" height="1.5983291597189222" style="fill: rgb(51, 51, 51); cursor: pointer;"/><rect class="bar" id="NP215" x="425.88254810882546" y="49.23558170622139" width="3" height="0.7644182937786113" style="fill: rgb(51, 51, 51); cursor: pointer;"/><rect class="bar" id="NP216" x="427.79362972793626" y="49.30507427838308" width="3" height="0.6949257216169187" style="fill: rgb(51, 51, 51); cursor: pointer;"/><rect class="bar" id="NP217" x="429.7047113470471" y="37.42184443873372" width="3" height="12.578155561266279" style="fill: rgb(51, 51, 51); cursor: pointer;"/><rect class="bar" id="NP218" x="431.6157929661579" y="49.65253713919154" width="3" height="0.3474628608084629" style="fill: rgb(51, 51, 51); cursor: pointer;"/><rect class="bar" id="NP219" x="433.52687458526873" y="49.65253713919154" width="3" height="0.3474628608084629" style="fill: rgb(51, 51, 51); cursor: pointer;"/><rect class="bar" id="NP224" x="443.08228268082286" y="49.65253713919154" width="3" height="0.3474628608084629" style="fill: rgb(51, 51, 51); cursor: pointer;"/><rect class="bar" id="NP226" x="446.90444591904446" y="49.65253713919154" width="3" height="0.3474628608084629" style="fill: rgb(51, 51, 51); cursor: pointer;"/><rect class="bar" id="NP229" x="452.63769077637687" y="49.65253713919154" width="3" height="0.3474628608084629" style="fill: rgb(51, 51, 51); cursor: pointer;"/><rect class="bar" id="NP232" x="458.37093563370934" y="49.65253713919154" width="3" height="0.3474628608084629" style="fill: rgb(51, 51, 51); cursor: pointer;"/><rect class="bar" id="NP234" x="462.193098871931" y="49.30507427838308" width="3" height="0.6949257216169187" style="fill: rgb(51, 51, 51); cursor: pointer;"/><rect class="bar" id="NP237" x="467.9263437292634" y="49.65253713919154" width="3" height="0.3474628608084629" style="fill: rgb(51, 51, 51); cursor: pointer;"/><rect class="bar" id="NP238" x="469.8374253483742" y="49.65253713919154" width="3" height="0.3474628608084629" style="fill: rgb(51, 51, 51); cursor: pointer;"/><rect class="bar" id="NP239" x="471.74850696748507" y="23.314852289910213" width="3" height="26.685147710089787" style="fill: rgb(51, 51, 51); cursor: pointer;"/><rect class="bar" id="NP246" x="485.1260783012608" y="46.38638624759201" width="3" height="3.6136137524079928" style="fill: rgb(51, 51, 51); cursor: pointer;"/><rect class="bar" id="NP247" x="487.0371599203716" y="48.2626856959577" width="3" height="1.7373143040423003" style="fill: rgb(51, 51, 51); cursor: pointer;"/><rect class="bar" id="NP252" x="496.5925680159257" y="49.65253713919154" width="3" height="0.3474628608084629" style="fill: rgb(51, 51, 51); cursor: pointer;"/><rect class="bar" id="NP253" x="498.50364963503654" y="49.65253713919154" width="3" height="0.3474628608084629" style="fill: rgb(51, 51, 51); cursor: pointer;"/><rect class="bar" id="NP256" x="504.236894492369" y="49.02710398973631" width="3" height="0.972896010263689" style="fill: rgb(51, 51, 51); cursor: pointer;"/><rect class="bar" id="NP260" x="511.8812209688122" y="49.65253713919154" width="3" height="0.3474628608084629" style="fill: rgb(51, 51, 51); cursor: pointer;"/><rect class="bar" id="NP265" x="521.4366290643662" y="44.579579371388014" width="3" height="5.420420628611986" style="fill: rgb(51, 51, 51); cursor: pointer;"/><rect class="bar" id="NP270" x="530.9920371599204" y="49.65253713919154" width="3" height="0.3474628608084629" style="fill: rgb(51, 51, 51); cursor: pointer;"/><rect class="bar" id="NP271" x="532.9031187790312" y="49.65253713919154" width="3" height="0.3474628608084629" style="fill: rgb(51, 51, 51); cursor: pointer;"/><rect class="bar" id="NP276" x="542.4585268745853" y="49.65253713919154" width="3" height="0.3474628608084629" style="fill: rgb(51, 51, 51); cursor: pointer;"/><rect class="bar" id="NP279" x="548.1917717319177" y="49.65253713919154" width="3" height="0.3474628608084629" style="fill: rgb(51, 51, 51); cursor: pointer;"/><rect class="bar" id="NP280" x="550.1028533510284" y="47.22029711353231" width="3" height="2.779702886467689" style="fill: rgb(51, 51, 51); cursor: pointer;"/><rect class="bar" id="NP283" x="555.8360982083609" y="49.30507427838308" width="3" height="0.6949257216169187" style="fill: rgb(51, 51, 51); cursor: pointer;"/><rect class="bar" id="NP284" x="557.7471798274718" y="43.67617593328602" width="3" height="6.323824066713982" style="fill: rgb(51, 51, 51); cursor: pointer;"/><rect class="bar" id="NP285" x="559.6582614465826" y="49.65253713919154" width="3" height="0.3474628608084629" style="fill: rgb(51, 51, 51); cursor: pointer;"/><rect class="bar" id="NP286" x="561.5693430656934" y="49.65253713919154" width="3" height="0.3474628608084629" style="fill: rgb(51, 51, 51); cursor: pointer;"/><rect class="bar" id="NP291" x="571.1247511612476" y="49.23558170622139" width="3" height="0.7644182937786113" style="fill: rgb(51, 51, 51); cursor: pointer;"/><rect class="bar" id="NP298" x="584.5023224950232" y="49.65253713919154" width="3" height="0.3474628608084629" style="fill: rgb(51, 51, 51); cursor: pointer;"/><rect class="bar" id="NP299" x="586.4134041141341" y="49.23558170622139" width="3" height="0.7644182937786113" style="fill: rgb(51, 51, 51); cursor: pointer;"/><rect class="bar" id="NP301" x="590.2355673523557" y="49.02710398973631" width="3" height="0.972896010263689" style="fill: rgb(51, 51, 51); cursor: pointer;"/><rect class="bar" id="NP302" x="592.1466489714666" y="49.65253713919154" width="3" height="0.3474628608084629" style="fill: rgb(51, 51, 51); cursor: pointer;"/><rect class="bar" id="NP303" x="594.0577305905773" y="49.65253713919154" width="3" height="0.3474628608084629" style="fill: rgb(51, 51, 51); cursor: pointer;"/><rect class="bar" id="NP304" x="595.9688122096882" y="49.65253713919154" width="3" height="0.3474628608084629" style="fill: rgb(51, 51, 51); cursor: pointer;"/><rect class="bar" id="NP305" x="597.8798938287989" y="49.23558170622139" width="3" height="0.7644182937786113" style="fill: rgb(51, 51, 51); cursor: pointer;"/><rect class="bar" id="NP307" x="601.7020570670205" y="49.65253713919154" width="3" height="0.3474628608084629" style="fill: rgb(51, 51, 51); cursor: pointer;"/><rect class="bar" id="NP309" x="605.5242203052421" y="49.65253713919154" width="3" height="0.3474628608084629" style="fill: rgb(51, 51, 51); cursor: pointer;"/><rect class="bar" id="NP313" x="613.1685467816854" y="49.30507427838308" width="3" height="0.6949257216169187" style="fill: rgb(51, 51, 51); cursor: pointer;"/><rect class="bar" id="NP315" x="616.990710019907" y="49.23558170622139" width="3" height="0.7644182937786113" style="fill: rgb(51, 51, 51); cursor: pointer;"/><rect class="bar" id="NP316" x="618.9017916390179" y="46.94232682488555" width="3" height="3.057673175114452" style="fill: rgb(51, 51, 51); cursor: pointer;"/><rect class="bar" id="NP318" x="622.7239548772395" y="48.888118845412926" width="3" height="1.1118811545870741" style="fill: rgb(51, 51, 51); cursor: pointer;"/><rect class="bar" id="NP319" x="624.6350364963504" y="48.95761141757462" width="3" height="1.0423885824253816" style="fill: rgb(51, 51, 51); cursor: pointer;"/><rect class="bar" id="NP321" x="628.457199734572" y="47.08131196920893" width="3" height="2.918688030791067" style="fill: rgb(51, 51, 51); cursor: pointer;"/><rect class="bar" id="NP323" x="632.2793629727937" y="48.610148556766156" width="3" height="1.3898514432338445" style="fill: rgb(51, 51, 51); cursor: pointer;"/><rect class="bar" id="NP328" x="641.8347710683477" y="49.30507427838308" width="3" height="0.6949257216169187" style="fill: rgb(51, 51, 51); cursor: pointer;"/><rect class="bar" id="NP331" x="647.5680159256801" y="48.47116341244277" width="3" height="1.5288365875572296" style="fill: rgb(51, 51, 51); cursor: pointer;"/><rect class="bar" id="NP335" x="655.2123424021235" y="48.40167084028108" width="3" height="1.5983291597189222" style="fill: rgb(51, 51, 51); cursor: pointer;"/><rect class="bar" id="NP337" x="659.0345056403451" y="47.22029711353231" width="3" height="2.779702886467689" style="fill: rgb(51, 51, 51); cursor: pointer;"/><rect class="bar" id="NP338" x="660.9455872594558" y="49.30507427838308" width="3" height="0.6949257216169187" style="fill: rgb(51, 51, 51); cursor: pointer;"/><rect class="bar" id="NP341" x="666.6788321167883" y="48.95761141757462" width="3" height="1.0423885824253816" style="fill: rgb(51, 51, 51); cursor: pointer;"/><rect class="bar" id="NP343" x="670.50099535501" y="49.30507427838308" width="3" height="0.6949257216169187" style="fill: rgb(51, 51, 51); cursor: pointer;"/><rect class="bar" id="NP344" x="672.4120769741207" y="49.65253713919154" width="3" height="0.3474628608084629" style="fill: rgb(51, 51, 51); cursor: pointer;"/><rect class="bar" id="NP347" x="678.1453218314532" y="49.65253713919154" width="3" height="0.3474628608084629" style="fill: rgb(51, 51, 51); cursor: pointer;"/><rect class="bar" id="NP348" x="680.0564034505641" y="40.96596561898002" width="3" height="9.034034381019978" style="fill: rgb(51, 51, 51); cursor: pointer;"/><rect class="bar" id="NP350" x="683.8785666887857" y="46.94232682488555" width="3" height="3.057673175114452" style="fill: rgb(51, 51, 51); cursor: pointer;"/><rect class="bar" id="NP351" x="685.7896483078965" y="15.114728774830546" width="3" height="34.885271225169454" style="fill: rgb(51, 51, 51); cursor: pointer;"/><rect class="bar" id="NP352" x="687.7007299270074" y="47.22029711353231" width="3" height="2.779702886467689" style="fill: rgb(51, 51, 51); cursor: pointer;"/><rect class="bar" id="NP353" x="689.6118115461181" y="45.69146052597509" width="3" height="4.308539474024911" style="fill: rgb(51, 51, 51); cursor: pointer;"/><rect class="bar" id="NP355" x="693.4339747843397" y="49.65253713919154" width="3" height="0.3474628608084629" style="fill: rgb(51, 51, 51); cursor: pointer;"/><rect class="bar" id="NP357" x="697.2561380225613" y="49.65253713919154" width="3" height="0.3474628608084629" style="fill: rgb(51, 51, 51); cursor: pointer;"/><rect class="bar" id="NP359" x="701.078301260783" y="45.76095309813678" width="3" height="4.239046901863219" style="fill: rgb(51, 51, 51); cursor: pointer;"/><rect class="bar" id="NP360" x="702.9893828798938" y="49.23558170622139" width="3" height="0.7644182937786113" style="fill: rgb(51, 51, 51); cursor: pointer;"/><rect class="bar" id="NP361" x="704.9004644990047" y="49.65253713919154" width="3" height="0.3474628608084629" style="fill: rgb(51, 51, 51); cursor: pointer;"/><rect class="bar" id="NP362" x="706.8115461181154" y="49.65253713919154" width="3" height="0.3474628608084629" style="fill: rgb(51, 51, 51); cursor: pointer;"/><rect class="bar" id="NP363" x="708.7226277372263" y="45.5524753816517" width="3" height="4.447524618348297" style="fill: rgb(51, 51, 51); cursor: pointer;"/><rect class="bar" id="NP368" x="718.2780358327803" y="49.65253713919154" width="3" height="0.3474628608084629" style="fill: rgb(51, 51, 51); cursor: pointer;"/><rect class="bar" id="NP370" x="722.1001990710021" y="49.23558170622139" width="3" height="0.7644182937786113" style="fill: rgb(51, 51, 51); cursor: pointer;"/><rect class="bar" id="NP371" x="724.0112806901128" y="8.304456702984716" width="3" height="41.695543297015284" style="fill: rgb(51, 51, 51); cursor: pointer;"/><rect class="bar" id="NP372" x="725.9223623092237" y="49.65253713919154" width="3" height="0.3474628608084629" style="fill: rgb(51, 51, 51); cursor: pointer;"/><rect class="bar" id="NP373" x="727.8334439283345" y="46.594863964077085" width="3" height="3.405136035922915" style="fill: rgb(51, 51, 51); cursor: pointer;"/><rect class="bar" id="NP374" x="729.7445255474453" y="48.95761141757462" width="3" height="1.0423885824253816" style="fill: rgb(51, 51, 51); cursor: pointer;"/><rect class="bar" id="NP375" x="731.6556071665561" y="11.779085311069323" width="3" height="38.22091468893068" style="fill: rgb(51, 51, 51); cursor: pointer;"/><rect class="bar" id="NP378" x="737.3888520238885" y="49.65253713919154" width="3" height="0.3474628608084629" style="fill: rgb(51, 51, 51); cursor: pointer;"/><rect class="bar" id="NP384" x="748.8553417385534" y="49.65253713919154" width="3" height="0.3474628608084629" style="fill: rgb(51, 51, 51); cursor: pointer;"/><rect class="bar" id="NP390" x="760.3218314532184" y="49.65253713919154" width="3" height="0.3474628608084629" style="fill: rgb(51, 51, 51); cursor: pointer;"/><rect class="bar" id="NP395" x="769.8772395487724" y="49.30507427838308" width="3" height="0.6949257216169187" style="fill: rgb(51, 51, 51); cursor: pointer;"/><rect class="bar" id="NP396" x="771.7883211678833" y="48.95761141757462" width="3" height="1.0423885824253816" style="fill: rgb(51, 51, 51); cursor: pointer;"/><rect class="bar" id="NP398" x="775.6104844061049" y="49.65253713919154" width="3" height="0.3474628608084629" style="fill: rgb(51, 51, 51); cursor: pointer;"/><rect class="bar" id="NP399" x="777.5215660252157" y="47.567759974340774" width="3" height="2.432240025659226" style="fill: rgb(51, 51, 51); cursor: pointer;"/><rect class="bar" id="NP400" x="779.4326476443265" y="48.47116341244277" width="3" height="1.5288365875572296" style="fill: rgb(51, 51, 51); cursor: pointer;"/><rect class="bar" id="NP403" x="785.1658925016588" y="49.65253713919154" width="3" height="0.3474628608084629" style="fill: rgb(51, 51, 51); cursor: pointer;"/><rect class="bar" id="NP405" x="788.9880557398806" y="49.65253713919154" width="3" height="0.3474628608084629" style="fill: rgb(51, 51, 51); cursor: pointer;"/><rect class="bar" id="NP406" x="790.8991373589913" y="36.240470711984955" width="3" height="13.759529288015045" style="fill: rgb(51, 51, 51); cursor: pointer;"/><rect class="bar" id="NP408" x="794.721300597213" y="42.28632449005217" width="3" height="7.7136755099478265" style="fill: rgb(51, 51, 51); cursor: pointer;"/><rect class="bar" id="NP412" x="802.3656270736562" y="49.23558170622139" width="3" height="0.7644182937786113" style="fill: rgb(51, 51, 51); cursor: pointer;"/><rect class="bar" id="NP414" x="806.187790311878" y="47.359282257855696" width="3" height="2.6407177421443038" style="fill: rgb(51, 51, 51); cursor: pointer;"/><rect class="bar" id="NP415" x="808.0988719309887" y="49.02710398973631" width="3" height="0.972896010263689" style="fill: rgb(51, 51, 51); cursor: pointer;"/><rect class="bar" id="NP416" x="810.0099535500996" y="49.65253713919154" width="3" height="0.3474628608084629" style="fill: rgb(51, 51, 51); cursor: pointer;"/><rect class="bar" id="NP417" x="811.9210351692103" y="47.70674511866416" width="3" height="2.293254881335841" style="fill: rgb(51, 51, 51); cursor: pointer;"/><rect class="bar" id="NP419" x="815.743198407432" y="49.30507427838308" width="3" height="0.6949257216169187" style="fill: rgb(51, 51, 51); cursor: pointer;"/><rect class="bar" id="NP420" x="817.6542800265428" y="49.65253713919154" width="3" height="0.3474628608084629" style="fill: rgb(51, 51, 51); cursor: pointer;"/><rect class="bar" id="NP421" x="819.5653616456536" y="49.65253713919154" width="3" height="0.3474628608084629" style="fill: rgb(51, 51, 51); cursor: pointer;"/><rect class="bar" id="NP423" x="823.3875248838752" y="45.5524753816517" width="3" height="4.447524618348297" style="fill: rgb(51, 51, 51); cursor: pointer;"/><rect class="bar" id="NP424" x="825.2986065029861" y="49.65253713919154" width="3" height="0.3474628608084629" style="fill: rgb(51, 51, 51); cursor: pointer;"/><rect class="bar" id="NP425" x="827.2096881220968" y="49.65253713919154" width="3" height="0.3474628608084629" style="fill: rgb(51, 51, 51); cursor: pointer;"/><rect class="bar" id="NP426" x="829.1207697412076" y="48.123700551634315" width="3" height="1.8762994483656854" style="fill: rgb(51, 51, 51); cursor: pointer;"/><rect class="bar" id="NP428" x="832.9429329794293" y="47.845730262987544" width="3" height="2.1542697370124557" style="fill: rgb(51, 51, 51); cursor: pointer;"/><rect class="bar" id="NP429" x="834.8540145985401" y="49.65253713919154" width="3" height="0.3474628608084629" style="fill: rgb(51, 51, 51); cursor: pointer;"/><rect class="bar" id="NP430" x="836.7650962176509" y="47.359282257855696" width="3" height="2.6407177421443038" style="fill: rgb(51, 51, 51); cursor: pointer;"/><rect class="bar" id="NP431" x="838.6761778367618" y="49.65253713919154" width="3" height="0.3474628608084629" style="fill: rgb(51, 51, 51); cursor: pointer;"/><rect class="bar" id="NP433" x="842.4983410749834" y="30.5420797947262" width="3" height="19.4579202052738" style="fill: rgb(51, 51, 51); cursor: pointer;"/><rect class="bar" id="NP434" x="844.4094226940942" y="49.30507427838308" width="3" height="0.6949257216169187" style="fill: rgb(51, 51, 51); cursor: pointer;"/><rect class="bar" id="NP436" x="848.2315859323159" y="49.65253713919154" width="3" height="0.3474628608084629" style="fill: rgb(51, 51, 51); cursor: pointer;"/><rect class="bar" id="NP439" x="853.9648307896483" y="49.65253713919154" width="3" height="0.3474628608084629" style="fill: rgb(51, 51, 51); cursor: pointer;"/><rect class="bar" id="NP442" x="859.6980756469808" y="49.65253713919154" width="3" height="0.3474628608084629" style="fill: rgb(51, 51, 51); cursor: pointer;"/><rect class="bar" id="NP443" x="861.6091572660916" y="49.65253713919154" width="3" height="0.3474628608084629" style="fill: rgb(51, 51, 51); cursor: pointer;"/><rect class="bar" id="NP446" x="867.3424021234241" y="46.17790853110693" width="3" height="3.8220914688930705" style="fill: rgb(51, 51, 51); cursor: pointer;"/><rect class="bar" id="NP448" x="871.1645653616457" y="49.65253713919154" width="3" height="0.3474628608084629" style="fill: rgb(51, 51, 51); cursor: pointer;"/><rect class="bar" id="NP449" x="873.0756469807566" y="49.65253713919154" width="3" height="0.3474628608084629" style="fill: rgb(51, 51, 51); cursor: pointer;"/><rect class="bar" id="NP450" x="874.9867285998673" y="47.845730262987544" width="3" height="2.1542697370124557" style="fill: rgb(51, 51, 51); cursor: pointer;"/><rect class="bar" id="NP451" x="876.8978102189781" y="49.65253713919154" width="3" height="0.3474628608084629" style="fill: rgb(51, 51, 51); cursor: pointer;"/><rect class="bar" id="NP452" x="878.8088918380889" y="43.67617593328602" width="3" height="6.323824066713982" style="fill: rgb(51, 51, 51); cursor: pointer;"/><rect class="bar" id="NP453" x="880.7199734571997" y="48.05420797947262" width="3" height="1.945792020527378" style="fill: rgb(51, 51, 51); cursor: pointer;"/><rect class="bar" id="NP454" x="882.6310550763105" y="48.54065598460446" width="3" height="1.459344015395537" style="fill: rgb(51, 51, 51); cursor: pointer;"/><rect class="bar" id="NP455" x="884.5421366954214" y="48.40167084028108" width="3" height="1.5983291597189222" style="fill: rgb(51, 51, 51); cursor: pointer;"/><rect class="bar" id="NP456" x="886.4532183145321" y="46.80334168056216" width="3" height="3.1966583194378373" style="fill: rgb(51, 51, 51); cursor: pointer;"/><rect class="bar" id="NP458" x="890.2753815527537" y="49.65253713919154" width="3" height="0.3474628608084629" style="fill: rgb(51, 51, 51); cursor: pointer;"/><rect class="bar" id="NP461" x="896.0086264100862" y="49.65253713919154" width="3" height="0.3474628608084629" style="fill: rgb(51, 51, 51); cursor: pointer;"/><rect class="bar" id="NP463" x="899.8307896483079" y="49.65253713919154" width="3" height="0.3474628608084629" style="fill: rgb(51, 51, 51); cursor: pointer;"/><rect class="bar" id="NP466" x="905.5640345056404" y="49.65253713919154" width="3" height="0.3474628608084629" style="fill: rgb(51, 51, 51); cursor: pointer;"/><rect class="bar" id="NP469" x="911.2972793629729" y="49.30507427838308" width="3" height="0.6949257216169187" style="fill: rgb(51, 51, 51); cursor: pointer;"/><rect class="bar" id="NP472" x="917.0305242203053" y="49.65253713919154" width="3" height="0.3474628608084629" style="fill: rgb(51, 51, 51); cursor: pointer;"/><rect class="bar" id="NP473" x="918.9416058394161" y="49.23558170622139" width="3" height="0.7644182937786113" style="fill: rgb(51, 51, 51); cursor: pointer;"/><rect class="bar" id="NP474" x="920.8526874585268" y="49.65253713919154" width="3" height="0.3474628608084629" style="fill: rgb(51, 51, 51); cursor: pointer;"/><rect class="bar" id="NP477" x="926.5859323158593" y="49.65253713919154" width="3" height="0.3474628608084629" style="fill: rgb(51, 51, 51); cursor: pointer;"/><rect class="bar" id="NP478" x="928.4970139349701" y="49.65253713919154" width="3" height="0.3474628608084629" style="fill: rgb(51, 51, 51); cursor: pointer;"/><rect class="bar" id="NP479" x="930.4080955540809" y="49.65253713919154" width="3" height="0.3474628608084629" style="fill: rgb(51, 51, 51); cursor: pointer;"/><rect class="bar" id="NP480" x="932.3191771731917" y="48.610148556766156" width="3" height="1.3898514432338445" style="fill: rgb(51, 51, 51); cursor: pointer;"/><rect class="bar" id="NP481" x="934.2302587923026" y="48.47116341244277" width="3" height="1.5288365875572296" style="fill: rgb(51, 51, 51); cursor: pointer;"/><rect class="bar" id="NP482" x="936.1413404114134" y="13.16893675430316" width="3" height="36.83106324569684" style="fill: rgb(51, 51, 51); cursor: pointer;"/><rect class="bar" id="NP484" x="939.9635036496351" y="49.65253713919154" width="3" height="0.3474628608084629" style="fill: rgb(51, 51, 51); cursor: pointer;"/><rect class="bar" id="NP485" x="941.8745852687458" y="49.65253713919154" width="3" height="0.3474628608084629" style="fill: rgb(51, 51, 51); cursor: pointer;"/><rect class="bar" id="NP486" x="943.7856668878567" y="49.65253713919154" width="3" height="0.3474628608084629" style="fill: rgb(51, 51, 51); cursor: pointer;"/><rect class="bar" id="NP488" x="947.6078301260783" y="49.30507427838308" width="3" height="0.6949257216169187" style="fill: rgb(51, 51, 51); cursor: pointer;"/><rect class="bar" id="NP489" x="949.5189117451891" y="49.65253713919154" width="3" height="0.3474628608084629" style="fill: rgb(51, 51, 51); cursor: pointer;"/><rect class="bar" id="NP491" x="953.3410749834107" y="49.65253713919154" width="3" height="0.3474628608084629" style="fill: rgb(51, 51, 51); cursor: pointer;"/><rect class="bar" id="NP492" x="955.2521566025216" y="49.23558170622139" width="3" height="0.7644182937786113" style="fill: rgb(51, 51, 51); cursor: pointer;"/><rect class="bar" id="NP493" x="957.1632382216325" y="49.23558170622139" width="3" height="0.7644182937786113" style="fill: rgb(51, 51, 51); cursor: pointer;"/><rect class="bar" id="NP494" x="959.0743198407432" y="49.23558170622139" width="3" height="0.7644182937786113" style="fill: rgb(51, 51, 51); cursor: pointer;"/><rect class="bar" id="NP495" x="960.9854014598541" y="49.23558170622139" width="3" height="0.7644182937786113" style="fill: rgb(51, 51, 51); cursor: pointer;"/><rect class="bar" id="NP496" x="962.8964830789648" y="49.23558170622139" width="3" height="0.7644182937786113" style="fill: rgb(51, 51, 51); cursor: pointer;"/><rect class="bar" id="NP497" x="964.8075646980757" y="49.65253713919154" width="3" height="0.3474628608084629" style="fill: rgb(51, 51, 51); cursor: pointer;"/><rect class="bar" id="NP498" x="966.7186463171865" y="39.784591892231255" width="3" height="10.215408107768745" style="fill: rgb(51, 51, 51); cursor: pointer;"/></g></g><g class="nav" transform="translate(15,70)"><g class="brush" stroke-width="0" fill="none" pointer-events="all" style="-webkit-tap-highlight-color: rgba(0, 0, 0, 0);"><rect class="overlay" pointer-events="all" cursor="crosshair" x="15" y="0" width="965" height="59"/><rect class="selection" cursor="move" fill="#777" fill-opacity="0.3" stroke="#fff" shape-rendering="crispEdges" x="15" y="0" width="960" height="59" style=""/><rect class="handle handle--e" cursor="ew-resize" x="972" y="-3" width="6" height="65" style=""/><rect class="handle handle--w" cursor="ew-resize" x="12" y="-3" width="6" height="65" style=""/><path class="handle--custom" fill="#333" cursor="ew-resize" d="M0,0 0,0 -5,11 5,11 0,0 Z" transform="translate(16,59)"/><path class="handle--custom" fill="#333" cursor="ew-resize" d="M0,0 0,0 -5,11 5,11 0,0 Z" transform="translate(974,59)"/></g><g><rect class="gene" x="15" y="5" width="953.6297279362973" height="20" style="fill: rgb(217, 173, 61); stroke: white;"/><text x="491.81486396814864" y="10" dy=".7em" text-anchor="middle" style="fill: white;">NP</text></g></g><g class="y axis" id="entropyYAxis" transform="translate(30,0)" fill="none" font-size="10" font-family="sans-serif" text-anchor="end"><path class="domain" stroke="#000" d="M-6,50.5H0.5V0.5H-6"/><g class="tick" opacity="1" transform="translate(0,50.5)"><line stroke="#000" x2="-6"/><text fill="#000" x="-9" dy="0.32em">0.0</text></g><g class="tick" opacity="1" transform="translate(0,36.60148556766157)"><line stroke="#000" x2="-6"/><text fill="#000" x="-9" dy="0.32em">0.2</text></g><g class="tick" opacity="1" transform="translate(0,22.70297113532314)"><line stroke="#000" x2="-6"/><text fill="#000" x="-9" dy="0.32em">0.4</text></g><g class="tick" opacity="1" transform="translate(0,8.804456702984716)"><line stroke="#000" x2="-6"/><text fill="#000" x="-9" dy="0.32em">0.6</text></g></g><g class="xMain axis" transform="translate(15,50)" fill="none" font-size="10" font-family="sans-serif" text-anchor="middle"><path class="domain" stroke="#000" d="M15.5,6V0.5H975.5V6"/><g class="tick" opacity="1" transform="translate(15.5,0)"><line stroke="#000" y2="6"/><text fill="#000" y="9" dy="0.71em">0</text></g><g class="tick" opacity="1" transform="translate(79.2027206370272,0)"><line stroke="#000" y2="6"/><text fill="#000" y="9" dy="0.71em">100</text></g><g class="tick" opacity="1" transform="translate(142.9054412740544,0)"><line stroke="#000" y2="6"/><text fill="#000" y="9" dy="0.71em">200</text></g><g class="tick" opacity="1" transform="translate(206.60816191108162,0)"><line stroke="#000" y2="6"/><text fill="#000" y="9" dy="0.71em">300</text></g><g class="tick" opacity="1" transform="translate(270.3108825481088,0)"><line stroke="#000" y2="6"/><text fill="#000" y="9" dy="0.71em">400</text></g><g class="tick" opacity="1" transform="translate(334.01360318513605,0)"><line stroke="#000" y2="6"/><text fill="#000" y="9" dy="0.71em">500</text></g><g class="tick" opacity="1" transform="translate(397.71632382216325,0)"><line stroke="#000" y2="6"/><text fill="#000" y="9" dy="0.71em">600</text></g><g class="tick" opacity="1" transform="translate(461.41904445919045,0)"><line stroke="#000" y2="6"/><text fill="#000" y="9" dy="0.71em">700</text></g><g class="tick" opacity="1" transform="translate(525.1217650962176,0)"><line stroke="#000" y2="6"/><text fill="#000" y="9" dy="0.71em">800</text></g><g class="tick" opacity="1" transform="translate(588.8244857332448,0)"><line stroke="#000" y2="6"/><text fill="#000" y="9" dy="0.71em">900</text></g><g class="tick" opacity="1" transform="translate(652.5272063702721,0)"><line stroke="#000" y2="6"/><text fill="#000" y="9" dy="0.71em">1,000</text></g><g class="tick" opacity="1" transform="translate(716.2299270072992,0)"><line stroke="#000" y2="6"/><text fill="#000" y="9" dy="0.71em">1,100</text></g><g class="tick" opacity="1" transform="translate(779.9326476443265,0)"><line stroke="#000" y2="6"/><text fill="#000" y="9" dy="0.71em">1,200</text></g><g class="tick" opacity="1" transform="translate(843.6353682813537,0)"><line stroke="#000" y2="6"/><text fill="#000" y="9" dy="0.71em">1,300</text></g><g class="tick" opacity="1" transform="translate(907.3380889183809,0)"><line stroke="#000" y2="6"/><text fill="#000" y="9" dy="0.71em">1,400</text></g><g class="tick" opacity="1" transform="translate(971.040809555408,0)"><line stroke="#000" y2="6"/><text fill="#000" y="9" dy="0.71em">1,500</text></g></g><g class="xNav axis" transform="translate(15,100)" fill="none" font-size="10" font-family="sans-serif" text-anchor="middle"><path class="domain" stroke="#000" d="M15.5,6V0.5H975.5V6"/><g class="tick" opacity="1" transform="translate(15.5,0)"><line stroke="#000" y2="6"/><text fill="#000" y="9" dy="0.71em">0</text></g><g class="tick" opacity="1" transform="translate(79.2027206370272,0)"><line stroke="#000" y2="6"/><text fill="#000" y="9" dy="0.71em">100</text></g><g class="tick" opacity="1" transform="translate(142.9054412740544,0)"><line stroke="#000" y2="6"/><text fill="#000" y="9" dy="0.71em">200</text></g><g class="tick" opacity="1" transform="translate(206.60816191108162,0)"><line stroke="#000" y2="6"/><text fill="#000" y="9" dy="0.71em">300</text></g><g class="tick" opacity="1" transform="translate(270.3108825481088,0)"><line stroke="#000" y2="6"/><text fill="#000" y="9" dy="0.71em">400</text></g><g class="tick" opacity="1" transform="translate(334.01360318513605,0)"><line stroke="#000" y2="6"/><text fill="#000" y="9" dy="0.71em">500</text></g><g class="tick" opacity="1" transform="translate(397.71632382216325,0)"><line stroke="#000" y2="6"/><text fill="#000" y="9" dy="0.71em">600</text></g><g class="tick" opacity="1" transform="translate(461.41904445919045,0)"><line stroke="#000" y2="6"/><text fill="#000" y="9" dy="0.71em">700</text></g><g class="tick" opacity="1" transform="translate(525.1217650962176,0)"><line stroke="#000" y2="6"/><text fill="#000" y="9" dy="0.71em">800</text></g><g class="tick" opacity="1" transform="translate(588.8244857332448,0)"><line stroke="#000" y2="6"/><text fill="#000" y="9" dy="0.71em">900</text></g><g class="tick" opacity="1" transform="translate(652.5272063702721,0)"><line stroke="#000" y2="6"/><text fill="#000" y="9" dy="0.71em">1,000</text></g><g class="tick" opacity="1" transform="translate(716.2299270072992,0)"><line stroke="#000" y2="6"/><text fill="#000" y="9" dy="0.71em">1,100</text></g><g class="tick" opacity="1" transform="translate(779.9326476443265,0)"><line stroke="#000" y2="6"/><text fill="#000" y="9" dy="0.71em">1,200</text></g><g class="tick" opacity="1" transform="translate(843.6353682813537,0)"><line stroke="#000" y2="6"/><text fill="#000" y="9" dy="0.71em">1,300</text></g><g class="tick" opacity="1" transform="translate(907.3380889183809,0)"><line stroke="#000" y2="6"/><text fill="#000" y="9" dy="0.71em">1,400</text></g><g class="tick" opacity="1" transform="translate(971.040809555408,0)"><line stroke="#000" y2="6"/><text fill="#000" y="9" dy="0.71em">1,500</text></g></g><g><clipPath transform="translate(15,0)" id="clip"><rect id="cliprect" width="960" height="50"/></clipPath></g></g></svg>