<svg xmlns="http://www.w3.org/2000/svg" viewBox="0 0 194.71 35.05"><title>Dash Financial</title><g style="isolation:isolate"><g id="Layer_2" data-name="Layer 2"><g id="Layer_1-2" data-name="Layer 1"><path d="M14.5,25.67,12,28.31,8.35,32.2a9.07,9.07,0,0,1-6.6,2.85H0l2.2-8.77.16-.61Z" style="fill:#94e1ff"/><polygon points="29.49 13.69 25.93 17.1 17.01 25.67 2.36 25.67 5.22 14.28 5.38 13.69 29.49 13.69" style="fill:#6cf"/><path d="M49.44,0l-16,13.69H5.37l1-4,0-.11L7,7.09A9.39,9.39,0,0,1,16.13,0Z" style="fill:#119dff"/><path d="M13.25,15.25A57.72,57.72,0,0,0,6,24.11H4.36l2.23-8.86Z" style="fill:#fff;opacity:0.30000000000000004;mix-blend-mode:screen"/><path d="M37.62,1.56a50,50,0,0,0-21,10.57H7.37l.52-2.05,0-.09.63-2.52a7.82,7.82,0,0,1,7.59-5.91Z" style="fill:#fff;opacity:0.30000000000000004;mix-blend-mode:screen"/><path d="M4.09,27.23c-.35.62-.68,1.21-.95,1.74l.44-1.74Z" style="fill:#fff;opacity:0.30000000000000004;mix-blend-mode:screen"/><text transform="translate(58.45 23.45)" style="font-size:21px;fill:#506784;stroke:#4e6580;stroke-miterlimit:10;stroke-width:0.5px;font-family:Asap-Regular, Asap">Dash Financial</text></g></g></g></svg>