<?xml version="1.0" standalone="no"?>
<svg xmlns:xlink="http://www.w3.org/1999/xlink" xmlns="http://www.w3.org/2000/svg" id="d3entropyParent" width="1007" height="150" style="pointer-events: auto;"><g id="d3entropy"><g class="main" transform="translate(15,0)"><g clip-path="url(#clip)"><rect class="bar" id="M13" x="23.76267748478702" y="49.618882261510244" width="3" height="0.38111773848975616" style="fill: rgb(51, 51, 51); "/><rect class="bar" id="M15" x="29.604462474645032" y="49.809441130755125" width="3" height="0.19055886924487453" style="fill: rgb(51, 51, 51); cursor: pointer;"/><rect class="bar" id="M114" x="55.892494929006084" y="49.618882261510244" width="3" height="0.38111773848975616" style="fill: rgb(51, 51, 51); cursor: pointer;"/><rect class="bar" id="M117" x="64.65517241379311" y="49.809441130755125" width="3" height="0.19055886924487453" style="fill: rgb(51, 51, 51); cursor: pointer;"/><rect class="bar" id="M133" x="111.3894523326572" y="49.809441130755125" width="3" height="0.19055886924487453" style="fill: rgb(51, 51, 51); cursor: pointer;"/><rect class="bar" id="M136" x="120.15212981744422" y="49.618882261510244" width="3" height="0.38111773848975616" style="fill: rgb(51, 51, 51); cursor: pointer;"/><rect class="bar" id="M137" x="123.07302231237323" y="47.8276288906084" width="3" height="2.172371109391598" style="fill: rgb(51, 51, 51); cursor: pointer;"/><rect class="bar" id="M141" x="134.75659229208924" y="47.598958247514545" width="3" height="2.4010417524854546" style="fill: rgb(51, 51, 51); cursor: pointer;"/><rect class="bar" id="M142" x="137.67748478701827" y="49.809441130755125" width="3" height="0.19055886924487453" style="fill: rgb(51, 51, 51); cursor: pointer;"/><rect class="bar" id="M143" x="140.59837728194725" y="49.618882261510244" width="3" height="0.38111773848975616" style="fill: rgb(51, 51, 51); cursor: pointer;"/><rect class="bar" id="M146" x="149.3610547667343" y="49.42832339226537" width="3" height="0.5716766077346307" style="fill: rgb(51, 51, 51); cursor: pointer;"/><rect class="bar" id="M157" x="181.49087221095334" y="49.809441130755125" width="3" height="0.19055886924487453" style="fill: rgb(51, 51, 51); cursor: pointer;"/><rect class="bar" id="M159" x="187.33265720081135" y="49.618882261510244" width="3" height="0.38111773848975616" style="fill: rgb(51, 51, 51); cursor: pointer;"/><rect class="bar" id="M169" x="216.54158215010142" y="49.809441130755125" width="3" height="0.19055886924487453" style="fill: rgb(51, 51, 51); cursor: pointer;"/><rect class="bar" id="M182" x="254.5131845841785" y="45.84581665046167" width="3" height="4.154183349538329" style="fill: rgb(51, 51, 51); cursor: pointer;"/><rect class="bar" id="M193" x="286.6430020283976" y="49.618882261510244" width="3" height="0.38111773848975616" style="fill: rgb(51, 51, 51); cursor: pointer;"/><rect class="bar" id="M195" x="292.4847870182556" y="46.03637551970655" width="3" height="3.963624480293447" style="fill: rgb(51, 51, 51); cursor: pointer;"/><rect class="bar" id="M197" x="298.3265720081136" y="49.809441130755125" width="3" height="0.19055886924487453" style="fill: rgb(51, 51, 51); cursor: pointer;"/><rect class="bar" id="M1112" x="342.13995943204867" y="49.809441130755125" width="3" height="0.19055886924487453" style="fill: rgb(51, 51, 51); cursor: pointer;"/><rect class="bar" id="M1115" x="350.90263691683566" y="49.618882261510244" width="3" height="0.38111773848975616" style="fill: rgb(51, 51, 51); cursor: pointer;"/><rect class="bar" id="M1116" x="353.82352941176475" y="49.809441130755125" width="3" height="0.19055886924487453" style="fill: rgb(51, 51, 51); cursor: pointer;"/><rect class="bar" id="M1118" x="359.6653144016227" y="49.809441130755125" width="3" height="0.19055886924487453" style="fill: rgb(51, 51, 51); cursor: pointer;"/><rect class="bar" id="M1125" x="380.1115618661258" y="49.618882261510244" width="3" height="0.38111773848975616" style="fill: rgb(51, 51, 51); cursor: pointer;"/><rect class="bar" id="M1126" x="383.03245436105476" y="49.618882261510244" width="3" height="0.38111773848975616" style="fill: rgb(51, 51, 51); cursor: pointer;"/><rect class="bar" id="M1134" x="406.3995943204868" y="49.809441130755125" width="3" height="0.19055886924487453" style="fill: rgb(51, 51, 51); cursor: pointer;"/><rect class="bar" id="M1139" x="421.0040567951318" y="49.19965274917151" width="3" height="0.8003472508284872" style="fill: rgb(51, 51, 51); cursor: pointer;"/><rect class="bar" id="M1144" x="435.6085192697769" y="49.809441130755125" width="3" height="0.19055886924487453" style="fill: rgb(51, 51, 51); cursor: pointer;"/><rect class="bar" id="M1146" x="441.4503042596349" y="49.809441130755125" width="3" height="0.19055886924487453" style="fill: rgb(51, 51, 51); cursor: pointer;"/><rect class="bar" id="M1147" x="444.37119675456387" y="49.809441130755125" width="3" height="0.19055886924487453" style="fill: rgb(51, 51, 51); cursor: pointer;"/><rect class="bar" id="M1150" x="453.1338742393509" y="48.93287033222869" width="3" height="1.0671296677713116" style="fill: rgb(51, 51, 51); cursor: pointer;"/><rect class="bar" id="M1153" x="461.8965517241379" y="49.618882261510244" width="3" height="0.38111773848975616" style="fill: rgb(51, 51, 51); cursor: pointer;"/><rect class="bar" id="M1154" x="464.81744421906694" y="49.809441130755125" width="3" height="0.19055886924487453" style="fill: rgb(51, 51, 51); cursor: pointer;"/><rect class="bar" id="M1156" x="470.65922920892496" y="49.466435166114344" width="3" height="0.5335648338856558" style="fill: rgb(51, 51, 51); cursor: pointer;"/><rect class="bar" id="M1157" x="473.580121703854" y="49.809441130755125" width="3" height="0.19055886924487453" style="fill: rgb(51, 51, 51); cursor: pointer;"/><rect class="bar" id="M1165" x="496.947261663286" y="49.04720565377561" width="3" height="0.9527943462243869" style="fill: rgb(51, 51, 51); cursor: pointer;"/><rect class="bar" id="M1166" x="499.86815415821496" y="49.618882261510244" width="3" height="0.38111773848975616" style="fill: rgb(51, 51, 51); cursor: pointer;"/><rect class="bar" id="M1167" x="502.78904665314406" y="48.93287033222869" width="3" height="1.0671296677713116" style="fill: rgb(51, 51, 51); cursor: pointer;"/><rect class="bar" id="M1168" x="505.7099391480731" y="45.159804721180116" width="3" height="4.840195278819884" style="fill: rgb(51, 51, 51); cursor: pointer;"/><rect class="bar" id="M1169" x="508.63083164300207" y="49.12342920147356" width="3" height="0.876570798526437" style="fill: rgb(51, 51, 51); cursor: pointer;"/><rect class="bar" id="M1174" x="523.2352941176471" y="49.618882261510244" width="3" height="0.38111773848975616" style="fill: rgb(51, 51, 51); cursor: pointer;"/><rect class="bar" id="M1181" x="543.6815415821501" y="49.618882261510244" width="3" height="0.38111773848975616" style="fill: rgb(51, 51, 51); cursor: pointer;"/><rect class="bar" id="M1185" x="555.3651115618661" y="49.618882261510244" width="3" height="0.38111773848975616" style="fill: rgb(51, 51, 51); cursor: pointer;"/><rect class="bar" id="M1196" x="587.4949290060852" y="46.91294631823299" width="3" height="3.08705368176701" style="fill: rgb(51, 51, 51); cursor: pointer;"/><rect class="bar" id="M1197" x="590.4158215010142" y="49.809441130755125" width="3" height="0.19055886924487453" style="fill: rgb(51, 51, 51); cursor: pointer;"/><rect class="bar" id="M1198" x="593.3367139959431" y="49.809441130755125" width="3" height="0.19055886924487453" style="fill: rgb(51, 51, 51); cursor: pointer;"/><rect class="bar" id="M1200" x="599.1784989858013" y="48.89475855837971" width="3" height="1.1052414416202865" style="fill: rgb(51, 51, 51); cursor: pointer;"/><rect class="bar" id="M1201" x="602.0993914807302" y="49.618882261510244" width="3" height="0.38111773848975616" style="fill: rgb(51, 51, 51); cursor: pointer;"/><rect class="bar" id="M1203" x="607.9411764705883" y="48.55175259373893" width="3" height="1.4482474062610677" style="fill: rgb(51, 51, 51); cursor: pointer;"/><rect class="bar" id="M1205" x="613.7829614604462" y="48.55175259373893" width="3" height="1.4482474062610677" style="fill: rgb(51, 51, 51); cursor: pointer;"/><rect class="bar" id="M1207" x="619.6247464503042" y="49.618882261510244" width="3" height="0.38111773848975616" style="fill: rgb(51, 51, 51); cursor: pointer;"/><rect class="bar" id="M1208" x="622.5456389452332" y="49.390211618416394" width="3" height="0.6097883815836056" style="fill: rgb(51, 51, 51); cursor: pointer;"/><rect class="bar" id="M1211" x="631.3083164300202" y="49.42832339226537" width="3" height="0.5716766077346307" style="fill: rgb(51, 51, 51); cursor: pointer;"/><rect class="bar" id="M1219" x="654.6754563894524" y="48.93287033222869" width="3" height="1.0671296677713116" style="fill: rgb(51, 51, 51); cursor: pointer;"/><rect class="bar" id="M1222" x="663.4381338742394" y="48.55175259373893" width="3" height="1.4482474062610677" style="fill: rgb(51, 51, 51); cursor: pointer;"/><rect class="bar" id="M1224" x="669.2799188640973" y="47.40839937826967" width="3" height="2.591600621730329" style="fill: rgb(51, 51, 51); cursor: pointer;"/><rect class="bar" id="M1227" x="678.0425963488843" y="49.466435166114344" width="3" height="0.5335648338856558" style="fill: rgb(51, 51, 51); cursor: pointer;"/><rect class="bar" id="M1229" x="683.8843813387424" y="49.809441130755125" width="3" height="0.19055886924487453" style="fill: rgb(51, 51, 51); cursor: pointer;"/><rect class="bar" id="M1232" x="692.6470588235295" y="47.40839937826967" width="3" height="2.591600621730329" style="fill: rgb(51, 51, 51); cursor: pointer;"/><rect class="bar" id="M1234" x="698.4888438133875" y="49.618882261510244" width="3" height="0.38111773848975616" style="fill: rgb(51, 51, 51); cursor: pointer;"/><rect class="bar" id="M1235" x="701.4097363083165" y="47.522734699816596" width="3" height="2.4772653001834044" style="fill: rgb(51, 51, 51); cursor: pointer;"/><rect class="bar" id="M1236" x="704.3306288032454" y="49.618882261510244" width="3" height="0.38111773848975616" style="fill: rgb(51, 51, 51); cursor: pointer;"/><rect class="bar" id="M1239" x="713.0933062880324" y="49.58077048766127" width="3" height="0.41922951233873107" style="fill: rgb(51, 51, 51); cursor: pointer;"/><rect class="bar" id="M1240" x="716.0141987829614" y="49.466435166114344" width="3" height="0.5335648338856558" style="fill: rgb(51, 51, 51); cursor: pointer;"/><rect class="bar" id="M1242" x="721.8559837728194" y="49.809441130755125" width="3" height="0.19055886924487453" style="fill: rgb(51, 51, 51); cursor: pointer;"/><rect class="bar" id="M1244" x="727.6977687626775" y="49.809441130755125" width="3" height="0.19055886924487453" style="fill: rgb(51, 51, 51); cursor: pointer;"/><rect class="bar" id="M1248" x="739.3813387423936" y="45.76959310276372" width="3" height="4.2304068972362785" style="fill: rgb(51, 51, 51); cursor: pointer;"/><rect class="bar" id="M1249" x="742.3022312373225" y="49.313988070718445" width="3" height="0.6860119292815554" style="fill: rgb(51, 51, 51); cursor: pointer;"/><rect class="bar" id="M1252" x="751.0649087221095" y="49.809441130755125" width="3" height="0.19055886924487453" style="fill: rgb(51, 51, 51); cursor: pointer;"/><rect class="bar" id="M23" x="23.76267748478702" y="49.618882261510244" width="3" height="0.38111773848975616" style="fill: rgb(136, 136, 136); cursor: pointer;"/><rect class="bar" id="M25" x="29.604462474645032" y="49.809441130755125" width="3" height="0.19055886924487453" style="fill: rgb(136, 136, 136); cursor: pointer;"/><rect class="bar" id="M214" x="55.892494929006084" y="49.618882261510244" width="3" height="0.38111773848975616" style="fill: rgb(136, 136, 136); cursor: pointer;"/><rect class="bar" id="M217" x="64.65517241379311" y="49.809441130755125" width="3" height="0.19055886924487453" style="fill: rgb(136, 136, 136); cursor: pointer;"/><rect class="bar" id="M233" x="111.3894523326572" y="49.809441130755125" width="3" height="0.19055886924487453" style="fill: rgb(136, 136, 136); cursor: pointer;"/><rect class="bar" id="M236" x="120.15212981744422" y="49.618882261510244" width="3" height="0.38111773848975616" style="fill: rgb(136, 136, 136); cursor: pointer;"/><rect class="bar" id="M237" x="123.07302231237323" y="47.8276288906084" width="3" height="2.172371109391598" style="fill: rgb(136, 136, 136); cursor: pointer;"/><rect class="bar" id="M241" x="134.75659229208924" y="47.598958247514545" width="3" height="2.4010417524854546" style="fill: rgb(136, 136, 136); cursor: pointer;"/><rect class="bar" id="M242" x="137.67748478701827" y="49.809441130755125" width="3" height="0.19055886924487453" style="fill: rgb(136, 136, 136); cursor: pointer;"/><rect class="bar" id="M243" x="140.59837728194725" y="49.618882261510244" width="3" height="0.38111773848975616" style="fill: rgb(136, 136, 136); cursor: pointer;"/><rect class="bar" id="M246" x="149.3610547667343" y="49.42832339226537" width="3" height="0.5716766077346307" style="fill: rgb(136, 136, 136); cursor: pointer;"/><rect class="bar" id="M257" x="181.49087221095334" y="49.809441130755125" width="3" height="0.19055886924487453" style="fill: rgb(136, 136, 136); cursor: pointer;"/><rect class="bar" id="M259" x="187.33265720081135" y="49.618882261510244" width="3" height="0.38111773848975616" style="fill: rgb(136, 136, 136); cursor: pointer;"/><rect class="bar" id="M269" x="216.54158215010142" y="49.809441130755125" width="3" height="0.19055886924487453" style="fill: rgb(136, 136, 136); cursor: pointer;"/><rect class="bar" id="M282" x="254.5131845841785" y="45.84581665046167" width="3" height="4.154183349538329" style="fill: rgb(136, 136, 136); cursor: pointer;"/><rect class="bar" id="M293" x="286.6430020283976" y="49.618882261510244" width="3" height="0.38111773848975616" style="fill: rgb(136, 136, 136); cursor: pointer;"/><rect class="bar" id="M295" x="292.4847870182556" y="46.03637551970655" width="3" height="3.963624480293447" style="fill: rgb(136, 136, 136); cursor: pointer;"/><rect class="bar" id="M297" x="298.3265720081136" y="49.809441130755125" width="3" height="0.19055886924487453" style="fill: rgb(136, 136, 136); cursor: pointer;"/><rect class="bar" id="M2112" x="342.13995943204867" y="49.809441130755125" width="3" height="0.19055886924487453" style="fill: rgb(136, 136, 136); cursor: pointer;"/><rect class="bar" id="M2115" x="350.90263691683566" y="49.618882261510244" width="3" height="0.38111773848975616" style="fill: rgb(136, 136, 136); cursor: pointer;"/><rect class="bar" id="M2116" x="353.82352941176475" y="49.809441130755125" width="3" height="0.19055886924487453" style="fill: rgb(136, 136, 136); cursor: pointer;"/><rect class="bar" id="M2118" x="359.6653144016227" y="49.809441130755125" width="3" height="0.19055886924487453" style="fill: rgb(136, 136, 136); cursor: pointer;"/><rect class="bar" id="M2125" x="380.1115618661258" y="49.618882261510244" width="3" height="0.38111773848975616" style="fill: rgb(136, 136, 136); cursor: pointer;"/><rect class="bar" id="M2126" x="383.03245436105476" y="49.618882261510244" width="3" height="0.38111773848975616" style="fill: rgb(136, 136, 136); cursor: pointer;"/><rect class="bar" id="M2134" x="406.3995943204868" y="49.809441130755125" width="3" height="0.19055886924487453" style="fill: rgb(136, 136, 136); cursor: pointer;"/><rect class="bar" id="M2139" x="421.0040567951318" y="49.19965274917151" width="3" height="0.8003472508284872" style="fill: rgb(136, 136, 136); cursor: pointer;"/><rect class="bar" id="M2144" x="435.6085192697769" y="49.809441130755125" width="3" height="0.19055886924487453" style="fill: rgb(136, 136, 136); cursor: pointer;"/><rect class="bar" id="M2146" x="441.4503042596349" y="49.809441130755125" width="3" height="0.19055886924487453" style="fill: rgb(136, 136, 136); cursor: pointer;"/><rect class="bar" id="M2147" x="444.37119675456387" y="49.809441130755125" width="3" height="0.19055886924487453" style="fill: rgb(136, 136, 136); cursor: pointer;"/><rect class="bar" id="M2150" x="453.1338742393509" y="48.93287033222869" width="3" height="1.0671296677713116" style="fill: rgb(136, 136, 136); cursor: pointer;"/><rect class="bar" id="M2153" x="461.8965517241379" y="49.618882261510244" width="3" height="0.38111773848975616" style="fill: rgb(136, 136, 136); cursor: pointer;"/><rect class="bar" id="M2154" x="464.81744421906694" y="49.809441130755125" width="3" height="0.19055886924487453" style="fill: rgb(136, 136, 136); cursor: pointer;"/><rect class="bar" id="M2156" x="470.65922920892496" y="49.466435166114344" width="3" height="0.5335648338856558" style="fill: rgb(136, 136, 136); cursor: pointer;"/><rect class="bar" id="M2157" x="473.580121703854" y="49.809441130755125" width="3" height="0.19055886924487453" style="fill: rgb(136, 136, 136); cursor: pointer;"/><rect class="bar" id="M2165" x="496.947261663286" y="49.04720565377561" width="3" height="0.9527943462243869" style="fill: rgb(136, 136, 136); cursor: pointer;"/><rect class="bar" id="M2166" x="499.86815415821496" y="49.618882261510244" width="3" height="0.38111773848975616" style="fill: rgb(136, 136, 136); cursor: pointer;"/><rect class="bar" id="M2167" x="502.78904665314406" y="48.93287033222869" width="3" height="1.0671296677713116" style="fill: rgb(136, 136, 136); cursor: pointer;"/><rect class="bar" id="M2168" x="505.7099391480731" y="45.159804721180116" width="3" height="4.840195278819884" style="fill: rgb(136, 136, 136); cursor: pointer;"/><rect class="bar" id="M2169" x="508.63083164300207" y="49.12342920147356" width="3" height="0.876570798526437" style="fill: rgb(136, 136, 136); cursor: pointer;"/><rect class="bar" id="M2174" x="523.2352941176471" y="49.618882261510244" width="3" height="0.38111773848975616" style="fill: rgb(136, 136, 136); cursor: pointer;"/><rect class="bar" id="M2181" x="543.6815415821501" y="49.618882261510244" width="3" height="0.38111773848975616" style="fill: rgb(136, 136, 136); cursor: pointer;"/><rect class="bar" id="M2185" x="555.3651115618661" y="49.618882261510244" width="3" height="0.38111773848975616" style="fill: rgb(136, 136, 136); cursor: pointer;"/><rect class="bar" id="M2196" x="587.4949290060852" y="46.91294631823299" width="3" height="3.08705368176701" style="fill: rgb(136, 136, 136); cursor: pointer;"/><rect class="bar" id="M2197" x="590.4158215010142" y="49.809441130755125" width="3" height="0.19055886924487453" style="fill: rgb(136, 136, 136); cursor: pointer;"/><rect class="bar" id="M2198" x="593.3367139959431" y="49.809441130755125" width="3" height="0.19055886924487453" style="fill: rgb(136, 136, 136); cursor: pointer;"/><rect class="bar" id="M2200" x="599.1784989858013" y="48.89475855837971" width="3" height="1.1052414416202865" style="fill: rgb(136, 136, 136); cursor: pointer;"/><rect class="bar" id="M2201" x="602.0993914807302" y="49.618882261510244" width="3" height="0.38111773848975616" style="fill: rgb(136, 136, 136); cursor: pointer;"/><rect class="bar" id="M2203" x="607.9411764705883" y="48.55175259373893" width="3" height="1.4482474062610677" style="fill: rgb(136, 136, 136); cursor: pointer;"/><rect class="bar" id="M2205" x="613.7829614604462" y="48.55175259373893" width="3" height="1.4482474062610677" style="fill: rgb(136, 136, 136); cursor: pointer;"/><rect class="bar" id="M2207" x="619.6247464503042" y="49.618882261510244" width="3" height="0.38111773848975616" style="fill: rgb(136, 136, 136); cursor: pointer;"/><rect class="bar" id="M2208" x="622.5456389452332" y="49.390211618416394" width="3" height="0.6097883815836056" style="fill: rgb(136, 136, 136); cursor: pointer;"/><rect class="bar" id="M2211" x="631.3083164300202" y="49.42832339226537" width="3" height="0.5716766077346307" style="fill: rgb(136, 136, 136); cursor: pointer;"/><rect class="bar" id="M2219" x="654.6754563894524" y="48.93287033222869" width="3" height="1.0671296677713116" style="fill: rgb(136, 136, 136); cursor: pointer;"/><rect class="bar" id="M2222" x="663.4381338742394" y="48.55175259373893" width="3" height="1.4482474062610677" style="fill: rgb(136, 136, 136); cursor: pointer;"/><rect class="bar" id="M2224" x="669.2799188640973" y="47.40839937826967" width="3" height="2.591600621730329" style="fill: rgb(136, 136, 136); cursor: pointer;"/><rect class="bar" id="M2227" x="678.0425963488843" y="49.466435166114344" width="3" height="0.5335648338856558" style="fill: rgb(136, 136, 136); cursor: pointer;"/><rect class="bar" id="M2229" x="683.8843813387424" y="49.809441130755125" width="3" height="0.19055886924487453" style="fill: rgb(136, 136, 136); cursor: pointer;"/><rect class="bar" id="M2232" x="692.6470588235295" y="47.40839937826967" width="3" height="2.591600621730329" style="fill: rgb(136, 136, 136); cursor: pointer;"/><rect class="bar" id="M2234" x="698.4888438133875" y="49.618882261510244" width="3" height="0.38111773848975616" style="fill: rgb(136, 136, 136); cursor: pointer;"/><rect class="bar" id="M2235" x="701.4097363083165" y="47.522734699816596" width="3" height="2.4772653001834044" style="fill: rgb(136, 136, 136); cursor: pointer;"/><rect class="bar" id="M2236" x="704.3306288032454" y="49.618882261510244" width="3" height="0.38111773848975616" style="fill: rgb(136, 136, 136); cursor: pointer;"/><rect class="bar" id="M2239" x="713.0933062880324" y="49.58077048766127" width="3" height="0.41922951233873107" style="fill: rgb(136, 136, 136); cursor: pointer;"/><rect class="bar" id="M2240" x="716.0141987829614" y="49.466435166114344" width="3" height="0.5335648338856558" style="fill: rgb(136, 136, 136); cursor: pointer;"/><rect class="bar" id="M2242" x="721.8559837728194" y="49.809441130755125" width="3" height="0.19055886924487453" style="fill: rgb(136, 136, 136); cursor: pointer;"/><rect class="bar" id="M2244" x="727.6977687626775" y="49.809441130755125" width="3" height="0.19055886924487453" style="fill: rgb(136, 136, 136); cursor: pointer;"/><rect class="bar" id="M2248" x="739.3813387423936" y="45.76959310276372" width="3" height="4.2304068972362785" style="fill: rgb(136, 136, 136); cursor: pointer;"/><rect class="bar" id="M2249" x="742.3022312373225" y="49.313988070718445" width="3" height="0.6860119292815554" style="fill: rgb(136, 136, 136); cursor: pointer;"/><rect class="bar" id="M2252" x="751.0649087221095" y="49.809441130755125" width="3" height="0.19055886924487453" style="fill: rgb(136, 136, 136); cursor: pointer;"/><rect class="bar" id="M2254" x="756.9066937119676" y="8.343831183069824" width="3" height="41.656168816930176" style="fill: rgb(136, 136, 136); cursor: pointer;"/><rect class="bar" id="M2255" x="759.8275862068965" y="19.015127860782954" width="3" height="30.984872139217046" style="fill: rgb(136, 136, 136); cursor: pointer;"/><rect class="bar" id="M2256" x="762.7484787018255" y="19.243798503876803" width="3" height="30.756201496123197" style="fill: rgb(136, 136, 136); cursor: pointer;"/><rect class="bar" id="M2257" x="765.6693711967546" y="24.274552651941562" width="3" height="25.725447348058438" style="fill: rgb(136, 136, 136); cursor: pointer;"/><rect class="bar" id="M2258" x="768.5902636916835" y="46.79861099668606" width="3" height="3.201389003313942" style="fill: rgb(136, 136, 136); cursor: pointer;"/><rect class="bar" id="M2259" x="771.5111561866125" y="45.159804721180116" width="3" height="4.840195278819884" style="fill: rgb(136, 136, 136); cursor: pointer;"/><rect class="bar" id="M2260" x="774.4320486815416" y="48.62797614143688" width="3" height="1.372023858563118" style="fill: rgb(136, 136, 136); cursor: pointer;"/><rect class="bar" id="M2261" x="777.3529411764705" y="46.49371680589426" width="3" height="3.506283194105741" style="fill: rgb(136, 136, 136); cursor: pointer;"/><rect class="bar" id="M2262" x="780.2738336713995" y="45.159804721180116" width="3" height="4.840195278819884" style="fill: rgb(136, 136, 136); cursor: pointer;"/><rect class="bar" id="M2263" x="783.1947261663287" y="49.19965274917151" width="3" height="0.8003472508284872" style="fill: rgb(136, 136, 136); cursor: pointer;"/><rect class="bar" id="M2264" x="786.1156186612576" y="49.42832339226537" width="3" height="0.5716766077346307" style="fill: rgb(136, 136, 136); cursor: pointer;"/><rect class="bar" id="M2265" x="789.0365111561866" y="48.20874662909815" width="3" height="1.791253370901849" style="fill: rgb(136, 136, 136); cursor: pointer;"/><rect class="bar" id="M2267" x="794.8782961460447" y="24.61755861658234" width="3" height="25.38244138341766" style="fill: rgb(136, 136, 136); cursor: pointer;"/><rect class="bar" id="M2268" x="797.7991886409736" y="49.809441130755125" width="3" height="0.19055886924487453" style="fill: rgb(136, 136, 136); cursor: pointer;"/><rect class="bar" id="M2269" x="800.7200811359027" y="46.98916986593094" width="3" height="3.01083013406906" style="fill: rgb(136, 136, 136); cursor: pointer;"/><rect class="bar" id="M2270" x="803.6409736308317" y="49.809441130755125" width="3" height="0.19055886924487453" style="fill: rgb(136, 136, 136); cursor: pointer;"/><rect class="bar" id="M2271" x="806.5618661257606" y="49.27587629686947" width="3" height="0.7241237031305303" style="fill: rgb(136, 136, 136); cursor: pointer;"/><rect class="bar" id="M2272" x="809.4827586206897" y="47.14161696132684" width="3" height="2.8583830386731606" style="fill: rgb(136, 136, 136); cursor: pointer;"/><rect class="bar" id="M2273" x="812.4036511156187" y="49.809441130755125" width="3" height="0.19055886924487453" style="fill: rgb(136, 136, 136); cursor: pointer;"/><rect class="bar" id="M2275" x="818.2454361054766" y="48.66608791528586" width="3" height="1.333912084714143" style="fill: rgb(136, 136, 136); cursor: pointer;"/><rect class="bar" id="M2277" x="824.0872210953346" y="47.8276288906084" width="3" height="2.172371109391598" style="fill: rgb(136, 136, 136); cursor: pointer;"/><rect class="bar" id="M2278" x="827.0081135902636" y="48.28497017679611" width="3" height="1.715029823203892" style="fill: rgb(136, 136, 136); cursor: pointer;"/><rect class="bar" id="M2279" x="829.9290060851928" y="47.71329356906147" width="3" height="2.28670643093853" style="fill: rgb(136, 136, 136); cursor: pointer;"/><rect class="bar" id="M2280" x="832.8498985801217" y="48.58986436758791" width="3" height="1.4101356324120928" style="fill: rgb(136, 136, 136); cursor: pointer;"/><rect class="bar" id="M2281" x="835.7707910750507" y="49.19965274917151" width="3" height="0.8003472508284872" style="fill: rgb(136, 136, 136); cursor: pointer;"/><rect class="bar" id="M2282" x="838.6916835699798" y="48.55175259373893" width="3" height="1.4482474062610677" style="fill: rgb(136, 136, 136); cursor: pointer;"/><rect class="bar" id="M2283" x="841.6125760649087" y="49.809441130755125" width="3" height="0.19055886924487453" style="fill: rgb(136, 136, 136); cursor: pointer;"/><rect class="bar" id="M2284" x="844.5334685598377" y="24.388887973488487" width="3" height="25.611112026511513" style="fill: rgb(136, 136, 136); cursor: pointer;"/><rect class="bar" id="M2288" x="856.2170385395538" y="47.370287604420696" width="3" height="2.629712395579304" style="fill: rgb(136, 136, 136); cursor: pointer;"/><rect class="bar" id="M2289" x="859.1379310344828" y="44.435681018049586" width="3" height="5.564318981950414" style="fill: rgb(136, 136, 136); cursor: pointer;"/><rect class="bar" id="M2290" x="862.0588235294117" y="49.27587629686947" width="3" height="0.7241237031305303" style="fill: rgb(136, 136, 136); cursor: pointer;"/><rect class="bar" id="M2291" x="864.9797160243407" y="49.27587629686947" width="3" height="0.7241237031305303" style="fill: rgb(136, 136, 136); cursor: pointer;"/><rect class="bar" id="M2292" x="867.9006085192698" y="49.00909387992664" width="3" height="0.9909061200733618" style="fill: rgb(136, 136, 136); cursor: pointer;"/><rect class="bar" id="M2293" x="870.8215010141987" y="49.42832339226537" width="3" height="0.5716766077346307" style="fill: rgb(136, 136, 136); cursor: pointer;"/><rect class="bar" id="M2294" x="873.7423935091277" y="43.55911021952315" width="3" height="6.4408897804768515" style="fill: rgb(136, 136, 136); cursor: pointer;"/><rect class="bar" id="M2295" x="876.6632860040569" y="48.05629953370225" width="3" height="1.9437004662977486" style="fill: rgb(136, 136, 136); cursor: pointer;"/><rect class="bar" id="M2297" x="882.5050709939148" y="40.70072718084999" width="3" height="9.299272819150012" style="fill: rgb(136, 136, 136); cursor: pointer;"/><rect class="bar" id="M2298" x="885.4259634888439" y="49.809441130755125" width="3" height="0.19055886924487453" style="fill: rgb(136, 136, 136); cursor: pointer;"/><rect class="bar" id="M2299" x="888.3468559837728" y="49.27587629686947" width="3" height="0.7241237031305303" style="fill: rgb(136, 136, 136); cursor: pointer;"/><rect class="bar" id="M2300" x="891.2677484787018" y="47.29406405672274" width="3" height="2.705935943277261" style="fill: rgb(136, 136, 136); cursor: pointer;"/><rect class="bar" id="M2301" x="894.1886409736309" y="47.86574066445738" width="3" height="2.134259335542623" style="fill: rgb(136, 136, 136); cursor: pointer;"/><rect class="bar" id="M2304" x="902.9513184584179" y="48.66608791528586" width="3" height="1.333912084714143" style="fill: rgb(136, 136, 136); cursor: pointer;"/><rect class="bar" id="M2305" x="905.8722109533469" y="46.91294631823299" width="3" height="3.08705368176701" style="fill: rgb(136, 136, 136); cursor: pointer;"/><rect class="bar" id="M2306" x="908.7931034482758" y="47.71329356906147" width="3" height="2.28670643093853" style="fill: rgb(136, 136, 136); cursor: pointer;"/><rect class="bar" id="M2307" x="911.7139959432048" y="48.05629953370225" width="3" height="1.9437004662977486" style="fill: rgb(136, 136, 136); cursor: pointer;"/><rect class="bar" id="M2308" x="914.6348884381339" y="49.809441130755125" width="3" height="0.19055886924487453" style="fill: rgb(136, 136, 136); cursor: pointer;"/><rect class="bar" id="M2309" x="917.5557809330628" y="48.094411307551226" width="3" height="1.9055886924487737" style="fill: rgb(136, 136, 136); cursor: pointer;"/><rect class="bar" id="M2311" x="923.397565922921" y="49.12342920147356" width="3" height="0.876570798526437" style="fill: rgb(136, 136, 136); cursor: pointer;"/><rect class="bar" id="M2312" x="926.3184584178499" y="49.42832339226537" width="3" height="0.5716766077346307" style="fill: rgb(136, 136, 136); cursor: pointer;"/><rect class="bar" id="M2317" x="940.922920892495" y="49.12342920147356" width="3" height="0.876570798526437" style="fill: rgb(136, 136, 136); cursor: pointer;"/><rect class="bar" id="M2318" x="943.8438133874239" y="45.61714600736782" width="3" height="4.382853992632178" style="fill: rgb(136, 136, 136); cursor: pointer;"/><rect class="bar" id="M2319" x="946.7647058823529" y="49.618882261510244" width="3" height="0.38111773848975616" style="fill: rgb(136, 136, 136); cursor: pointer;"/><rect class="bar" id="M2321" x="952.6064908722109" y="49.618882261510244" width="3" height="0.38111773848975616" style="fill: rgb(136, 136, 136); cursor: pointer;"/><rect class="bar" id="M2322" x="955.5273833671399" y="49.27587629686947" width="3" height="0.7241237031305303" style="fill: rgb(136, 136, 136); cursor: pointer;"/><rect class="bar" id="M2324" x="961.369168356998" y="49.313988070718445" width="3" height="0.6860119292815554" style="fill: rgb(136, 136, 136); cursor: pointer;"/><rect class="bar" id="M2325" x="964.2900608519269" y="49.58077048766127" width="3" height="0.41922951233873107" style="fill: rgb(136, 136, 136); cursor: pointer;"/><rect class="bar" id="M2326" x="967.210953346856" y="36.851438022103466" width="3" height="13.148561977896534" style="fill: rgb(136, 136, 136); cursor: pointer;"/><rect class="bar" id="M2327" x="970.131845841785" y="49.04720565377561" width="3" height="0.9527943462243869" style="fill: rgb(136, 136, 136); cursor: pointer;"/></g></g><g class="nav" transform="translate(15,70)"><g class="brush" stroke-width="0" fill="none" pointer-events="all" style="-webkit-tap-highlight-color: rgba(0, 0, 0, 0);"><rect class="overlay" pointer-events="all" cursor="crosshair" x="15" y="0" width="965" height="59"/><rect class="selection" cursor="move" fill="#777" fill-opacity="0.3" stroke="#fff" shape-rendering="crispEdges" x="15" y="0" width="960" height="59" style=""/><rect class="handle handle--e" cursor="ew-resize" x="972" y="-3" width="6" height="65" style=""/><rect class="handle handle--w" cursor="ew-resize" x="12" y="-3" width="6" height="65" style=""/><path class="handle--custom" fill="#333" cursor="ew-resize" d="M0,0 0,0 -5,11 5,11 0,0 Z" transform="translate(16,59)"/><path class="handle--custom" fill="#333" cursor="ew-resize" d="M0,0 0,0 -5,11 5,11 0,0 Z" transform="translate(974,59)"/></g><g><rect class="gene" x="15" y="5" width="738.9858012170386" height="20" style="fill: rgb(217, 173, 61); stroke: white;"/><text x="384.4929006085193" y="10" dy=".7em" text-anchor="middle" style="fill: white;">M1</text></g><g><rect class="gene" x="15" y="5" width="956.1054766734279" height="20" style="fill: rgb(80, 151, 186); stroke: white;"/><text x="493.05273833671396" y="10" dy=".7em" text-anchor="middle" style="fill: white;">M2</text></g></g><g class="y axis" id="entropyYAxis" transform="translate(30,0)" fill="none" font-size="10" font-family="sans-serif" text-anchor="end"><path class="domain" stroke="#000" d="M-6,50.5H0.5V0.5H-6"/><g class="tick" opacity="1" transform="translate(0,50.5)"><line stroke="#000" x2="-6"/><text fill="#000" x="-9" dy="0.32em">0.0</text></g><g class="tick" opacity="1" transform="translate(0,31.44411307551227)"><line stroke="#000" x2="-6"/><text fill="#000" x="-9" dy="0.32em">0.5</text></g><g class="tick" opacity="1" transform="translate(0,12.38822615102454)"><line stroke="#000" x2="-6"/><text fill="#000" x="-9" dy="0.32em">1.0</text></g></g><g class="xMain axis" transform="translate(15,50)" fill="none" font-size="10" font-family="sans-serif" text-anchor="middle"><path class="domain" stroke="#000" d="M15.5,6V0.5H975.5V6"/><g class="tick" opacity="1" transform="translate(15.5,0)"><line stroke="#000" y2="6"/><text fill="#000" y="9" dy="0.71em">0</text></g><g class="tick" opacity="1" transform="translate(64.1815415821501,0)"><line stroke="#000" y2="6"/><text fill="#000" y="9" dy="0.71em">50</text></g><g class="tick" opacity="1" transform="translate(112.8630831643002,0)"><line stroke="#000" y2="6"/><text fill="#000" y="9" dy="0.71em">100</text></g><g class="tick" opacity="1" transform="translate(161.54462474645032,0)"><line stroke="#000" y2="6"/><text fill="#000" y="9" dy="0.71em">150</text></g><g class="tick" opacity="1" transform="translate(210.2261663286004,0)"><line stroke="#000" y2="6"/><text fill="#000" y="9" dy="0.71em">200</text></g><g class="tick" opacity="1" transform="translate(258.9077079107505,0)"><line stroke="#000" y2="6"/><text fill="#000" y="9" dy="0.71em">250</text></g><g class="tick" opacity="1" transform="translate(307.58924949290065,0)"><line stroke="#000" y2="6"/><text fill="#000" y="9" dy="0.71em">300</text></g><g class="tick" opacity="1" transform="translate(356.2707910750507,0)"><line stroke="#000" y2="6"/><text fill="#000" y="9" dy="0.71em">350</text></g><g class="tick" opacity="1" transform="translate(404.9523326572008,0)"><line stroke="#000" y2="6"/><text fill="#000" y="9" dy="0.71em">400</text></g><g class="tick" opacity="1" transform="translate(453.6338742393509,0)"><line stroke="#000" y2="6"/><text fill="#000" y="9" dy="0.71em">450</text></g><g class="tick" opacity="1" transform="translate(502.315415821501,0)"><line stroke="#000" y2="6"/><text fill="#000" y="9" dy="0.71em">500</text></g><g class="tick" opacity="1" transform="translate(550.9969574036511,0)"><line stroke="#000" y2="6"/><text fill="#000" y="9" dy="0.71em">550</text></g><g class="tick" opacity="1" transform="translate(599.6784989858013,0)"><line stroke="#000" y2="6"/><text fill="#000" y="9" dy="0.71em">600</text></g><g class="tick" opacity="1" transform="translate(648.3600405679513,0)"><line stroke="#000" y2="6"/><text fill="#000" y="9" dy="0.71em">650</text></g><g class="tick" opacity="1" transform="translate(697.0415821501014,0)"><line stroke="#000" y2="6"/><text fill="#000" y="9" dy="0.71em">700</text></g><g class="tick" opacity="1" transform="translate(745.7231237322516,0)"><line stroke="#000" y2="6"/><text fill="#000" y="9" dy="0.71em">750</text></g><g class="tick" opacity="1" transform="translate(794.4046653144017,0)"><line stroke="#000" y2="6"/><text fill="#000" y="9" dy="0.71em">800</text></g><g class="tick" opacity="1" transform="translate(843.0862068965516,0)"><line stroke="#000" y2="6"/><text fill="#000" y="9" dy="0.71em">850</text></g><g class="tick" opacity="1" transform="translate(891.7677484787018,0)"><line stroke="#000" y2="6"/><text fill="#000" y="9" dy="0.71em">900</text></g><g class="tick" opacity="1" transform="translate(940.4492900608519,0)"><line stroke="#000" y2="6"/><text fill="#000" y="9" dy="0.71em">950</text></g></g><g class="xNav axis" transform="translate(15,100)" fill="none" font-size="10" font-family="sans-serif" text-anchor="middle"><path class="domain" stroke="#000" d="M15.5,6V0.5H975.5V6"/><g class="tick" opacity="1" transform="translate(15.5,0)"><line stroke="#000" y2="6"/><text fill="#000" y="9" dy="0.71em">0</text></g><g class="tick" opacity="1" transform="translate(64.1815415821501,0)"><line stroke="#000" y2="6"/><text fill="#000" y="9" dy="0.71em">50</text></g><g class="tick" opacity="1" transform="translate(112.8630831643002,0)"><line stroke="#000" y2="6"/><text fill="#000" y="9" dy="0.71em">100</text></g><g class="tick" opacity="1" transform="translate(161.54462474645032,0)"><line stroke="#000" y2="6"/><text fill="#000" y="9" dy="0.71em">150</text></g><g class="tick" opacity="1" transform="translate(210.2261663286004,0)"><line stroke="#000" y2="6"/><text fill="#000" y="9" dy="0.71em">200</text></g><g class="tick" opacity="1" transform="translate(258.9077079107505,0)"><line stroke="#000" y2="6"/><text fill="#000" y="9" dy="0.71em">250</text></g><g class="tick" opacity="1" transform="translate(307.58924949290065,0)"><line stroke="#000" y2="6"/><text fill="#000" y="9" dy="0.71em">300</text></g><g class="tick" opacity="1" transform="translate(356.2707910750507,0)"><line stroke="#000" y2="6"/><text fill="#000" y="9" dy="0.71em">350</text></g><g class="tick" opacity="1" transform="translate(404.9523326572008,0)"><line stroke="#000" y2="6"/><text fill="#000" y="9" dy="0.71em">400</text></g><g class="tick" opacity="1" transform="translate(453.6338742393509,0)"><line stroke="#000" y2="6"/><text fill="#000" y="9" dy="0.71em">450</text></g><g class="tick" opacity="1" transform="translate(502.315415821501,0)"><line stroke="#000" y2="6"/><text fill="#000" y="9" dy="0.71em">500</text></g><g class="tick" opacity="1" transform="translate(550.9969574036511,0)"><line stroke="#000" y2="6"/><text fill="#000" y="9" dy="0.71em">550</text></g><g class="tick" opacity="1" transform="translate(599.6784989858013,0)"><line stroke="#000" y2="6"/><text fill="#000" y="9" dy="0.71em">600</text></g><g class="tick" opacity="1" transform="translate(648.3600405679513,0)"><line stroke="#000" y2="6"/><text fill="#000" y="9" dy="0.71em">650</text></g><g class="tick" opacity="1" transform="translate(697.0415821501014,0)"><line stroke="#000" y2="6"/><text fill="#000" y="9" dy="0.71em">700</text></g><g class="tick" opacity="1" transform="translate(745.7231237322516,0)"><line stroke="#000" y2="6"/><text fill="#000" y="9" dy="0.71em">750</text></g><g class="tick" opacity="1" transform="translate(794.4046653144017,0)"><line stroke="#000" y2="6"/><text fill="#000" y="9" dy="0.71em">800</text></g><g class="tick" opacity="1" transform="translate(843.0862068965516,0)"><line stroke="#000" y2="6"/><text fill="#000" y="9" dy="0.71em">850</text></g><g class="tick" opacity="1" transform="translate(891.7677484787018,0)"><line stroke="#000" y2="6"/><text fill="#000" y="9" dy="0.71em">900</text></g><g class="tick" opacity="1" transform="translate(940.4492900608519,0)"><line stroke="#000" y2="6"/><text fill="#000" y="9" dy="0.71em">950</text></g></g><g><clipPath transform="translate(15,0)" id="clip"><rect id="cliprect" width="960" height="50"/></clipPath></g></g></svg>