<svg width="23" height="26" viewBox="0 0 23 26" fill="none" xmlns="http://www.w3.org/2000/svg">
<path opacity="0.7" d="M1.52686 1.3468V24.6439L21.7021 12.9945L1.52686 1.3468ZM7.82353 12.9945L2.26428 22.613V3.37612L7.82353 12.9945ZM8.46612 13.3657H19.5732L2.91503 22.9842L8.46612 13.3657ZM8.46612 12.6217L2.91503 3.00492L19.5716 12.6299L8.46612 12.6217Z" fill="#8A8E91"/>
<path d="M0.998708 0.256052C0.666108 0.446565 0.397539 0.731529 0.227032 1.07484C0.056526 1.41815 -0.00824365 1.80435 0.0409301 2.18451C0.0901039 2.56467 0.251008 2.92167 0.503254 3.21029C0.7555 3.4989 1.08774 3.70614 1.45786 3.80574C1.82799 3.90533 2.21935 3.89281 2.58235 3.76975C2.94535 3.64669 3.26366 3.41864 3.49694 3.11448C3.73022 2.81033 3.86797 2.44377 3.89274 2.06124C3.91751 1.67872 3.82819 1.29745 3.63608 0.965742C3.37956 0.522809 2.9581 0.199492 2.46386 0.0664981C1.96962 -0.0664958 1.44284 0.00165733 0.998708 0.256052V0.256052ZM7.32318 11.2137C6.99175 11.4054 6.72457 11.691 6.55543 12.0345C6.38629 12.378 6.32278 12.7639 6.37293 13.1435C6.42307 13.523 6.58463 13.8792 6.83716 14.167C7.0897 14.4547 7.42188 14.6612 7.7917 14.7601C8.16153 14.8591 8.5524 14.8462 8.91489 14.7231C9.27739 14.5999 9.59523 14.372 9.82824 14.0682C10.0612 13.7644 10.199 13.3984 10.224 13.0163C10.249 12.6343 10.1602 12.2534 9.96873 11.9218C9.84156 11.7015 9.67225 11.5084 9.47045 11.3536C9.26865 11.1988 9.03833 11.0853 8.79265 11.0196C8.54696 10.9538 8.29073 10.9371 8.0386 10.9704C7.78646 11.0037 7.54336 11.0864 7.32318 11.2137V11.2137ZM0.967641 22.1338C0.636151 22.3253 0.368868 22.6108 0.199581 22.9541C0.0302931 23.2975 -0.0333993 23.6834 0.0165547 24.063C0.0665087 24.4425 0.227867 24.7988 0.480231 25.0867C0.732596 25.3746 1.06464 25.5811 1.43438 25.6803C1.80413 25.7795 2.19498 25.7668 2.55752 25.6439C2.92007 25.521 3.23803 25.2933 3.47123 24.9897C3.70442 24.6861 3.84237 24.3201 3.86764 23.9381C3.89291 23.5561 3.80436 23.1752 3.61319 22.8435C3.48616 22.6231 3.31694 22.4299 3.11521 22.2749C2.91347 22.1199 2.68317 22.0062 2.43748 21.9403C2.19179 21.8744 1.93551 21.8576 1.68331 21.8908C1.4311 21.924 1.18792 22.0065 0.967641 22.1338V22.1338ZM19.9574 11.1679C19.6254 11.3594 19.3575 11.645 19.1878 11.9887C19.0181 12.3324 18.9541 12.7187 19.004 13.0988C19.0538 13.4788 19.2153 13.8355 19.4679 14.1238C19.7205 14.4121 20.0529 14.619 20.4231 14.7183C20.7933 14.8176 21.1846 14.8049 21.5476 14.6817C21.9106 14.5586 22.2288 14.3305 22.4622 14.0264C22.6955 13.7224 22.8335 13.3559 22.8585 12.9734C22.8836 12.5909 22.7946 12.2096 22.603 11.8776C22.3461 11.4328 21.9231 11.1082 21.4271 10.9751C20.931 10.842 20.4024 10.9114 19.9574 11.1679V11.1679Z" fill="#0099F9"/>
</svg>
