<svg width="60" height="13" viewBox="0 0 60 13" fill="none" xmlns="http://www.w3.org/2000/svg">
<path d="M6.52395 8.01263H2.91371L2.21716 10.1008H0L3.65439 0.430065H6.21329L9.64694 10.1057H7.23357L6.52395 8.01263ZM5.9435 6.28746L4.71065 2.63272L3.49252 6.28746H5.9435ZM17.1683 3.44216C17.8158 4.05701 18.1395 5.07957 18.1395 6.50985C18.1395 7.65996 17.8496 8.58332 17.2697 9.27993C16.6898 9.97654 15.8973 10.3243 14.8923 10.3232C14.2559 10.3446 13.624 10.2105 13.0512 9.93239V12.7303H10.9305V4.32028C10.9305 3.72941 11.2575 3.28463 11.9115 2.98593C12.5656 2.68723 13.4038 2.53243 14.4263 2.52152C15.6003 2.52152 16.5143 2.8284 17.1683 3.44216V3.44216ZM15.5594 8.08948C15.8395 7.76244 15.9796 7.21191 15.9796 6.4379C15.9796 5.74129 15.8564 5.21638 15.6101 4.86317C15.3637 4.50996 14.9408 4.3339 14.3412 4.33499C13.4812 4.33499 13.0512 4.49852 13.0512 4.82556V8.27753C13.2308 8.38587 13.4268 8.4643 13.6316 8.50974C13.836 8.5565 14.0449 8.58063 14.2546 8.58169C14.8399 8.58332 15.2749 8.4198 15.5561 8.08948H15.5594ZM25.7345 3.44216C26.3819 4.05701 26.7057 5.07957 26.7057 6.50985C26.7057 7.65996 26.4157 8.58332 25.8358 9.27993C25.2559 9.97654 24.4629 10.3243 23.4568 10.3232C22.8205 10.3442 22.1886 10.2101 21.6157 9.93239V12.7303H19.4999V4.32028C19.4999 3.72941 19.8269 3.28463 20.481 2.98593C21.135 2.68723 21.9738 2.53243 22.9973 2.52152C24.1735 2.52152 25.0859 2.8284 25.7345 3.44216V3.44216ZM24.1255 8.08948C24.4046 7.76244 24.5447 7.21191 24.5457 6.4379C24.5457 5.74129 24.4215 5.21638 24.1762 4.86317C23.931 4.50996 23.5058 4.33499 22.9074 4.33499C22.0474 4.33499 21.6157 4.49852 21.6157 4.82556V8.27753C21.7955 8.38546 21.9915 8.46386 22.1961 8.50974C22.4011 8.55659 22.6105 8.58072 22.8207 8.58169C23.4094 8.58332 23.8443 8.4198 24.1255 8.08948V8.08948ZM29.3153 10.1858C28.9207 10.0778 28.5335 9.94453 28.156 9.78685V7.88671C28.856 8.44771 29.7231 8.75904 30.6201 8.77137C30.8704 8.7921 31.1211 8.73499 31.3379 8.60785C31.4098 8.55606 31.4679 8.48734 31.5069 8.40776C31.546 8.32819 31.5649 8.24022 31.5619 8.15162C31.5601 8.04242 31.5244 7.93647 31.4596 7.84853C31.3949 7.7606 31.3043 7.69506 31.2005 7.66105C30.8239 7.51329 30.4356 7.39733 30.0396 7.31438C29.5212 7.21985 29.041 6.97801 28.6563 6.61778C28.2933 6.27002 28.1118 5.76255 28.1118 5.09538C28.0914 4.59062 28.245 4.09415 28.5468 3.68908C28.8308 3.32572 29.2092 3.04741 29.6406 2.88455C30.0781 2.71497 30.5433 2.62846 31.0125 2.62945C31.4881 2.61722 31.9633 2.66892 32.4252 2.78316C32.8006 2.89012 33.1594 3.04861 33.4912 3.25411V4.94984C33.0007 4.68003 32.6165 4.48544 32.3467 4.36933C32.0476 4.24892 31.7273 4.18997 31.4049 4.196C31.129 4.17626 30.8529 4.23283 30.607 4.35952C30.5254 4.40753 30.4583 4.47657 30.4125 4.55941C30.3668 4.64226 30.3442 4.73588 30.347 4.83047C30.3405 4.93707 30.3642 5.04334 30.4154 5.13706C30.4666 5.23079 30.5432 5.30816 30.6364 5.36028C30.931 5.50965 31.2422 5.62381 31.5635 5.70041C31.9535 5.79572 32.336 5.91923 32.708 6.06997C33.0097 6.20851 33.2697 6.42393 33.4618 6.69463C33.6798 6.98897 33.7888 7.40214 33.7888 7.93414C33.7692 8.76483 33.4553 9.3715 32.847 9.75415C32.2388 10.1368 31.4654 10.3276 30.5269 10.3265C30.1187 10.3311 29.7115 10.2839 29.3153 10.1858V10.1858ZM35.4926 0.101385H37.7245V1.76768H35.4926V0.101385ZM35.5351 2.86983H37.695L37.7097 10.1057H35.5351V2.86983ZM39.783 10.1057V0H41.9282V10.1057H39.783ZM44.51 9.33716C43.8898 8.68307 43.5802 7.70684 43.5813 6.40847C43.5813 5.0545 43.8881 4.06845 44.5018 3.45033C45.1155 2.83222 46.0459 2.52261 47.2929 2.52152C48.5399 2.52152 49.4779 2.83821 50.1069 3.47159C50.7358 4.10497 51.0498 5.08611 51.0487 6.41501C51.0487 7.69049 50.7249 8.66181 50.0775 9.32899C49.43 9.99616 48.5034 10.3297 47.2978 10.3297C46.0573 10.3254 45.1281 9.99453 44.51 9.33716ZM48.4963 8.03879C48.7677 7.66705 48.9035 7.12197 48.9035 6.40356C48.9035 5.62083 48.7705 5.06267 48.5045 4.72908C48.2385 4.3955 47.8347 4.2287 47.2929 4.2287C46.7321 4.2287 46.3299 4.39223 46.083 4.72908C45.8361 5.06594 45.7134 5.62029 45.7134 6.40356C45.7134 7.14814 45.8415 7.69921 46.0977 8.05678C46.3538 8.41435 46.7522 8.59313 47.2929 8.59313C47.5238 8.60806 47.7547 8.56519 47.9648 8.4684C48.1749 8.37161 48.3576 8.22396 48.4963 8.03879ZM54.121 2.82731C54.8004 2.66408 55.4957 2.57633 56.1943 2.56568C57.2276 2.56568 58.0054 2.76844 58.5275 3.17398C59.0497 3.57952 59.3107 4.24669 59.3107 5.1755V10.1057H57.1524V5.61047C57.1524 4.76997 56.6788 4.34971 55.7315 4.34971C55.5116 4.35062 55.2924 4.37474 55.0775 4.42166C54.8967 4.45607 54.7213 4.51436 54.5559 4.595V10.1057H52.396V3.39147C52.9447 3.13093 53.5244 2.94136 54.121 2.82731V2.82731Z" fill="black"/>
</svg>
