<svg width="21" height="16" viewBox="0 0 21 16" fill="none" xmlns="http://www.w3.org/2000/svg">
<path d="M16.275 12H17.1938C17.4563 12 17.7188 11.7333 17.7188 11.4667V1.86667C17.7188 1.6 17.4563 1.33333 17.1938 1.33333H16.275C16.0125 1.33333 15.75 1.6 15.75 1.86667V11.4667C15.75 11.7333 16.0125 12 16.275 12ZM8.4 12H9.31875C9.58125 12 9.84375 11.7333 9.84375 11.4667V3.2C9.84375 2.93333 9.58125 2.66667 9.31875 2.66667H8.4C8.1375 2.66667 7.875 2.93333 7.875 3.2V11.4667C7.875 11.7333 8.1375 12 8.4 12V12ZM12.3375 12H13.2563C13.5188 12 13.7812 11.7333 13.7812 11.4667V5.86667C13.7812 5.6 13.5188 5.33333 13.2563 5.33333H12.3375C12.075 5.33333 11.8125 5.6 11.8125 5.86667V11.4667C11.8125 11.7333 12.075 12 12.3375 12V12ZM20.3438 14H1.96875V0.666667C1.96875 0.298333 1.67508 0 1.3125 0H0.65625C0.293672 0 0 0.298333 0 0.666667V14.6667C0 15.4029 0.587754 16 1.3125 16H20.3438C20.7063 16 21 15.7017 21 15.3333V14.6667C21 14.2983 20.7063 14 20.3438 14ZM4.4625 12H5.38125C5.64375 12 5.90625 11.7333 5.90625 11.4667V8.53333C5.90625 8.26667 5.64375 8 5.38125 8H4.4625C4.2 8 3.9375 8.26667 3.9375 8.53333V11.4667C3.9375 11.7333 4.2 12 4.4625 12V12Z" fill="black"/>
</svg>
