<svg width="23" height="18" viewBox="0 0 23 18" fill="none" xmlns="http://www.w3.org/2000/svg">
<path d="M17.8471 13.1006L20.3632 10.6392C20.9705 10.0451 20.7205 9.03009 19.9019 8.77271L18.4 8.30046V3.375C18.4 2.75368 17.8851 2.25 17.25 2.25H14.95V0.84375C14.95 0.377754 14.5639 0 14.0875 0H8.9125C8.43615 0 8.05 0.377754 8.05 0.84375V2.25H5.75C5.11488 2.25 4.6 2.75368 4.6 3.375V8.30046L3.0981 8.77271C2.28041 9.02981 2.02882 10.0444 2.63681 10.6392L5.15286 13.1006C4.52194 14.6351 3.07578 15.75 0.8625 15.75C0.386148 15.75 0 16.1278 0 16.5938V17.1562C0 17.6222 0.386148 18 0.8625 18C3.05551 18 4.72575 17.2754 6.01083 15.9119C6.52902 17.1363 7.76325 18 9.2 18H13.8C15.2367 18 16.471 17.1363 16.9892 15.9119C18.274 17.2752 19.9442 18 22.1375 18C22.6139 18 23 17.6222 23 17.1562V16.5938C23 16.1278 22.6139 15.75 22.1375 15.75C19.9519 15.75 18.4883 14.6601 17.8471 13.1006ZM6.9 4.5H16.1V7.57726L11.8519 6.2415C11.6231 6.16954 11.3769 6.16954 11.1481 6.2415L6.9 7.57726V4.5Z" fill="black"/>
</svg>
