<svg width="31" height="31" viewBox="0 0 31 31" fill="none" xmlns="http://www.w3.org/2000/svg">
<path d="M23.2037 27.8334C21.8177 27.8334 21.218 27.3539 20.3115 26.6293C19.2632 25.7922 17.9605 24.75 15.4907 24.75C13.0225 24.75 11.7198 25.7922 10.673 26.6309C9.76806 27.3539 9.1699 27.8334 7.78394 27.8334C6.40106 27.8334 5.8029 27.3539 4.89794 26.6309C3.85115 25.7922 2.55152 24.75 0.083313 24.75V27.8334C1.46773 27.8334 2.0659 28.3128 2.97085 29.0359C4.01765 29.8745 5.31881 30.9167 7.78394 30.9167C10.2521 30.9167 11.5533 29.8745 12.6001 29.0374C13.5066 28.3128 14.1048 27.8334 15.4907 27.8334C16.8782 27.8334 17.5119 28.339 18.386 29.0374C19.4328 29.8745 20.7355 30.9167 23.2037 30.9167C25.6719 30.9167 26.9746 29.8745 28.0214 29.0374C28.8955 28.339 29.5291 27.8334 30.9166 27.8334V24.75C28.4469 24.75 27.1442 25.7922 26.0959 26.6293C25.1894 27.3539 24.5896 27.8334 23.2037 27.8334ZM6.24998 10.1042L3.16665 10.875L6.24998 23.2084H7.78394C10.2521 23.2084 11.5533 22.1662 12.6001 21.3291C13.5066 20.6045 14.1048 20.125 15.4907 20.125C16.8782 20.125 17.5119 20.6307 18.386 21.3291C19.4328 22.1662 20.7355 23.2084 23.2037 23.2084H24.75L24.7916 23.0434L25.2741 21.1133L27.8333 10.875L24.75 10.1042V4.70992C24.7501 4.35338 24.6267 4.00782 24.4007 3.73207C24.1747 3.45632 23.8601 3.26742 23.5105 3.19754L17.0416 1.90408V0.083374H13.9583V1.90408L7.48948 3.19754C7.13986 3.26742 6.82527 3.45632 6.59927 3.73207C6.37328 4.00782 6.24984 4.35338 6.24998 4.70992V10.1042ZM9.33331 5.971L15.5 4.73767L21.6666 5.971V9.33337L15.5 7.79171L9.33331 9.33337V5.971Z" fill="#008EDE"/>
</svg>
