<svg xmlns="http://www.w3.org/2000/svg" version="1.1" xmlns:xlink="http://www.w3.org/1999/xlink" viewBox="0 0 390 390" width="400" height="400"><defs /><rect x="0" y="0" width="390" height="390" fill="#212121" /><rect x="15" y="330" width="45" height="45" class="square dark a1" stroke="none" fill="#d18b47" /><rect x="60" y="330" width="45" height="45" class="square light b1" stroke="none" fill="#ffce9e" /><rect x="105" y="330" width="45" height="45" class="square dark c1" stroke="none" fill="#d18b47" /><rect x="150" y="330" width="45" height="45" class="square light d1" stroke="none" fill="#ffce9e" /><rect x="195" y="330" width="45" height="45" class="square dark e1" stroke="none" fill="#d18b47" /><rect x="240" y="330" width="45" height="45" class="square light f1" stroke="none" fill="#ffce9e" /><rect x="285" y="330" width="45" height="45" class="square dark g1" stroke="none" fill="#d18b47" /><rect x="330" y="330" width="45" height="45" class="square light h1" stroke="none" fill="#ffce9e" /><rect x="15" y="285" width="45" height="45" class="square light a2" stroke="none" fill="#ffce9e" /><rect x="60" y="285" width="45" height="45" class="square dark b2" stroke="none" fill="#d18b47" /><rect x="105" y="285" width="45" height="45" class="square light c2" stroke="none" fill="#ffce9e" /><rect x="150" y="285" width="45" height="45" class="square dark d2" stroke="none" fill="#d18b47" /><rect x="195" y="285" width="45" height="45" class="square light e2" stroke="none" fill="#ffce9e" /><rect x="240" y="285" width="45" height="45" class="square dark f2" stroke="none" fill="#d18b47" /><rect x="285" y="285" width="45" height="45" class="square light g2" stroke="none" fill="#ffce9e" /><rect x="330" y="285" width="45" height="45" class="square dark h2" stroke="none" fill="#d18b47" /><rect x="15" y="240" width="45" height="45" class="square dark a3" stroke="none" fill="#d18b47" /><rect x="60" y="240" width="45" height="45" class="square light b3" stroke="none" fill="#ffce9e" /><rect x="105" y="240" width="45" height="45" class="square dark c3" stroke="none" fill="#d18b47" /><rect x="150" y="240" width="45" height="45" class="square light d3" stroke="none" fill="#ffce9e" /><rect x="195" y="240" width="45" height="45" class="square dark e3" stroke="none" fill="#d18b47" /><rect x="240" y="240" width="45" height="45" class="square light f3" stroke="none" fill="#ffce9e" /><rect x="285" y="240" width="45" height="45" class="square dark g3" stroke="none" fill="#d18b47" /><rect x="330" y="240" width="45" height="45" class="square light h3" stroke="none" fill="#ffce9e" /><rect x="15" y="195" width="45" height="45" class="square light a4" stroke="none" fill="#ffce9e" /><rect x="60" y="195" width="45" height="45" class="square dark b4" stroke="none" fill="#d18b47" /><rect x="105" y="195" width="45" height="45" class="square light c4" stroke="none" fill="#ffce9e" /><rect x="150" y="195" width="45" height="45" class="square dark d4" stroke="none" fill="#d18b47" /><rect x="195" y="195" width="45" height="45" class="square light e4" stroke="none" fill="#ffce9e" /><rect x="240" y="195" width="45" height="45" class="square dark f4" stroke="none" fill="#d18b47" /><rect x="285" y="195" width="45" height="45" class="square light g4" stroke="none" fill="#ffce9e" /><rect x="330" y="195" width="45" height="45" class="square dark h4" stroke="none" fill="#d18b47" /><rect x="15" y="150" width="45" height="45" class="square dark a5" stroke="none" fill="#d18b47" /><rect x="60" y="150" width="45" height="45" class="square light b5" stroke="none" fill="#ffce9e" /><rect x="105" y="150" width="45" height="45" class="square dark c5" stroke="none" fill="#d18b47" /><rect x="150" y="150" width="45" height="45" class="square light d5" stroke="none" fill="#ffce9e" /><rect x="195" y="150" width="45" height="45" class="square dark e5" stroke="none" fill="#d18b47" /><rect x="240" y="150" width="45" height="45" class="square light f5" stroke="none" fill="#ffce9e" /><rect x="285" y="150" width="45" height="45" class="square dark g5" stroke="none" fill="#d18b47" /><rect x="330" y="150" width="45" height="45" class="square light h5" stroke="none" fill="#ffce9e" /><rect x="15" y="105" width="45" height="45" class="square light a6" stroke="none" fill="#ffce9e" /><rect x="60" y="105" width="45" height="45" class="square dark b6" stroke="none" fill="#d18b47" /><rect x="105" y="105" width="45" height="45" class="square light c6" stroke="none" fill="#ffce9e" /><rect x="150" y="105" width="45" height="45" class="square dark d6" stroke="none" fill="#d18b47" /><rect x="195" y="105" width="45" height="45" class="square light e6" stroke="none" fill="#ffce9e" /><rect x="240" y="105" width="45" height="45" class="square dark f6" stroke="none" fill="#d18b47" /><rect x="285" y="105" width="45" height="45" class="square light g6" stroke="none" fill="#ffce9e" /><rect x="330" y="105" width="45" height="45" class="square dark h6" stroke="none" fill="#d18b47" /><rect x="15" y="60" width="45" height="45" class="square dark a7" stroke="none" fill="#d18b47" /><rect x="60" y="60" width="45" height="45" class="square light b7" stroke="none" fill="#ffce9e" /><rect x="105" y="60" width="45" height="45" class="square dark c7" stroke="none" fill="#d18b47" /><rect x="150" y="60" width="45" height="45" class="square light d7" stroke="none" fill="#ffce9e" /><rect x="195" y="60" width="45" height="45" class="square dark e7" stroke="none" fill="#d18b47" /><rect x="240" y="60" width="45" height="45" class="square light f7" stroke="none" fill="#ffce9e" /><rect x="285" y="60" width="45" height="45" class="square dark g7" stroke="none" fill="#d18b47" /><rect x="330" y="60" width="45" height="45" class="square light h7" stroke="none" fill="#ffce9e" /><rect x="15" y="15" width="45" height="45" class="square light a8" stroke="none" fill="#ffce9e" /><rect x="60" y="15" width="45" height="45" class="square dark b8" stroke="none" fill="#d18b47" /><rect x="105" y="15" width="45" height="45" class="square light c8" stroke="none" fill="#ffce9e" /><rect x="150" y="15" width="45" height="45" class="square dark d8" stroke="none" fill="#d18b47" /><rect x="195" y="15" width="45" height="45" class="square light e8" stroke="none" fill="#ffce9e" /><rect x="240" y="15" width="45" height="45" class="square dark f8" stroke="none" fill="#d18b47" /><rect x="285" y="15" width="45" height="45" class="square light g8" stroke="none" fill="#ffce9e" /><rect x="330" y="15" width="45" height="45" class="square dark h8" stroke="none" fill="#d18b47" /><g transform="translate(20, 0) scale(0.75, 0.75)" fill="#e5e5e5" stroke="#e5e5e5"><path d="M23.328 10.016q-1.742 0-2.414.398-.672.398-.672 1.36 0 .765.5 1.218.508.445 1.375.445 1.196 0 1.914-.843.727-.852.727-2.258v-.32zm2.867-.594v4.992h-1.437v-1.328q-.492.797-1.227 1.18-.734.375-1.797.375-1.343 0-2.14-.75-.79-.758-.79-2.024 0-1.476.985-2.226.992-.75 2.953-.75h2.016V8.75q0-.992-.656-1.531-.649-.547-1.829-.547-.75 0-1.46.18-.711.18-1.368.539V6.062q.79-.304 1.532-.453.742-.156 1.445-.156 1.898 0 2.836.984.937.985.937 2.985z" /></g><g transform="translate(20, 375) scale(0.75, 0.75)" fill="#e5e5e5" stroke="#e5e5e5"><path d="M23.328 10.016q-1.742 0-2.414.398-.672.398-.672 1.36 0 .765.5 1.218.508.445 1.375.445 1.196 0 1.914-.843.727-.852.727-2.258v-.32zm2.867-.594v4.992h-1.437v-1.328q-.492.797-1.227 1.18-.734.375-1.797.375-1.343 0-2.14-.75-.79-.758-.79-2.024 0-1.476.985-2.226.992-.75 2.953-.75h2.016V8.75q0-.992-.656-1.531-.649-.547-1.829-.547-.75 0-1.46.18-.711.18-1.368.539V6.062q.79-.304 1.532-.453.742-.156 1.445-.156 1.898 0 2.836.984.937.985.937 2.985z" /></g><g transform="translate(65, 0) scale(0.75, 0.75)" fill="#e5e5e5" stroke="#e5e5e5"><path d="M24.922 10.047q0-1.586-.656-2.485-.649-.906-1.79-.906-1.14 0-1.796.906-.649.899-.649 2.485 0 1.586.649 2.492.656.898 1.797.898 1.14 0 1.789-.898.656-.906.656-2.492zm-4.89-3.055q.452-.781 1.14-1.156.695-.383 1.656-.383 1.594 0 2.586 1.266 1 1.265 1 3.328 0 2.062-1 3.328-.992 1.266-2.586 1.266-.96 0-1.656-.375-.688-.383-1.14-1.164v1.312h-1.446V2.258h1.445z" /></g><g transform="translate(65, 375) scale(0.75, 0.75)" fill="#e5e5e5" stroke="#e5e5e5"><path d="M24.922 10.047q0-1.586-.656-2.485-.649-.906-1.79-.906-1.14 0-1.796.906-.649.899-.649 2.485 0 1.586.649 2.492.656.898 1.797.898 1.14 0 1.789-.898.656-.906.656-2.492zm-4.89-3.055q.452-.781 1.14-1.156.695-.383 1.656-.383 1.594 0 2.586 1.266 1 1.265 1 3.328 0 2.062-1 3.328-.992 1.266-2.586 1.266-.96 0-1.656-.375-.688-.383-1.14-1.164v1.312h-1.446V2.258h1.445z" /></g><g transform="translate(110, 0) scale(0.75, 0.75)" fill="#e5e5e5" stroke="#e5e5e5"><path d="M25.96 6v1.344q-.608-.336-1.226-.5-.609-.172-1.234-.172-1.398 0-2.172.89-.773.883-.773 2.485 0 1.601.773 2.492.774.883 2.172.883.625 0 1.234-.164.618-.172 1.227-.508v1.328q-.602.281-1.25.422-.64.14-1.367.14-1.977 0-3.14-1.242-1.165-1.242-1.165-3.351 0-2.14 1.172-3.367 1.18-1.227 3.227-1.227.664 0 1.296.14.633.134 1.227.407z" /></g><g transform="translate(110, 375) scale(0.75, 0.75)" fill="#e5e5e5" stroke="#e5e5e5"><path d="M25.96 6v1.344q-.608-.336-1.226-.5-.609-.172-1.234-.172-1.398 0-2.172.89-.773.883-.773 2.485 0 1.601.773 2.492.774.883 2.172.883.625 0 1.234-.164.618-.172 1.227-.508v1.328q-.602.281-1.25.422-.64.14-1.367.14-1.977 0-3.14-1.242-1.165-1.242-1.165-3.351 0-2.14 1.172-3.367 1.18-1.227 3.227-1.227.664 0 1.296.14.633.134 1.227.407z" /></g><g transform="translate(155, 0) scale(0.75, 0.75)" fill="#e5e5e5" stroke="#e5e5e5"><path d="M24.973 6.992V2.258h1.437v12.156h-1.437v-1.312q-.453.78-1.149 1.164-.687.375-1.656.375-1.586 0-2.586-1.266-.992-1.266-.992-3.328 0-2.063.992-3.328 1-1.266 2.586-1.266.969 0 1.656.383.696.375 1.149 1.156zm-4.899 3.055q0 1.586.649 2.492.656.898 1.797.898 1.14 0 1.796-.898.657-.906.657-2.492 0-1.586-.657-2.485-.656-.906-1.796-.906-1.141 0-1.797.906-.649.899-.649 2.485z" /></g><g transform="translate(155, 375) scale(0.75, 0.75)" fill="#e5e5e5" stroke="#e5e5e5"><path d="M24.973 6.992V2.258h1.437v12.156h-1.437v-1.312q-.453.78-1.149 1.164-.687.375-1.656.375-1.586 0-2.586-1.266-.992-1.266-.992-3.328 0-2.063.992-3.328 1-1.266 2.586-1.266.969 0 1.656.383.696.375 1.149 1.156zm-4.899 3.055q0 1.586.649 2.492.656.898 1.797.898 1.14 0 1.796-.898.657-.906.657-2.492 0-1.586-.657-2.485-.656-.906-1.796-.906-1.141 0-1.797.906-.649.899-.649 2.485z" /></g><g transform="translate(200, 0) scale(0.75, 0.75)" fill="#e5e5e5" stroke="#e5e5e5"><path d="M26.555 9.68v.703h-6.61q.094 1.484.89 2.265.806.774 2.235.774.828 0 1.602-.203.781-.203 1.547-.61v1.36q-.774.328-1.586.5-.813.172-1.649.172-2.093 0-3.32-1.22-1.219-1.218-1.219-3.296 0-2.148 1.157-3.406 1.164-1.266 3.132-1.266 1.766 0 2.79 1.14 1.03 1.134 1.03 3.087zm-1.438-.422q-.015-1.18-.664-1.883-.64-.703-1.703-.703-1.203 0-1.93.68-.718.68-.828 1.914z" /></g><g transform="translate(200, 375) scale(0.75, 0.75)" fill="#e5e5e5" stroke="#e5e5e5"><path d="M26.555 9.68v.703h-6.61q.094 1.484.89 2.265.806.774 2.235.774.828 0 1.602-.203.781-.203 1.547-.61v1.36q-.774.328-1.586.5-.813.172-1.649.172-2.093 0-3.32-1.22-1.219-1.218-1.219-3.296 0-2.148 1.157-3.406 1.164-1.266 3.132-1.266 1.766 0 2.79 1.14 1.03 1.134 1.03 3.087zm-1.438-.422q-.015-1.18-.664-1.883-.64-.703-1.703-.703-1.203 0-1.93.68-.718.68-.828 1.914z" /></g><g transform="translate(245, 0) scale(0.75, 0.75)" fill="#e5e5e5" stroke="#e5e5e5"><path d="M25.285 2.258v1.195H23.91q-.773 0-1.078.313-.297.312-.297 1.125v.773h2.367v1.117h-2.367v7.633H21.09V6.781h-1.375V5.664h1.375v-.61q0-1.46.68-2.124.68-.672 2.156-.672z" /></g><g transform="translate(245, 375) scale(0.75, 0.75)" fill="#e5e5e5" stroke="#e5e5e5"><path d="M25.285 2.258v1.195H23.91q-.773 0-1.078.313-.297.312-.297 1.125v.773h2.367v1.117h-2.367v7.633H21.09V6.781h-1.375V5.664h1.375v-.61q0-1.46.68-2.124.68-.672 2.156-.672z" /></g><g transform="translate(290, 0) scale(0.75, 0.75)" fill="#e5e5e5" stroke="#e5e5e5"><path d="M24.973 9.937q0-1.562-.649-2.421-.64-.86-1.804-.86-1.157 0-1.805.86-.64.859-.64 2.421 0 1.555.64 2.415.648.859 1.805.859 1.164 0 1.804-.86.649-.859.649-2.414zm1.437 3.391q0 2.234-.992 3.32-.992 1.094-3.04 1.094-.757 0-1.429-.117-.672-.11-1.304-.344v-1.398q.632.344 1.25.508.617.164 1.257.164 1.414 0 2.118-.743.703-.734.703-2.226v-.711q-.446.773-1.141 1.156-.695.383-1.664.383-1.61 0-2.594-1.227-.984-1.226-.984-3.25 0-2.03.984-3.257.985-1.227 2.594-1.227.969 0 1.664.383t1.14 1.156V5.664h1.438z" /></g><g transform="translate(290, 375) scale(0.75, 0.75)" fill="#e5e5e5" stroke="#e5e5e5"><path d="M24.973 9.937q0-1.562-.649-2.421-.64-.86-1.804-.86-1.157 0-1.805.86-.64.859-.64 2.421 0 1.555.64 2.415.648.859 1.805.859 1.164 0 1.804-.86.649-.859.649-2.414zm1.437 3.391q0 2.234-.992 3.32-.992 1.094-3.04 1.094-.757 0-1.429-.117-.672-.11-1.304-.344v-1.398q.632.344 1.25.508.617.164 1.257.164 1.414 0 2.118-.743.703-.734.703-2.226v-.711q-.446.773-1.141 1.156-.695.383-1.664.383-1.61 0-2.594-1.227-.984-1.226-.984-3.25 0-2.03.984-3.257.985-1.227 2.594-1.227.969 0 1.664.383t1.14 1.156V5.664h1.438z" /></g><g transform="translate(335, 0) scale(0.75, 0.75)" fill="#e5e5e5" stroke="#e5e5e5"><path d="M26.164 9.133v5.281h-1.437V9.18q0-1.243-.485-1.86-.484-.617-1.453-.617-1.164 0-1.836.742-.672.742-.672 2.024v4.945h-1.445V2.258h1.445v4.765q.516-.789 1.211-1.18.703-.39 1.617-.39 1.508 0 2.282.938.773.93.773 2.742z" /></g><g transform="translate(335, 375) scale(0.75, 0.75)" fill="#e5e5e5" stroke="#e5e5e5"><path d="M26.164 9.133v5.281h-1.437V9.18q0-1.243-.485-1.86-.484-.617-1.453-.617-1.164 0-1.836.742-.672.742-.672 2.024v4.945h-1.445V2.258h1.445v4.765q.516-.789 1.211-1.18.703-.39 1.617-.39 1.508 0 2.282.938.773.93.773 2.742z" /></g><g transform="translate(0, 335) scale(0.75, 0.75)" fill="#e5e5e5" stroke="#e5e5e5"><path d="M6.754 26.996h2.578v-8.898l-2.805.562v-1.437l2.79-.563h1.578v10.336h2.578v1.328h-6.72z" /></g><g transform="translate(375, 335) scale(0.75, 0.75)" fill="#e5e5e5" stroke="#e5e5e5"><path d="M6.754 26.996h2.578v-8.898l-2.805.562v-1.437l2.79-.563h1.578v10.336h2.578v1.328h-6.72z" /></g><g transform="translate(0, 290) scale(0.75, 0.75)" fill="#e5e5e5" stroke="#e5e5e5"><path d="M8.195 26.996h5.508v1.328H6.297v-1.328q.898-.93 2.445-2.492 1.555-1.57 1.953-2.024.758-.851 1.055-1.437.305-.594.305-1.164 0-.93-.657-1.516-.648-.586-1.695-.586-.742 0-1.57.258-.82.258-1.758.781v-1.593q.953-.383 1.781-.578.828-.196 1.516-.196 1.812 0 2.89.906 1.079.907 1.079 2.422 0 .72-.274 1.368-.265.64-.976 1.515-.196.227-1.243 1.313-1.046 1.078-2.953 3.023z" /></g><g transform="translate(375, 290) scale(0.75, 0.75)" fill="#e5e5e5" stroke="#e5e5e5"><path d="M8.195 26.996h5.508v1.328H6.297v-1.328q.898-.93 2.445-2.492 1.555-1.57 1.953-2.024.758-.851 1.055-1.437.305-.594.305-1.164 0-.93-.657-1.516-.648-.586-1.695-.586-.742 0-1.57.258-.82.258-1.758.781v-1.593q.953-.383 1.781-.578.828-.196 1.516-.196 1.812 0 2.89.906 1.079.907 1.079 2.422 0 .72-.274 1.368-.265.64-.976 1.515-.196.227-1.243 1.313-1.046 1.078-2.953 3.023z" /></g><g transform="translate(0, 245) scale(0.75, 0.75)" fill="#e5e5e5" stroke="#e5e5e5"><path d="M11.434 22.035q1.132.242 1.765 1.008.64.766.64 1.89 0 1.727-1.187 2.672-1.187.946-3.375.946-.734 0-1.515-.149-.774-.14-1.602-.43V26.45q.656.383 1.438.578.78.196 1.632.196 1.485 0 2.258-.586.782-.586.782-1.703 0-1.032-.727-1.61-.719-.586-2.008-.586h-1.36v-1.297h1.423q1.164 0 1.78-.46.618-.47.618-1.344 0-.899-.64-1.375-.633-.485-1.82-.485-.65 0-1.391.141-.743.14-1.633.437V16.95q.898-.25 1.68-.375.788-.125 1.484-.125 1.797 0 2.844.82 1.046.813 1.046 2.204 0 .968-.554 1.64-.555.664-1.578.922z" /></g><g transform="translate(375, 245) scale(0.75, 0.75)" fill="#e5e5e5" stroke="#e5e5e5"><path d="M11.434 22.035q1.132.242 1.765 1.008.64.766.64 1.89 0 1.727-1.187 2.672-1.187.946-3.375.946-.734 0-1.515-.149-.774-.14-1.602-.43V26.45q.656.383 1.438.578.78.196 1.632.196 1.485 0 2.258-.586.782-.586.782-1.703 0-1.032-.727-1.61-.719-.586-2.008-.586h-1.36v-1.297h1.423q1.164 0 1.78-.46.618-.47.618-1.344 0-.899-.64-1.375-.633-.485-1.82-.485-.65 0-1.391.141-.743.14-1.633.437V16.95q.898-.25 1.68-.375.788-.125 1.484-.125 1.797 0 2.844.82 1.046.813 1.046 2.204 0 .968-.554 1.64-.555.664-1.578.922z" /></g><g transform="translate(0, 200) scale(0.75, 0.75)" fill="#e5e5e5" stroke="#e5e5e5"><path d="M11.016 18.035L7.03 24.262h3.985zm-.414-1.375h1.984v7.602h1.664v1.312h-1.664v2.75h-1.57v-2.75H5.75v-1.523z" /></g><g transform="translate(375, 200) scale(0.75, 0.75)" fill="#e5e5e5" stroke="#e5e5e5"><path d="M11.016 18.035L7.03 24.262h3.985zm-.414-1.375h1.984v7.602h1.664v1.312h-1.664v2.75h-1.57v-2.75H5.75v-1.523z" /></g><g transform="translate(0, 155) scale(0.75, 0.75)" fill="#e5e5e5" stroke="#e5e5e5"><path d="M6.719 16.66h6.195v1.328h-4.75v2.86q.344-.118.688-.172.343-.063.687-.063 1.953 0 3.094 1.07 1.14 1.07 1.14 2.899 0 1.883-1.171 2.93-1.172 1.039-3.305 1.039-.735 0-1.5-.125-.758-.125-1.57-.375v-1.586q.703.383 1.453.57.75.188 1.586.188 1.351 0 2.14-.711.79-.711.79-1.93 0-1.219-.79-1.93-.789-.71-2.14-.71-.633 0-1.266.14-.625.14-1.281.438z" /></g><g transform="translate(375, 155) scale(0.75, 0.75)" fill="#e5e5e5" stroke="#e5e5e5"><path d="M6.719 16.66h6.195v1.328h-4.75v2.86q.344-.118.688-.172.343-.063.687-.063 1.953 0 3.094 1.07 1.14 1.07 1.14 2.899 0 1.883-1.171 2.93-1.172 1.039-3.305 1.039-.735 0-1.5-.125-.758-.125-1.57-.375v-1.586q.703.383 1.453.57.75.188 1.586.188 1.351 0 2.14-.711.79-.711.79-1.93 0-1.219-.79-1.93-.789-.71-2.14-.71-.633 0-1.266.14-.625.14-1.281.438z" /></g><g transform="translate(0, 110) scale(0.75, 0.75)" fill="#e5e5e5" stroke="#e5e5e5"><path d="M10.137 21.863q-1.063 0-1.688.727-.617.726-.617 1.992 0 1.258.617 1.992.625.727 1.688.727 1.062 0 1.68-.727.624-.734.624-1.992 0-1.266-.625-1.992-.617-.727-1.68-.727zm3.133-4.945v1.437q-.594-.28-1.204-.43-.601-.148-1.195-.148-1.562 0-2.39 1.055-.82 1.055-.938 3.188.46-.68 1.156-1.04.696-.367 1.531-.367 1.758 0 2.774 1.07 1.023 1.063 1.023 2.899 0 1.797-1.062 2.883-1.063 1.086-2.828 1.086-2.024 0-3.094-1.547-1.07-1.555-1.07-4.5 0-2.766 1.312-4.406 1.313-1.649 3.524-1.649.593 0 1.195.117.61.118 1.266.352z" /></g><g transform="translate(375, 110) scale(0.75, 0.75)" fill="#e5e5e5" stroke="#e5e5e5"><path d="M10.137 21.863q-1.063 0-1.688.727-.617.726-.617 1.992 0 1.258.617 1.992.625.727 1.688.727 1.062 0 1.68-.727.624-.734.624-1.992 0-1.266-.625-1.992-.617-.727-1.68-.727zm3.133-4.945v1.437q-.594-.28-1.204-.43-.601-.148-1.195-.148-1.562 0-2.39 1.055-.82 1.055-.938 3.188.46-.68 1.156-1.04.696-.367 1.531-.367 1.758 0 2.774 1.07 1.023 1.063 1.023 2.899 0 1.797-1.062 2.883-1.063 1.086-2.828 1.086-2.024 0-3.094-1.547-1.07-1.555-1.07-4.5 0-2.766 1.312-4.406 1.313-1.649 3.524-1.649.593 0 1.195.117.61.118 1.266.352z" /></g><g transform="translate(0, 65) scale(0.75, 0.75)" fill="#e5e5e5" stroke="#e5e5e5"><path d="M6.25 16.66h7.5v.672L9.516 28.324H7.867l3.985-10.336H6.25z" /></g><g transform="translate(375, 65) scale(0.75, 0.75)" fill="#e5e5e5" stroke="#e5e5e5"><path d="M6.25 16.66h7.5v.672L9.516 28.324H7.867l3.985-10.336H6.25z" /></g><g transform="translate(0, 20) scale(0.75, 0.75)" fill="#e5e5e5" stroke="#e5e5e5"><path d="M10 22.785q-1.125 0-1.773.602-.641.601-.641 1.656t.64 1.656q.649.602 1.774.602t1.773-.602q.649-.61.649-1.656 0-1.055-.649-1.656-.64-.602-1.773-.602zm-1.578-.672q-1.016-.25-1.586-.945-.563-.695-.563-1.695 0-1.399.993-2.211 1-.813 2.734-.813 1.742 0 2.734.813.993.812.993 2.21 0 1-.57 1.696-.563.695-1.571.945 1.14.266 1.773 1.04.641.773.641 1.89 0 1.695-1.04 2.602-1.03.906-2.96.906t-2.969-.906Q6 26.738 6 25.043q0-1.117.64-1.89.641-.774 1.782-1.04zm-.578-2.492q0 .906.562 1.414.57.508 1.594.508 1.016 0 1.586-.508.578-.508.578-1.414 0-.906-.578-1.414-.57-.508-1.586-.508-1.023 0-1.594.508-.562.508-.562 1.414z" /></g><g transform="translate(375, 20) scale(0.75, 0.75)" fill="#e5e5e5" stroke="#e5e5e5"><path d="M10 22.785q-1.125 0-1.773.602-.641.601-.641 1.656t.64 1.656q.649.602 1.774.602t1.773-.602q.649-.61.649-1.656 0-1.055-.649-1.656-.64-.602-1.773-.602zm-1.578-.672q-1.016-.25-1.586-.945-.563-.695-.563-1.695 0-1.399.993-2.211 1-.813 2.734-.813 1.742 0 2.734.813.993.812.993 2.21 0 1-.57 1.696-.563.695-1.571.945 1.14.266 1.773 1.04.641.773.641 1.89 0 1.695-1.04 2.602-1.03.906-2.96.906t-2.969-.906Q6 26.738 6 25.043q0-1.117.64-1.89.641-.774 1.782-1.04zm-.578-2.492q0 .906.562 1.414.57.508 1.594.508 1.016 0 1.586-.508.578-.508.578-1.414 0-.906-.578-1.414-.57-.508-1.586-.508-1.023 0-1.594.508-.562.508-.562 1.414z" /></g></svg>