<svg id="Layer_1" data-name="Layer 1" xmlns="http://www.w3.org/2000/svg" viewBox="0 0 512 512"><title>gas-pump-solid</title><path d="M336,448H16A16,16,0,0,0,0,464v32a16,16,0,0,0,16,16H336a16,16,0,0,0,16-16V464A16,16,0,0,0,336,448ZM493.2,107.3l-81-81a16.06,16.06,0,0,0-22.6,0L378.3,37.6a16.06,16.06,0,0,0,0,22.6L416,97.9V160a55.91,55.91,0,0,0,48,55.2V376a24,24,0,0,1-48,0V344a88,88,0,0,0-88-88h-8V64A64.06,64.06,0,0,0,256,0H96A64.06,64.06,0,0,0,32,64V416H320V304h8a40,40,0,0,1,40,40v27.8c0,37.7,27,72,64.5,75.9A72.2,72.2,0,0,0,512,376V152.6a64.12,64.12,0,0,0-18.8-45.3ZM256,192H96V64H256Z" style="fill:#fff"/></svg>