<svg id="Layer_1" data-name="Layer 1" xmlns="http://www.w3.org/2000/svg" viewBox="0 0 576 512"><title>water-solid</title><path d="M562.1,383.9c-21.5-2.4-42.1-10.5-57.9-22.9a38.77,38.77,0,0,0-48.2,0c-37.9,30.4-107.2,30.4-145.7-1.5-13.5-11.2-33-9.1-46.7,1.8-38,30.1-106.9,30-145.2-1.7-13.5-11.2-33.3-8.9-47.1,2-15.5,12.2-36,20.1-57.7,22.4C5.7,384.8,0,391.8,0,399.7v32.2c0,9.1,7.6,16.8,16.7,16,28.8-2.5,56.1-11.4,79.4-25.9,56.5,34.6,137,34.1,192,0,56.5,34.6,137,34.1,192,0a184.87,184.87,0,0,0,79.1,25.8c9.1.8,16.7-6.9,16.7-16V400.2C576,392.2,570.2,384.8,562.1,383.9Zm0-144c-21.5-2.4-42.1-10.5-57.9-22.9a38.77,38.77,0,0,0-48.2,0c-37.9,30.4-107.2,30.4-145.7-1.5-13.5-11.2-33-9.1-46.7,1.8-38,30.1-106.9,30-145.2-1.7-13.5-11.2-33.3-8.9-47.1,2-15.5,12.2-36,20.1-57.7,22.4C5.7,240.8,0,247.8,0,255.7v32.2c0,9.1,7.6,16.8,16.7,16,28.8-2.5,56.1-11.4,79.4-25.9,56.5,34.6,137,34.1,192,0,56.5,34.6,137,34.1,192,0a184.87,184.87,0,0,0,79.1,25.8c9.1.8,16.7-6.9,16.7-16V256.2c.1-8-5.7-15.4-13.8-16.3Zm0-144C540.6,93.4,520,85.4,504.2,73A38.77,38.77,0,0,0,456,73c-37.9,30.4-107.2,30.4-145.7-1.5-13.5-11.2-33-9.1-46.7,1.8-38,30.1-106.9,30-145.2-1.7-13.5-11.2-33.3-8.9-47.1,2C55.8,85.8,35.3,93.7,13.6,96,5.7,96.8,0,103.8,0,111.7v32.2c0,9.1,7.6,16.8,16.7,16,28.8-2.5,56.1-11.4,79.4-25.9,56.5,34.6,137,34.1,192,0,56.5,34.6,137,34.1,192,0a184.87,184.87,0,0,0,79.1,25.8c9.1.8,16.7-6.9,16.7-16V112.2c.1-8-5.7-15.4-13.8-16.3Z" style="fill:#fff"/></svg>