<?xml version="1.0" standalone="no"?>
<!DOCTYPE svg PUBLIC "-//W3C//DTD SVG 20010904//EN"
 "http://www.w3.org/TR/2001/REC-SVG-20010904/DTD/svg10.dtd">
<svg version="1.0" xmlns="http://www.w3.org/2000/svg"
 width="2594.000000pt" height="2594.000000pt" viewBox="0 0 2594.000000 2594.000000"
 preserveAspectRatio="xMidYMid meet">
<metadata>
Created by potrace 1.11, written by Peter Selinger 2001-2013
</metadata>
<g transform="translate(0.000000,2594.000000) scale(0.100000,-0.100000)"
fill="#000000" stroke="none">
<path d="M10505 25203 c-12 -50 -20 -311 -18 -640 1 -238 -2 -323 -10 -323
-33 0 -433 -131 -522 -170 -11 -5 -69 -30 -130 -55 -151 -63 -394 -190 -551
-288 -122 -75 -131 -83 -123 -104 5 -13 55 -103 113 -201 57 -97 113 -193 124
-212 66 -117 349 -603 372 -640 15 -25 39 -65 53 -90 14 -25 46 -81 71 -125
25 -44 46 -82 46 -85 0 -5 -134 -84 -190 -113 -8 -4 -31 -17 -51 -30 -20 -12
-92 -55 -160 -95 -231 -137 -580 -362 -734 -475 -16 -12 -61 -45 -100 -74 -87
-64 -110 -90 -146 -167 -36 -77 -88 -278 -105 -401 -1 -11 -5 -35 -8 -52 -3
-18 -8 -45 -10 -60 -3 -16 -7 -46 -11 -68 -7 -49 -13 -96 -21 -155 -3 -25 -7
-56 -9 -70 -3 -14 -7 -50 -11 -80 -6 -53 -8 -65 -18 -120 -3 -14 -8 -42 -11
-63 -20 -141 -55 -213 -166 -344 -56 -66 -59 -70 -189 -233 -63 -80 -119 -150
-125 -156 -5 -6 -21 -26 -35 -44 -21 -29 -125 -161 -218 -279 -15 -19 -105
-136 -200 -260 -95 -124 -178 -233 -185 -241 -7 -8 -35 -46 -62 -85 -27 -38
-52 -72 -55 -75 -11 -9 -237 -325 -374 -520 -75 -107 -139 -199 -144 -205 -14
-18 -365 -552 -447 -681 -44 -69 -146 -225 -226 -348 -127 -192 -247 -396
-233 -396 3 0 -1 -10 -7 -22 -13 -24 -36 -102 -47 -158 -4 -19 -7 -91 -7 -160
1 -120 17 -208 54 -295 5 -11 19 -47 32 -80 29 -77 131 -285 158 -324 12 -16
21 -32 21 -36 0 -24 177 -249 271 -345 121 -124 289 -248 444 -331 110 -58
243 -114 307 -129 29 -7 78 -21 108 -31 63 -21 143 -40 240 -55 19 -3 42 -7
50 -9 8 -2 42 -7 75 -10 33 -3 76 -8 95 -11 19 -3 92 -7 162 -9 123 -5 128 -4
139 17 22 42 198 272 254 334 6 6 30 35 55 64 171 203 522 559 770 780 46 41
91 82 100 90 50 47 148 129 165 138 14 7 62 8 135 4 168 -9 693 -8 850 2 74 5
153 9 175 11 22 1 65 5 95 9 30 4 71 9 90 11 67 8 145 17 165 20 11 2 40 6 65
9 25 3 56 8 70 11 14 2 39 7 55 10 17 3 41 7 55 10 14 3 57 12 95 20 39 8 99
21 135 30 36 9 73 18 82 20 198 46 545 177 738 278 126 67 396 238 420 266 3
3 25 22 50 41 67 51 94 75 209 190 121 120 141 142 240 268 40 51 75 92 77 92
13 0 -14 -96 -42 -150 -29 -56 -42 -112 -46 -190 -1 -13 -34 -216 -43 -265
-45 -231 -177 -644 -275 -860 -10 -22 -29 -67 -43 -100 -14 -33 -48 -106 -76
-162 -28 -57 -51 -104 -51 -106 0 -2 -23 -46 -51 -98 -28 -52 -64 -119 -81
-149 -30 -57 -32 -61 -85 -147 -18 -30 -33 -56 -33 -58 0 -18 -313 -496 -448
-684 -125 -174 -406 -542 -473 -619 -13 -15 -80 -95 -149 -177 -68 -83 -127
-152 -130 -155 -3 -3 -35 -39 -70 -80 -36 -41 -74 -84 -85 -96 -11 -12 -49
-54 -85 -95 -65 -73 -128 -142 -250 -273 -65 -69 -257 -268 -485 -501 -176
-180 -337 -352 -425 -455 -199 -234 -297 -357 -448 -565 -56 -77 -106 -144
-110 -150 -23 -29 -249 -378 -272 -420 -10 -16 -55 -95 -101 -175 -46 -80
-104 -186 -129 -235 -25 -50 -48 -91 -52 -93 -5 -2 -8 -7 -8 -12 0 -4 -26 -63
-59 -131 -106 -223 -223 -505 -273 -654 -10 -33 -24 -69 -29 -80 -27 -59 -166
-540 -185 -638 -4 -25 -12 -61 -20 -97 -24 -105 -29 -131 -39 -200 -3 -25 -8
-51 -11 -59 -3 -8 -7 -28 -9 -45 -2 -17 -11 -78 -19 -136 -9 -58 -18 -136 -22
-175 -3 -38 -7 -81 -10 -95 -2 -13 -6 -85 -10 -160 -4 -74 -7 -136 -8 -136 0
-1 -57 -4 -126 -7 -156 -7 -240 -26 -357 -82 -156 -76 -259 -202 -303 -370
-19 -72 -21 -731 -3 -841 7 -43 18 -90 24 -104 39 -89 62 -122 129 -190 87
-88 174 -135 310 -168 105 -26 146 -30 334 -32 l149 -2 39 -46 c46 -56 99
-147 129 -222 12 -30 25 -64 29 -75 33 -85 45 -181 44 -360 0 -104 -6 -176
-18 -235 -10 -47 -20 -95 -22 -107 -11 -56 -80 -237 -121 -315 -63 -119 -91
-150 -175 -193 -248 -128 -568 -317 -673 -398 -5 -4 -48 -35 -95 -69 -47 -33
-99 -73 -115 -87 -17 -14 -51 -42 -75 -61 -73 -57 -303 -290 -364 -368 -73
-92 -146 -211 -188 -301 -31 -68 -34 -71 -68 -72 -19 0 -44 -2 -55 -4 -11 -2
-40 -7 -65 -10 -164 -23 -336 -100 -448 -200 -98 -88 -164 -202 -201 -342 -20
-80 -21 -101 -21 -768 l0 -685 7590 0 7590 0 0 38 c3 769 -2 1432 -11 1466
-53 207 -142 323 -319 419 -126 68 -245 94 -459 101 l-44 1 -46 85 c-25 47
-55 99 -65 115 -11 17 -31 48 -45 70 -133 208 -430 484 -769 715 -57 38 -105
70 -107 70 -2 0 -47 27 -100 60 -53 33 -99 60 -102 60 -3 0 -17 8 -31 19 -25
16 -111 63 -279 151 -74 39 -101 66 -144 145 -90 166 -146 312 -164 432 -2 11
-6 29 -9 40 -20 68 -24 318 -5 416 23 127 74 271 119 337 9 14 35 52 56 85 65
100 48 93 234 96 161 3 275 17 355 44 231 78 370 231 413 455 9 45 9 738 0
805 -7 55 -46 168 -59 173 -5 2 -9 8 -9 14 0 10 -55 83 -85 114 -40 41 -185
129 -230 139 -5 1 -17 5 -25 8 -8 4 -26 9 -40 11 -14 3 -36 8 -50 11 -14 3
-77 8 -140 11 -63 3 -120 7 -126 9 -7 2 -11 18 -9 37 2 18 6 65 10 103 7 81 9
94 30 239 16 105 19 123 30 176 2 14 6 36 9 50 2 14 16 81 30 150 14 69 28
134 30 145 3 11 21 85 41 165 21 80 38 150 40 155 22 110 323 1071 365 1170
11 25 140 395 145 415 2 8 12 40 23 70 11 30 43 123 72 205 28 83 54 157 57
165 4 8 7 17 8 20 1 3 4 12 8 20 10 27 149 424 153 440 2 8 57 175 123 370 65
195 131 396 146 445 15 50 35 115 45 145 24 72 121 399 125 419 2 9 4 16 5 16
1 0 3 7 5 15 1 8 19 74 40 145 20 72 38 137 40 145 2 8 8 35 15 60 7 25 14 52
15 60 2 8 11 40 19 72 8 31 17 67 20 80 2 12 13 59 25 103 24 96 107 475 115
526 3 20 8 42 10 50 3 8 7 30 10 49 3 19 12 71 21 114 16 82 22 117 29 164 10
63 19 118 21 132 9 50 16 100 19 130 2 19 6 49 9 65 3 17 9 57 12 90 4 33 9
69 10 80 5 33 15 117 20 175 3 30 7 75 10 100 4 43 14 158 21 245 29 400 24
1082 -11 1395 -2 25 -7 77 -10 115 -6 67 -41 348 -49 390 -2 11 -7 43 -11 70
-11 76 -12 83 -30 185 -9 52 -18 97 -20 100 -2 3 -6 26 -10 50 -3 25 -8 53
-11 62 -5 18 -11 45 -20 93 -3 17 -14 66 -25 110 -12 44 -23 88 -25 98 -2 10
-6 27 -9 37 -3 10 -7 27 -9 37 -29 142 -228 771 -285 898 -5 11 -24 58 -42
105 -36 95 -137 332 -194 455 -111 242 -383 758 -446 847 -11 14 -19 29 -19
32 0 4 -19 37 -42 74 -24 36 -47 74 -53 84 -5 10 -38 62 -73 115 -35 54 -68
107 -75 117 -7 11 -15 25 -20 30 -4 6 -53 76 -108 156 -191 274 -519 689 -648
821 -9 9 -54 59 -101 110 -260 286 -740 728 -1010 929 -40 30 -141 106 -155
117 -34 27 -286 200 -365 252 -52 33 -99 64 -105 69 -24 18 -312 186 -435 253
-577 317 -1252 579 -1900 739 -91 22 -181 44 -200 50 -75 19 -518 104 -600
114 -19 3 -48 7 -65 10 -16 2 -50 7 -75 10 -25 3 -54 8 -66 10 -11 2 -45 7
-75 10 -30 4 -67 8 -84 10 -16 2 -61 7 -100 11 -38 3 -86 8 -105 10 -19 2 -73
7 -120 10 -47 4 -94 12 -105 18 -11 6 -21 10 -23 9 -3 -3 -81 36 -162 80 -36
19 -132 70 -215 113 -82 43 -204 106 -270 140 -199 104 -463 240 -585 302 -63
32 -117 61 -120 64 -11 13 -208 88 -360 138 -30 10 -62 22 -71 25 -12 5 -18 0
-24 -21z"/>
</g>
</svg>
