<?xml version="1.0" standalone="no"?>
<svg xmlns:xlink="http://www.w3.org/1999/xlink" xmlns="http://www.w3.org/2000/svg" id="d3entropyParent" width="1007" height="150" style="pointer-events: auto;"><g id="d3entropy"><g class="main" transform="translate(15,0)"><g clip-path="url(#clip)"><rect class="bar" id="F63" x="308.7735849056604" y="48.58901231605366" width="2" height="1.4109876839463382" style="fill: rgb(136, 136, 136); "/><rect class="bar" id="F74" x="310.8490566037736" y="48.58901231605366" width="2" height="1.4109876839463382" style="fill: rgb(136, 136, 136); cursor: pointer;"/><rect class="bar" id="F95" x="314.811320754717" y="43.803923648757376" width="2" height="6.196076351242624" style="fill: rgb(136, 136, 136); cursor: pointer;"/><rect class="bar" id="F106" x="316.88679245283015" y="48.58901231605366" width="2" height="1.4109876839463382" style="fill: rgb(136, 136, 136); cursor: pointer;"/><rect class="bar" id="F132" x="321.7924528301887" y="48.58901231605366" width="2" height="1.4109876839463382" style="fill: rgb(136, 136, 136); cursor: pointer;"/><rect class="bar" id="F136" x="322.54716981132077" y="48.58901231605366" width="2" height="1.4109876839463382" style="fill: rgb(136, 136, 136); cursor: pointer;"/><rect class="bar" id="F141" x="323.49056603773585" y="47.484761085139134" width="2" height="2.5152389148608663" style="fill: rgb(136, 136, 136); cursor: pointer;"/><rect class="bar" id="F193" x="333.3018867924528" y="48.58901231605366" width="2" height="1.4109876839463382" style="fill: rgb(136, 136, 136); cursor: pointer;"/><rect class="bar" id="F273" x="348.3962264150943" y="48.58901231605366" width="2" height="1.4109876839463382" style="fill: rgb(136, 136, 136); cursor: pointer;"/><rect class="bar" id="F280" x="349.7169811320755" y="48.58901231605366" width="2" height="1.4109876839463382" style="fill: rgb(136, 136, 136); cursor: pointer;"/><rect class="bar" id="F294" x="352.35849056603774" y="48.58901231605366" width="2" height="1.4109876839463382" style="fill: rgb(136, 136, 136); cursor: pointer;"/><rect class="bar" id="F298" x="353.1132075471698" y="30.98233991202759" width="2" height="19.01766008797241" style="fill: rgb(136, 136, 136); cursor: pointer;"/><rect class="bar" id="F318" x="356.8867924528302" y="48.58901231605366" width="2" height="1.4109876839463382" style="fill: rgb(136, 136, 136); cursor: pointer;"/><rect class="bar" id="F344" x="361.79245283018867" y="48.58901231605366" width="2" height="1.4109876839463382" style="fill: rgb(136, 136, 136); cursor: pointer;"/><rect class="bar" id="F372" x="367.07547169811323" y="48.58901231605366" width="2" height="1.4109876839463382" style="fill: rgb(136, 136, 136); cursor: pointer;"/><rect class="bar" id="F376" x="367.8301886792453" y="48.58901231605366" width="2" height="1.4109876839463382" style="fill: rgb(136, 136, 136); cursor: pointer;"/><rect class="bar" id="F397" x="371.79245283018867" y="39.386918725099264" width="2" height="10.613081274900736" style="fill: rgb(136, 136, 136); cursor: pointer;"/><rect class="bar" id="F412" x="374.62264150943395" y="48.58901231605366" width="2" height="1.4109876839463382" style="fill: rgb(136, 136, 136); cursor: pointer;"/><rect class="bar" id="F451" x="381.9811320754717" y="48.58901231605366" width="2" height="1.4109876839463382" style="fill: rgb(136, 136, 136); cursor: pointer;"/><rect class="bar" id="F465" x="384.62264150943395" y="48.58901231605366" width="2" height="1.4109876839463382" style="fill: rgb(136, 136, 136); cursor: pointer;"/><rect class="bar" id="F479" x="387.2641509433962" y="48.58901231605366" width="2" height="1.4109876839463382" style="fill: rgb(136, 136, 136); cursor: pointer;"/><rect class="bar" id="F492" x="389.7169811320755" y="28.95787932201762" width="2" height="21.04212067798238" style="fill: rgb(136, 136, 136); cursor: pointer;"/><rect class="bar" id="I3" x="136.0062893081761" y="48.58901231605366" width="2" height="1.4109876839463382" style="fill: rgb(136, 136, 136); cursor: pointer;"/><rect class="bar" id="I7" x="136.76100628930817" y="48.58901231605366" width="2" height="1.4109876839463382" style="fill: rgb(136, 136, 136); cursor: pointer;"/><rect class="bar" id="I18" x="138.83647798742138" y="48.58901231605366" width="2" height="1.4109876839463382" style="fill: rgb(136, 136, 136); cursor: pointer;"/><rect class="bar" id="I27" x="140.53459119496853" y="38.71209852842928" width="2" height="11.28790147157072" style="fill: rgb(136, 136, 136); cursor: pointer;"/><rect class="bar" id="I52" x="145.25157232704404" y="48.58901231605366" width="2" height="1.4109876839463382" style="fill: rgb(136, 136, 136); cursor: pointer;"/><rect class="bar" id="I57" x="146.19496855345912" y="44.60143842664009" width="2" height="5.398561573359913" style="fill: rgb(136, 136, 136); cursor: pointer;"/><rect class="bar" id="I76" x="149.77987421383648" y="48.58901231605366" width="2" height="1.4109876839463382" style="fill: rgb(136, 136, 136); cursor: pointer;"/><rect class="bar" id="I80" x="150.53459119496856" y="47.484761085139134" width="2" height="2.5152389148608663" style="fill: rgb(136, 136, 136); cursor: pointer;"/><rect class="bar" id="I83" x="151.1006289308176" y="48.58901231605366" width="2" height="1.4109876839463382" style="fill: rgb(136, 136, 136); cursor: pointer;"/><rect class="bar" id="I85" x="151.47798742138366" y="48.58901231605366" width="2" height="1.4109876839463382" style="fill: rgb(136, 136, 136); cursor: pointer;"/><rect class="bar" id="I104" x="155.06289308176102" y="48.58901231605366" width="2" height="1.4109876839463382" style="fill: rgb(136, 136, 136); cursor: pointer;"/><rect class="bar" id="I114" x="156.9496855345912" y="45.52164778573553" width="2" height="4.4783522142644685" style="fill: rgb(136, 136, 136); cursor: pointer;"/><rect class="bar" id="I142" x="162.2327044025157" y="47.484761085139134" width="2" height="2.5152389148608663" style="fill: rgb(136, 136, 136); cursor: pointer;"/><rect class="bar" id="NC11" x="43.55345911949686" y="48.58901231605366" width="2" height="1.4109876839463382" style="fill: rgb(51, 51, 51); cursor: pointer;"/><rect class="bar" id="NC316" x="101.10062893081762" y="48.58901231605366" width="2" height="1.4109876839463382" style="fill: rgb(51, 51, 51); cursor: pointer;"/><rect class="bar" id="NC368" x="110.9119496855346" y="48.58901231605366" width="2" height="1.4109876839463382" style="fill: rgb(51, 51, 51); cursor: pointer;"/><rect class="bar" id="NC393" x="115.62893081761005" y="47.484761085139134" width="2" height="2.5152389148608663" style="fill: rgb(51, 51, 51); cursor: pointer;"/><rect class="bar" id="NC402" x="117.32704402515724" y="47.484761085139134" width="2" height="2.5152389148608663" style="fill: rgb(51, 51, 51); cursor: pointer;"/><rect class="bar" id="NC420" x="120.72327044025157" y="48.58901231605366" width="2" height="1.4109876839463382" style="fill: rgb(51, 51, 51); cursor: pointer;"/><rect class="bar" id="NC422" x="121.1006289308176" y="48.58901231605366" width="2" height="1.4109876839463382" style="fill: rgb(51, 51, 51); cursor: pointer;"/><rect class="bar" id="NC427" x="122.0440251572327" y="47.484761085139134" width="2" height="2.5152389148608663" style="fill: rgb(51, 51, 51); cursor: pointer;"/><rect class="bar" id="M4" x="217.0125786163522" y="47.484761085139134" width="2" height="2.5152389148608663" style="fill: rgb(51, 51, 51); cursor: pointer;"/><rect class="bar" id="M9" x="217.95597484276732" y="48.58901231605366" width="2" height="1.4109876839463382" style="fill: rgb(51, 51, 51); cursor: pointer;"/><rect class="bar" id="M20" x="220.0314465408805" y="48.58901231605366" width="2" height="1.4109876839463382" style="fill: rgb(51, 51, 51); cursor: pointer;"/><rect class="bar" id="M22" x="220.40880503144655" y="48.58901231605366" width="2" height="1.4109876839463382" style="fill: rgb(51, 51, 51); cursor: pointer;"/><rect class="bar" id="M23" x="220.59748427672955" y="48.58901231605366" width="2" height="1.4109876839463382" style="fill: rgb(51, 51, 51); cursor: pointer;"/><rect class="bar" id="M42" x="224.18238993710693" y="48.58901231605366" width="2" height="1.4109876839463382" style="fill: rgb(51, 51, 51); cursor: pointer;"/><rect class="bar" id="M179" x="250.0314465408805" y="48.58901231605366" width="2" height="1.4109876839463382" style="fill: rgb(51, 51, 51); cursor: pointer;"/><rect class="bar" id="M287" x="270.4088050314465" y="21.350815286828656" width="2" height="28.649184713171344" style="fill: rgb(51, 51, 51); cursor: pointer;"/><rect class="bar" id="M300" x="272.8616352201258" y="48.58901231605366" width="2" height="1.4109876839463382" style="fill: rgb(51, 51, 51); cursor: pointer;"/><rect class="bar" id="L15" x="544.4968553459119" y="47.484761085139134" width="2" height="2.5152389148608663" style="fill: rgb(51, 51, 51); cursor: pointer;"/><rect class="bar" id="L31" x="547.5157232704403" y="48.58901231605366" width="2" height="1.4109876839463382" style="fill: rgb(51, 51, 51); cursor: pointer;"/><rect class="bar" id="L50" x="551.1006289308176" y="47.484761085139134" width="2" height="2.5152389148608663" style="fill: rgb(51, 51, 51); cursor: pointer;"/><rect class="bar" id="L90" x="558.6477987421383" y="48.58901231605366" width="2" height="1.4109876839463382" style="fill: rgb(51, 51, 51); cursor: pointer;"/><rect class="bar" id="L114" x="563.1761006289308" y="48.58901231605366" width="2" height="1.4109876839463382" style="fill: rgb(51, 51, 51); cursor: pointer;"/><rect class="bar" id="L143" x="568.6477987421384" y="45.52164778573553" width="2" height="4.4783522142644685" style="fill: rgb(51, 51, 51); cursor: pointer;"/><rect class="bar" id="L178" x="575.2515723270441" y="8.65192613131159" width="2" height="41.34807386868841" style="fill: rgb(51, 51, 51); cursor: pointer;"/><rect class="bar" id="L195" x="578.4591194968554" y="47.484761085139134" width="2" height="2.5152389148608663" style="fill: rgb(51, 51, 51); cursor: pointer;"/><rect class="bar" id="L228" x="584.6855345911949" y="31.411770946272128" width="2" height="18.588229053727872" style="fill: rgb(51, 51, 51); cursor: pointer;"/><rect class="bar" id="L242" x="587.3270440251573" y="48.58901231605366" width="2" height="1.4109876839463382" style="fill: rgb(51, 51, 51); cursor: pointer;"/><rect class="bar" id="L291" x="596.5723270440252" y="34.54048276719662" width="2" height="15.459517232803378" style="fill: rgb(51, 51, 51); cursor: pointer;"/><rect class="bar" id="L324" x="602.7987421383648" y="48.58901231605366" width="2" height="1.4109876839463382" style="fill: rgb(51, 51, 51); cursor: pointer;"/><rect class="bar" id="L344" x="606.5723270440251" y="21.350815286828656" width="2" height="28.649184713171344" style="fill: rgb(51, 51, 51); cursor: pointer;"/><rect class="bar" id="L389" x="615.062893081761" y="48.58901231605366" width="2" height="1.4109876839463382" style="fill: rgb(51, 51, 51); cursor: pointer;"/><rect class="bar" id="L426" x="622.0440251572327" y="48.58901231605366" width="2" height="1.4109876839463382" style="fill: rgb(51, 51, 51); cursor: pointer;"/><rect class="bar" id="L455" x="627.5157232704403" y="48.58901231605366" width="2" height="1.4109876839463382" style="fill: rgb(51, 51, 51); cursor: pointer;"/><rect class="bar" id="L486" x="633.3647798742138" y="44.60143842664009" width="2" height="5.398561573359913" style="fill: rgb(51, 51, 51); cursor: pointer;"/><rect class="bar" id="L505" x="636.9496855345911" y="48.58901231605366" width="2" height="1.4109876839463382" style="fill: rgb(51, 51, 51); cursor: pointer;"/><rect class="bar" id="L508" x="637.5157232704403" y="48.58901231605366" width="2" height="1.4109876839463382" style="fill: rgb(51, 51, 51); cursor: pointer;"/><rect class="bar" id="L537" x="642.9874213836478" y="48.58901231605366" width="2" height="1.4109876839463382" style="fill: rgb(51, 51, 51); cursor: pointer;"/><rect class="bar" id="L542" x="643.930817610063" y="48.58901231605366" width="2" height="1.4109876839463382" style="fill: rgb(51, 51, 51); cursor: pointer;"/><rect class="bar" id="L545" x="644.496855345912" y="39.386918725099264" width="2" height="10.613081274900736" style="fill: rgb(51, 51, 51); cursor: pointer;"/><rect class="bar" id="L569" x="649.0251572327044" y="48.58901231605366" width="2" height="1.4109876839463382" style="fill: rgb(51, 51, 51); cursor: pointer;"/><rect class="bar" id="L580" x="651.1006289308176" y="48.58901231605366" width="2" height="1.4109876839463382" style="fill: rgb(51, 51, 51); cursor: pointer;"/><rect class="bar" id="L581" x="651.2893081761006" y="47.484761085139134" width="2" height="2.5152389148608663" style="fill: rgb(51, 51, 51); cursor: pointer;"/><rect class="bar" id="L618" x="658.2704402515723" y="8.34518967827978" width="2" height="41.65481032172022" style="fill: rgb(51, 51, 51); cursor: pointer;"/><rect class="bar" id="L664" x="666.9496855345911" y="48.58901231605366" width="2" height="1.4109876839463382" style="fill: rgb(51, 51, 51); cursor: pointer;"/><rect class="bar" id="L695" x="672.7987421383648" y="48.58901231605366" width="2" height="1.4109876839463382" style="fill: rgb(51, 51, 51); cursor: pointer;"/><rect class="bar" id="L696" x="672.9874213836478" y="48.58901231605366" width="2" height="1.4109876839463382" style="fill: rgb(51, 51, 51); cursor: pointer;"/><rect class="bar" id="L699" x="673.5534591194969" y="48.58901231605366" width="2" height="1.4109876839463382" style="fill: rgb(51, 51, 51); cursor: pointer;"/><rect class="bar" id="L721" x="677.7044025157232" y="48.58901231605366" width="2" height="1.4109876839463382" style="fill: rgb(51, 51, 51); cursor: pointer;"/><rect class="bar" id="L729" x="679.2138364779873" y="48.58901231605366" width="2" height="1.4109876839463382" style="fill: rgb(51, 51, 51); cursor: pointer;"/><rect class="bar" id="L734" x="680.1572327044025" y="48.58901231605366" width="2" height="1.4109876839463382" style="fill: rgb(51, 51, 51); cursor: pointer;"/><rect class="bar" id="L747" x="682.6100628930818" y="48.58901231605366" width="2" height="1.4109876839463382" style="fill: rgb(51, 51, 51); cursor: pointer;"/><rect class="bar" id="L764" x="685.8176100628931" y="48.58901231605366" width="2" height="1.4109876839463382" style="fill: rgb(51, 51, 51); cursor: pointer;"/><rect class="bar" id="L786" x="689.9685534591194" y="45.52164778573553" width="2" height="4.4783522142644685" style="fill: rgb(51, 51, 51); cursor: pointer;"/><rect class="bar" id="L806" x="693.7421383647799" y="48.58901231605366" width="2" height="1.4109876839463382" style="fill: rgb(51, 51, 51); cursor: pointer;"/><rect class="bar" id="L810" x="694.4968553459119" y="48.58901231605366" width="2" height="1.4109876839463382" style="fill: rgb(51, 51, 51); cursor: pointer;"/><rect class="bar" id="L849" x="701.8553459119497" y="48.58901231605366" width="2" height="1.4109876839463382" style="fill: rgb(51, 51, 51); cursor: pointer;"/><rect class="bar" id="L851" x="702.2327044025158" y="48.58901231605366" width="2" height="1.4109876839463382" style="fill: rgb(51, 51, 51); cursor: pointer;"/><rect class="bar" id="L852" x="702.4213836477987" y="48.58901231605366" width="2" height="1.4109876839463382" style="fill: rgb(51, 51, 51); cursor: pointer;"/><rect class="bar" id="L881" x="707.8930817610063" y="48.58901231605366" width="2" height="1.4109876839463382" style="fill: rgb(51, 51, 51); cursor: pointer;"/><rect class="bar" id="L883" x="708.2704402515723" y="48.58901231605366" width="2" height="1.4109876839463382" style="fill: rgb(51, 51, 51); cursor: pointer;"/><rect class="bar" id="L894" x="710.3459119496856" y="48.58901231605366" width="2" height="1.4109876839463382" style="fill: rgb(51, 51, 51); cursor: pointer;"/><rect class="bar" id="L1029" x="735.8176100628931" y="48.58901231605366" width="2" height="1.4109876839463382" style="fill: rgb(51, 51, 51); cursor: pointer;"/><rect class="bar" id="L1129" x="754.685534591195" y="48.58901231605366" width="2" height="1.4109876839463382" style="fill: rgb(51, 51, 51); cursor: pointer;"/><rect class="bar" id="L1147" x="758.0817610062893" y="46.44185714483097" width="2" height="3.558142855169031" style="fill: rgb(51, 51, 51); cursor: pointer;"/><rect class="bar" id="L1237" x="775.062893081761" y="48.58901231605366" width="2" height="1.4109876839463382" style="fill: rgb(51, 51, 51); cursor: pointer;"/><rect class="bar" id="L1264" x="780.1572327044025" y="18.038061594085075" width="2" height="31.961938405914925" style="fill: rgb(51, 51, 51); cursor: pointer;"/><rect class="bar" id="L1408" x="807.3270440251572" y="48.58901231605366" width="2" height="1.4109876839463382" style="fill: rgb(51, 51, 51); cursor: pointer;"/><rect class="bar" id="L1516" x="827.7044025157232" y="48.58901231605366" width="2" height="1.4109876839463382" style="fill: rgb(51, 51, 51); cursor: pointer;"/><rect class="bar" id="L1750" x="871.8553459119497" y="22.700455680168634" width="2" height="27.299544319831366" style="fill: rgb(51, 51, 51); cursor: pointer;"/><rect class="bar" id="L1756" x="872.9874213836478" y="48.58901231605366" width="2" height="1.4109876839463382" style="fill: rgb(51, 51, 51); cursor: pointer;"/><rect class="bar" id="L1869" x="894.3081761006289" y="38.71209852842928" width="2" height="11.28790147157072" style="fill: rgb(51, 51, 51); cursor: pointer;"/><rect class="bar" id="L1883" x="896.9496855345913" y="46.44185714483097" width="2" height="3.558142855169031" style="fill: rgb(51, 51, 51); cursor: pointer;"/><rect class="bar" id="L1947" x="909.0251572327044" y="48.58901231605366" width="2" height="1.4109876839463382" style="fill: rgb(51, 51, 51); cursor: pointer;"/><rect class="bar" id="L1968" x="912.9874213836478" y="48.58901231605366" width="2" height="1.4109876839463382" style="fill: rgb(51, 51, 51); cursor: pointer;"/><rect class="bar" id="L1991" x="917.3270440251573" y="48.58901231605366" width="2" height="1.4109876839463382" style="fill: rgb(51, 51, 51); cursor: pointer;"/><rect class="bar" id="L1994" x="917.8930817610063" y="48.58901231605366" width="2" height="1.4109876839463382" style="fill: rgb(51, 51, 51); cursor: pointer;"/><rect class="bar" id="L2050" x="928.4591194968552" y="46.44185714483097" width="2" height="3.558142855169031" style="fill: rgb(51, 51, 51); cursor: pointer;"/><rect class="bar" id="L2061" x="930.5345911949686" y="45.52164778573553" width="2" height="4.4783522142644685" style="fill: rgb(51, 51, 51); cursor: pointer;"/><rect class="bar" id="L2096" x="937.1383647798742" y="48.58901231605366" width="2" height="1.4109876839463382" style="fill: rgb(51, 51, 51); cursor: pointer;"/><rect class="bar" id="L2183" x="953.5534591194969" y="48.58901231605366" width="2" height="1.4109876839463382" style="fill: rgb(51, 51, 51); cursor: pointer;"/><rect class="bar" id="L2192" x="955.251572327044" y="48.58901231605366" width="2" height="1.4109876839463382" style="fill: rgb(51, 51, 51); cursor: pointer;"/><rect class="bar" id="L2238" x="963.9308176100628" y="48.58901231605366" width="2" height="1.4109876839463382" style="fill: rgb(51, 51, 51); cursor: pointer;"/><rect class="bar" id="L2240" x="964.3081761006289" y="48.58901231605366" width="2" height="1.4109876839463382" style="fill: rgb(51, 51, 51); cursor: pointer;"/><rect class="bar" id="L2244" x="965.062893081761" y="42.20889409299195" width="2" height="7.791105907008053" style="fill: rgb(51, 51, 51); cursor: pointer;"/><rect class="bar" id="L2246" x="965.440251572327" y="9.020009874949771" width="2" height="40.97999012505023" style="fill: rgb(51, 51, 51); cursor: pointer;"/><rect class="bar" id="L2260" x="968.0817610062893" y="48.58901231605366" width="2" height="1.4109876839463382" style="fill: rgb(51, 51, 51); cursor: pointer;"/><rect class="bar" id="P3" x="136.0062893081761" y="48.58901231605366" width="2" height="1.4109876839463382" style="fill: rgb(51, 51, 51); cursor: pointer;"/><rect class="bar" id="P7" x="136.76100628930817" y="48.58901231605366" width="2" height="1.4109876839463382" style="fill: rgb(51, 51, 51); cursor: pointer;"/><rect class="bar" id="P18" x="138.83647798742138" y="48.58901231605366" width="2" height="1.4109876839463382" style="fill: rgb(51, 51, 51); cursor: pointer;"/><rect class="bar" id="P27" x="140.53459119496853" y="38.71209852842928" width="2" height="11.28790147157072" style="fill: rgb(51, 51, 51); cursor: pointer;"/><rect class="bar" id="P52" x="145.25157232704404" y="48.58901231605366" width="2" height="1.4109876839463382" style="fill: rgb(51, 51, 51); cursor: pointer;"/><rect class="bar" id="P57" x="146.19496855345912" y="44.60143842664009" width="2" height="5.398561573359913" style="fill: rgb(51, 51, 51); cursor: pointer;"/><rect class="bar" id="P76" x="149.77987421383648" y="48.58901231605366" width="2" height="1.4109876839463382" style="fill: rgb(51, 51, 51); cursor: pointer;"/><rect class="bar" id="P80" x="150.53459119496856" y="47.484761085139134" width="2" height="2.5152389148608663" style="fill: rgb(51, 51, 51); cursor: pointer;"/><rect class="bar" id="P83" x="151.1006289308176" y="48.58901231605366" width="2" height="1.4109876839463382" style="fill: rgb(51, 51, 51); cursor: pointer;"/><rect class="bar" id="P85" x="151.47798742138366" y="48.58901231605366" width="2" height="1.4109876839463382" style="fill: rgb(51, 51, 51); cursor: pointer;"/><rect class="bar" id="P104" x="155.06289308176102" y="48.58901231605366" width="2" height="1.4109876839463382" style="fill: rgb(51, 51, 51); cursor: pointer;"/><rect class="bar" id="P114" x="156.9496855345912" y="45.52164778573553" width="2" height="4.4783522142644685" style="fill: rgb(51, 51, 51); cursor: pointer;"/><rect class="bar" id="P142" x="162.2327044025157" y="47.484761085139134" width="2" height="2.5152389148608663" style="fill: rgb(51, 51, 51); cursor: pointer;"/><rect class="bar" id="P202" x="173.55345911949684" y="48.58901231605366" width="2" height="1.4109876839463382" style="fill: rgb(51, 51, 51); cursor: pointer;"/><rect class="bar" id="P239" x="180.53459119496856" y="44.60143842664009" width="2" height="5.398561573359913" style="fill: rgb(51, 51, 51); cursor: pointer;"/><rect class="bar" id="P250" x="182.61006289308176" y="48.58901231605366" width="2" height="1.4109876839463382" style="fill: rgb(51, 51, 51); cursor: pointer;"/><rect class="bar" id="P258" x="184.1194968553459" y="43.19045074269375" width="2" height="6.8095492573062515" style="fill: rgb(51, 51, 51); cursor: pointer;"/><rect class="bar" id="P274" x="187.13836477987422" y="38.71209852842928" width="2" height="11.28790147157072" style="fill: rgb(51, 51, 51); cursor: pointer;"/><rect class="bar" id="P276" x="187.51572327044025" y="48.58901231605366" width="2" height="1.4109876839463382" style="fill: rgb(51, 51, 51); cursor: pointer;"/><rect class="bar" id="P278" x="187.8930817610063" y="48.58901231605366" width="2" height="1.4109876839463382" style="fill: rgb(51, 51, 51); cursor: pointer;"/><rect class="bar" id="P288" x="189.77987421383648" y="48.58901231605366" width="2" height="1.4109876839463382" style="fill: rgb(51, 51, 51); cursor: pointer;"/><rect class="bar" id="P300" x="192.0440251572327" y="48.58901231605366" width="2" height="1.4109876839463382" style="fill: rgb(51, 51, 51); cursor: pointer;"/><rect class="bar" id="P333" x="198.27044025157232" y="48.58901231605366" width="2" height="1.4109876839463382" style="fill: rgb(51, 51, 51); cursor: pointer;"/><rect class="bar" id="P340" x="199.59119496855345" y="43.803923648757376" width="2" height="6.196076351242624" style="fill: rgb(51, 51, 51); cursor: pointer;"/><rect class="bar" id="P354" x="202.23270440251574" y="48.58901231605366" width="2" height="1.4109876839463382" style="fill: rgb(51, 51, 51); cursor: pointer;"/><rect class="bar" id="P369" x="205.062893081761" y="48.58901231605366" width="2" height="1.4109876839463382" style="fill: rgb(51, 51, 51); cursor: pointer;"/><rect class="bar" id="P376" x="206.38364779874215" y="48.58901231605366" width="2" height="1.4109876839463382" style="fill: rgb(51, 51, 51); cursor: pointer;"/><rect class="bar" id="SH14" x="407.8301886792453" y="48.58901231605366" width="2" height="1.4109876839463382" style="fill: rgb(51, 51, 51); cursor: pointer;"/><rect class="bar" id="SH22" x="409.33962264150944" y="20.00117489348868" width="2" height="29.99882510651132" style="fill: rgb(51, 51, 51); cursor: pointer;"/><rect class="bar" id="SH29" x="410.66037735849056" y="21.350815286828656" width="2" height="28.649184713171344" style="fill: rgb(51, 51, 51); cursor: pointer;"/><rect class="bar" id="SH31" x="411.0377358490566" y="21.350815286828656" width="2" height="28.649184713171344" style="fill: rgb(51, 51, 51); cursor: pointer;"/><rect class="bar" id="SH34" x="411.60377358490564" y="48.58901231605366" width="2" height="1.4109876839463382" style="fill: rgb(51, 51, 51); cursor: pointer;"/><rect class="bar" id="SH35" x="411.7924528301887" y="21.350815286828656" width="2" height="28.649184713171344" style="fill: rgb(51, 51, 51); cursor: pointer;"/><rect class="bar" id="SH37" x="412.1698113207547" y="47.484761085139134" width="2" height="2.5152389148608663" style="fill: rgb(51, 51, 51); cursor: pointer;"/><rect class="bar" id="SH42" x="413.1132075471698" y="47.484761085139134" width="2" height="2.5152389148608663" style="fill: rgb(51, 51, 51); cursor: pointer;"/><rect class="bar" id="SH46" x="413.8679245283019" y="48.58901231605366" width="2" height="1.4109876839463382" style="fill: rgb(51, 51, 51); cursor: pointer;"/><rect class="bar" id="SH52" x="415" y="38.09862562236565" width="2" height="11.901374377634347" style="fill: rgb(51, 51, 51); cursor: pointer;"/><rect class="bar" id="HN58" x="437.8930817610063" y="43.19045074269375" width="2" height="6.8095492573062515" style="fill: rgb(136, 136, 136); cursor: pointer;"/><rect class="bar" id="HN69" x="439.9685534591195" y="44.60143842664009" width="2" height="5.398561573359913" style="fill: rgb(136, 136, 136); cursor: pointer;"/><rect class="bar" id="HN77" x="441.47798742138366" y="48.58901231605366" width="2" height="1.4109876839463382" style="fill: rgb(136, 136, 136); cursor: pointer;"/><rect class="bar" id="HN121" x="449.7798742138365" y="48.58901231605366" width="2" height="1.4109876839463382" style="fill: rgb(136, 136, 136); cursor: pointer;"/><rect class="bar" id="HN125" x="450.5345911949685" y="48.58901231605366" width="2" height="1.4109876839463382" style="fill: rgb(136, 136, 136); cursor: pointer;"/><rect class="bar" id="HN156" x="456.3836477987421" y="48.58901231605366" width="2" height="1.4109876839463382" style="fill: rgb(136, 136, 136); cursor: pointer;"/><rect class="bar" id="HN267" x="477.3270440251572" y="48.58901231605366" width="2" height="1.4109876839463382" style="fill: rgb(136, 136, 136); cursor: pointer;"/><rect class="bar" id="HN278" x="479.4025157232705" y="47.484761085139134" width="2" height="2.5152389148608663" style="fill: rgb(136, 136, 136); cursor: pointer;"/><rect class="bar" id="HN279" x="479.59119496855345" y="40.061738921769255" width="2" height="9.938261078230745" style="fill: rgb(136, 136, 136); cursor: pointer;"/><rect class="bar" id="HN343" x="491.6666666666667" y="45.52164778573553" width="2" height="4.4783522142644685" style="fill: rgb(136, 136, 136); cursor: pointer;"/><rect class="bar" id="HN354" x="493.74213836477986" y="48.58901231605366" width="2" height="1.4109876839463382" style="fill: rgb(136, 136, 136); cursor: pointer;"/><rect class="bar" id="HN359" x="494.685534591195" y="47.484761085139134" width="2" height="2.5152389148608663" style="fill: rgb(136, 136, 136); cursor: pointer;"/><rect class="bar" id="HN370" x="496.7610062893082" y="48.58901231605366" width="2" height="1.4109876839463382" style="fill: rgb(136, 136, 136); cursor: pointer;"/><rect class="bar" id="HN372" x="497.1383647798742" y="48.58901231605366" width="2" height="1.4109876839463382" style="fill: rgb(136, 136, 136); cursor: pointer;"/><rect class="bar" id="HN388" x="500.15723270440253" y="48.58901231605366" width="2" height="1.4109876839463382" style="fill: rgb(136, 136, 136); cursor: pointer;"/><rect class="bar" id="HN399" x="502.23270440251565" y="21.350815286828656" width="2" height="28.649184713171344" style="fill: rgb(136, 136, 136); cursor: pointer;"/><rect class="bar" id="HN402" x="502.79874213836484" y="38.71209852842928" width="2" height="11.28790147157072" style="fill: rgb(136, 136, 136); cursor: pointer;"/><rect class="bar" id="HN441" x="510.15723270440253" y="48.58901231605366" width="2" height="1.4109876839463382" style="fill: rgb(136, 136, 136); cursor: pointer;"/><rect class="bar" id="HN449" x="511.66666666666674" y="47.484761085139134" width="2" height="2.5152389148608663" style="fill: rgb(136, 136, 136); cursor: pointer;"/><rect class="bar" id="HN490" x="519.4025157232704" y="48.58901231605366" width="2" height="1.4109876839463382" style="fill: rgb(136, 136, 136); cursor: pointer;"/><rect class="bar" id="HN529" x="526.7610062893082" y="45.52164778573553" width="2" height="4.4783522142644685" style="fill: rgb(136, 136, 136); cursor: pointer;"/><rect class="bar" id="HN541" x="529.0251572327044" y="48.58901231605366" width="2" height="1.4109876839463382" style="fill: rgb(136, 136, 136); cursor: pointer;"/><rect class="bar" id="V3" x="136.0062893081761" y="48.58901231605366" width="2" height="1.4109876839463382" style="fill: rgb(136, 136, 136); cursor: pointer;"/><rect class="bar" id="V7" x="136.76100628930817" y="48.58901231605366" width="2" height="1.4109876839463382" style="fill: rgb(136, 136, 136); cursor: pointer;"/><rect class="bar" id="V18" x="138.83647798742138" y="48.58901231605366" width="2" height="1.4109876839463382" style="fill: rgb(136, 136, 136); cursor: pointer;"/><rect class="bar" id="V27" x="140.53459119496853" y="38.71209852842928" width="2" height="11.28790147157072" style="fill: rgb(136, 136, 136); cursor: pointer;"/><rect class="bar" id="V52" x="145.25157232704404" y="48.58901231605366" width="2" height="1.4109876839463382" style="fill: rgb(136, 136, 136); cursor: pointer;"/><rect class="bar" id="V57" x="146.19496855345912" y="44.60143842664009" width="2" height="5.398561573359913" style="fill: rgb(136, 136, 136); cursor: pointer;"/><rect class="bar" id="V76" x="149.77987421383648" y="48.58901231605366" width="2" height="1.4109876839463382" style="fill: rgb(136, 136, 136); cursor: pointer;"/><rect class="bar" id="V80" x="150.53459119496856" y="47.484761085139134" width="2" height="2.5152389148608663" style="fill: rgb(136, 136, 136); cursor: pointer;"/><rect class="bar" id="V83" x="151.1006289308176" y="48.58901231605366" width="2" height="1.4109876839463382" style="fill: rgb(136, 136, 136); cursor: pointer;"/><rect class="bar" id="V85" x="151.47798742138366" y="48.58901231605366" width="2" height="1.4109876839463382" style="fill: rgb(136, 136, 136); cursor: pointer;"/><rect class="bar" id="V104" x="155.06289308176102" y="48.58901231605366" width="2" height="1.4109876839463382" style="fill: rgb(136, 136, 136); cursor: pointer;"/><rect class="bar" id="V114" x="156.9496855345912" y="45.52164778573553" width="2" height="4.4783522142644685" style="fill: rgb(136, 136, 136); cursor: pointer;"/><rect class="bar" id="V142" x="162.2327044025157" y="47.484761085139134" width="2" height="2.5152389148608663" style="fill: rgb(136, 136, 136); cursor: pointer;"/><rect class="bar" id="V202" x="173.55345911949684" y="48.58901231605366" width="2" height="1.4109876839463382" style="fill: rgb(136, 136, 136); cursor: pointer;"/></g></g><g class="nav" transform="translate(15,70)"><g class="brush" stroke-width="0" fill="none" pointer-events="all" style="-webkit-tap-highlight-color: rgba(0, 0, 0, 0);"><rect class="overlay" pointer-events="all" cursor="crosshair" x="15" y="0" width="965" height="59"/><rect class="selection" cursor="move" fill="#777" fill-opacity="0.3" stroke="#fff" shape-rendering="crispEdges" x="15" y="0" width="960" height="59" style=""/><rect class="handle handle--e" cursor="ew-resize" x="972" y="-3" width="6" height="65" style=""/><rect class="handle handle--w" cursor="ew-resize" x="12" y="-3" width="6" height="65" style=""/><path class="handle--custom" fill="#333" cursor="ew-resize" d="M0,0 0,0 -5,11 5,11 0,0 Z" transform="translate(16,59)"/><path class="handle--custom" fill="#333" cursor="ew-resize" d="M0,0 0,0 -5,11 5,11 0,0 Z" transform="translate(974,59)"/></g><g><rect class="gene" x="296.8867924528302" y="5" width="101.69811320754718" height="20" style="fill: rgb(217, 173, 61); stroke: white;"/><text x="347.7358490566038" y="10" dy=".7em" text-anchor="middle" style="fill: white;">F</text></g><g><rect class="gene" x="135.44025157232704" y="5" width="32.45283018867926" height="20" style="fill: rgb(80, 151, 186); stroke: white;"/><text x="151.66666666666669" y="10" dy=".7em" text-anchor="middle" style="fill: white;">I</text></g><g><rect class="gene" x="41.477987421383645" y="5" width="82.45283018867924" height="20" style="fill: rgb(230, 112, 48); stroke: white;"/><text x="82.70440251572327" y="10" dy=".7em" text-anchor="middle" style="fill: white;">NC</text></g><g><rect class="gene" x="216.2578616352201" y="5" width="70.9433962264151" height="20" style="fill: rgb(142, 188, 102); stroke: white;"/><text x="251.72955974842768" y="10" dy=".7em" text-anchor="middle" style="fill: white;">M</text></g><g><rect class="gene" x="541.6666666666667" y="5" width="426.7924528301886" height="20" style="fill: rgb(229, 150, 55); stroke: white;"/><text x="755.0628930817611" y="10" dy=".7em" text-anchor="middle" style="fill: white;">L</text></g><g><rect class="gene" x="135.44025157232704" y="5" width="73.83647798742138" height="20" style="fill: rgb(170, 189, 82); stroke: white;"/><text x="172.35849056603774" y="10" dy=".7em" text-anchor="middle" style="fill: white;">P</text></g><g><rect class="gene" x="405.188679245283" y="5" width="10.943396226415075" height="20" style="fill: rgb(223, 67, 39); stroke: white;"/><text x="410.66037735849056" y="10" dy=".7em" text-anchor="middle" style="fill: white;">SH</text></g><g><rect class="gene" x="426.9496855345912" y="5" width="110.00000000000006" height="20" style="fill: rgb(196, 185, 69); stroke: white;"/><text x="481.94968553459125" y="10" dy=".7em" text-anchor="middle" style="fill: white;">HN</text></g><g><rect class="gene" x="135.44025157232704" y="5" width="42.45283018867923" height="20" style="fill: rgb(117, 182, 129); stroke: white;"/><text x="156.66666666666666" y="10" dy=".7em" text-anchor="middle" style="fill: white;">V</text></g></g><g class="y axis" id="entropyYAxis" transform="translate(30,0)" fill="none" font-size="10" font-family="sans-serif" text-anchor="end"><path class="domain" stroke="#000" d="M-6,50.5H0.5V0.5H-6"/><g class="tick" opacity="1" transform="translate(0,50.5)"><line stroke="#000" x2="-6"/><text fill="#000" x="-9" dy="0.32em">0.0</text></g><g class="tick" opacity="1" transform="translate(0,38.23054187872748)"><line stroke="#000" x2="-6"/><text fill="#000" x="-9" dy="0.32em">0.2</text></g><g class="tick" opacity="1" transform="translate(0,25.961083757454954)"><line stroke="#000" x2="-6"/><text fill="#000" x="-9" dy="0.32em">0.4</text></g><g class="tick" opacity="1" transform="translate(0,13.69162563618243)"><line stroke="#000" x2="-6"/><text fill="#000" x="-9" dy="0.32em">0.6</text></g><g class="tick" opacity="1" transform="translate(0,1.4221675149099084)"><line stroke="#000" x2="-6"/><text fill="#000" x="-9" dy="0.32em">0.8</text></g></g><g class="xMain axis" transform="translate(15,50)" fill="none" font-size="10" font-family="sans-serif" text-anchor="middle"><path class="domain" stroke="#000" d="M15.5,6V0.5H975.5V6"/><g class="tick" opacity="1" transform="translate(15.5,0)"><line stroke="#000" y2="6"/><text fill="#000" y="9" dy="0.71em">0</text></g><g class="tick" opacity="1" transform="translate(78.3930817610063,0)"><line stroke="#000" y2="6"/><text fill="#000" y="9" dy="0.71em">1,000</text></g><g class="tick" opacity="1" transform="translate(141.2861635220126,0)"><line stroke="#000" y2="6"/><text fill="#000" y="9" dy="0.71em">2,000</text></g><g class="tick" opacity="1" transform="translate(204.17924528301887,0)"><line stroke="#000" y2="6"/><text fill="#000" y="9" dy="0.71em">3,000</text></g><g class="tick" opacity="1" transform="translate(267.0723270440252,0)"><line stroke="#000" y2="6"/><text fill="#000" y="9" dy="0.71em">4,000</text></g><g class="tick" opacity="1" transform="translate(329.9654088050315,0)"><line stroke="#000" y2="6"/><text fill="#000" y="9" dy="0.71em">5,000</text></g><g class="tick" opacity="1" transform="translate(392.85849056603774,0)"><line stroke="#000" y2="6"/><text fill="#000" y="9" dy="0.71em">6,000</text></g><g class="tick" opacity="1" transform="translate(455.7515723270441,0)"><line stroke="#000" y2="6"/><text fill="#000" y="9" dy="0.71em">7,000</text></g><g class="tick" opacity="1" transform="translate(518.6446540880504,0)"><line stroke="#000" y2="6"/><text fill="#000" y="9" dy="0.71em">8,000</text></g><g class="tick" opacity="1" transform="translate(581.5377358490566,0)"><line stroke="#000" y2="6"/><text fill="#000" y="9" dy="0.71em">9,000</text></g><g class="tick" opacity="1" transform="translate(644.430817610063,0)"><line stroke="#000" y2="6"/><text fill="#000" y="9" dy="0.71em">10,000</text></g><g class="tick" opacity="1" transform="translate(707.3238993710693,0)"><line stroke="#000" y2="6"/><text fill="#000" y="9" dy="0.71em">11,000</text></g><g class="tick" opacity="1" transform="translate(770.2169811320755,0)"><line stroke="#000" y2="6"/><text fill="#000" y="9" dy="0.71em">12,000</text></g><g class="tick" opacity="1" transform="translate(833.1100628930818,0)"><line stroke="#000" y2="6"/><text fill="#000" y="9" dy="0.71em">13,000</text></g><g class="tick" opacity="1" transform="translate(896.0031446540881,0)"><line stroke="#000" y2="6"/><text fill="#000" y="9" dy="0.71em">14,000</text></g><g class="tick" opacity="1" transform="translate(958.8962264150942,0)"><line stroke="#000" y2="6"/><text fill="#000" y="9" dy="0.71em">15,000</text></g></g><g class="xNav axis" transform="translate(15,100)" fill="none" font-size="10" font-family="sans-serif" text-anchor="middle"><path class="domain" stroke="#000" d="M15.5,6V0.5H975.5V6"/><g class="tick" opacity="1" transform="translate(15.5,0)"><line stroke="#000" y2="6"/><text fill="#000" y="9" dy="0.71em">0</text></g><g class="tick" opacity="1" transform="translate(78.3930817610063,0)"><line stroke="#000" y2="6"/><text fill="#000" y="9" dy="0.71em">1,000</text></g><g class="tick" opacity="1" transform="translate(141.2861635220126,0)"><line stroke="#000" y2="6"/><text fill="#000" y="9" dy="0.71em">2,000</text></g><g class="tick" opacity="1" transform="translate(204.17924528301887,0)"><line stroke="#000" y2="6"/><text fill="#000" y="9" dy="0.71em">3,000</text></g><g class="tick" opacity="1" transform="translate(267.0723270440252,0)"><line stroke="#000" y2="6"/><text fill="#000" y="9" dy="0.71em">4,000</text></g><g class="tick" opacity="1" transform="translate(329.9654088050315,0)"><line stroke="#000" y2="6"/><text fill="#000" y="9" dy="0.71em">5,000</text></g><g class="tick" opacity="1" transform="translate(392.85849056603774,0)"><line stroke="#000" y2="6"/><text fill="#000" y="9" dy="0.71em">6,000</text></g><g class="tick" opacity="1" transform="translate(455.7515723270441,0)"><line stroke="#000" y2="6"/><text fill="#000" y="9" dy="0.71em">7,000</text></g><g class="tick" opacity="1" transform="translate(518.6446540880504,0)"><line stroke="#000" y2="6"/><text fill="#000" y="9" dy="0.71em">8,000</text></g><g class="tick" opacity="1" transform="translate(581.5377358490566,0)"><line stroke="#000" y2="6"/><text fill="#000" y="9" dy="0.71em">9,000</text></g><g class="tick" opacity="1" transform="translate(644.430817610063,0)"><line stroke="#000" y2="6"/><text fill="#000" y="9" dy="0.71em">10,000</text></g><g class="tick" opacity="1" transform="translate(707.3238993710693,0)"><line stroke="#000" y2="6"/><text fill="#000" y="9" dy="0.71em">11,000</text></g><g class="tick" opacity="1" transform="translate(770.2169811320755,0)"><line stroke="#000" y2="6"/><text fill="#000" y="9" dy="0.71em">12,000</text></g><g class="tick" opacity="1" transform="translate(833.1100628930818,0)"><line stroke="#000" y2="6"/><text fill="#000" y="9" dy="0.71em">13,000</text></g><g class="tick" opacity="1" transform="translate(896.0031446540881,0)"><line stroke="#000" y2="6"/><text fill="#000" y="9" dy="0.71em">14,000</text></g><g class="tick" opacity="1" transform="translate(958.8962264150942,0)"><line stroke="#000" y2="6"/><text fill="#000" y="9" dy="0.71em">15,000</text></g></g><g><clipPath transform="translate(15,0)" id="clip"><rect id="cliprect" width="960" height="50"/></clipPath></g></g></svg>