<?xml version="1.0" encoding="UTF-8" standalone="no"?>
<svg
   xmlns:dc="http://purl.org/dc/elements/1.1/"
   xmlns:cc="http://creativecommons.org/ns#"
   xmlns:rdf="http://www.w3.org/1999/02/22-rdf-syntax-ns#"
   xmlns:svg="http://www.w3.org/2000/svg"
   xmlns="http://www.w3.org/2000/svg"
   xmlns:sodipodi="http://sodipodi.sourceforge.net/DTD/sodipodi-0.dtd"
   xmlns:inkscape="http://www.inkscape.org/namespaces/inkscape"
   width="1792"
   height="1792"
   viewBox="0 0 1792 1792"
   version="1.1"
   id="svg3795"
   sodipodi:docname="Download_icon_-_Font_Awesome_-_Red.svg"
   inkscape:version="0.92.3 (2405546, 2018-03-11)">
  <metadata
     id="metadata3801">
    <rdf:RDF>
      <cc:Work
         rdf:about="">
        <dc:format>image/svg+xml</dc:format>
        <dc:type
           rdf:resource="http://purl.org/dc/dcmitype/StillImage" />
        <dc:title></dc:title>
      </cc:Work>
    </rdf:RDF>
  </metadata>
  <defs
     id="defs3799" />
  <sodipodi:namedview
     pagecolor="#ffffff"
     bordercolor="#666666"
     borderopacity="1"
     objecttolerance="10"
     gridtolerance="10"
     guidetolerance="10"
     inkscape:pageopacity="0"
     inkscape:pageshadow="2"
     inkscape:window-width="1213"
     inkscape:window-height="969"
     id="namedview3797"
     showgrid="false"
     inkscape:zoom="0.421875"
     inkscape:cx="896"
     inkscape:cy="896"
     inkscape:window-x="67"
     inkscape:window-y="27"
     inkscape:window-maximized="1"
     inkscape:current-layer="svg3795" />
  <path
     id="path3793"
     style="fill:LightSlateGrey"
     d="m 1403,616 q -17,-40 -59,-40 H 1088 V 128 q 0,-26 -19,-45 -19,-19 -45,-19 H 768 q -26,0 -45,19 -19,19 -19,45 V 576 H 448 q -42,0 -59,40 -17,39 14,69 l 448,448 q 18,19 45,19 27,0 45,-19 l 448,-448 q 31,-30 14,-69 z m 325,632 v 320 q 0,40 -28,68 -28,28 -68,28 H 160 q -40,0 -68,-28 -28,-28 -28,-68 v -320 q 0,-40 28,-68 28,-28 68,-28 h 427 q 21,56 70.5,92 49.5,36 110.5,36 h 256 q 61,0 110.5,-36 49.5,-36 70.5,-92 h 427 q 40,0 68,28 28,28 28,68 z m -128,224 q 0,-26 -19,-45 -19,-19 -45,-19 -26,0 -45,19 -19,19 -19,45 0,26 19,45 19,19 45,19 26,0 45,-19 19,-19 19,-45 z m -256,0 q 0,-26 -19,-45 -19,-19 -45,-19 -26,0 -45,19 -19,19 -19,45 0,26 19,45 19,19 45,19 26,0 45,-19 19,-19 19,-45 z" />
</svg>
